<svg width="181" height="156" viewBox="0 0 181 156" fill="none" xmlns="http://www.w3.org/2000/svg">
<path opacity="0.1" d="M103.745 148.973L108.086 143.214L125.539 133.69L144.499 129.881L147.112 124.122L161.952 115.705L144.1 100.467L93.0249 133.424L103.745 148.973Z" fill="black"/>
<path d="M0.0443115 110.921L90.5 155.573V153.358L0.0443115 108.706V110.921Z" fill="#EEBC92"/>
<path d="M90.5 155.573L103.745 148.973V146.758L90.5 153.358V155.573Z" fill="#D2A782"/>
<path d="M0.0443115 108.706L90.5 153.358L103.745 146.714L13.2893 102.062L0.0443115 108.706Z" fill="#F1D3A0"/>
<path d="M24.408 108.618L12.2262 114.731V106.757L24.408 100.688V108.618Z" fill="#D2A782"/>
<path d="M12.2261 114.731L0 108.618V100.688L12.2261 106.757V114.731Z" fill="#E1BD9E"/>
<path d="M24.408 100.689L12.2261 106.757L0 100.689L12.2261 94.5754L24.408 100.689Z" fill="#EEBB66"/>
<path d="M63.5671 127.932L51.3853 134.045V126.071L63.5671 120.002V127.932Z" fill="#D2A782"/>
<path d="M51.3852 134.045L39.1591 127.932V120.002L51.3852 126.071V134.045Z" fill="#E1BD9E"/>
<path d="M63.5671 120.002L51.3852 126.071L39.1591 120.002L51.3852 113.889L63.5671 120.002Z" fill="#EEBB66"/>
<path d="M102.682 147.201L90.5 153.27V145.34L102.682 139.227V147.201Z" fill="#D2A782"/>
<path d="M90.5 153.27L78.3181 147.201V139.227L90.5 145.34V153.27Z" fill="#E1BD9E"/>
<path d="M102.682 139.227L90.5 145.341L78.3181 139.227L90.5 133.159L102.682 139.227Z" fill="#FBDDAB"/>
<path d="M0.0443115 100.689L90.5 145.34V143.126L0.0443115 98.4736V100.689Z" fill="#EEBC92"/>
<path d="M90.5 145.341L103.745 138.696V136.481L90.5 143.126V145.341Z" fill="#D2A782"/>
<path d="M0.0443115 98.4737L90.5 143.126L103.745 136.481L13.2893 91.8291L0.0443115 98.4737Z" fill="#F1D3A0"/>
<path d="M77.2993 73.6669L167.755 118.319V116.104L77.2993 71.452V73.6669Z" fill="#BF9775"/>
<path d="M167.755 118.319L181 111.674V109.459L167.755 116.104V118.319Z" fill="#D2A782"/>
<path d="M77.2993 71.452L167.755 116.104L181 109.459L90.5443 64.8074L77.2993 71.452Z" fill="#F1D3A0"/>
<path d="M101.619 70.8763L89.4368 76.9894V69.0158L101.619 62.947V70.8763Z" fill="#D2A782"/>
<path d="M89.4367 76.9894L77.2549 70.8763V62.947L89.4367 69.0158V76.9894Z" fill="#E1BD9E"/>
<path d="M101.619 62.947L89.4367 69.0158L77.2549 62.9028L89.4367 56.834L101.619 62.947Z" fill="#EEBB66"/>
<path d="M140.689 90.2343L128.507 96.3031V88.3738L140.689 82.2607V90.2343Z" fill="#D2A782"/>
<path d="M128.507 96.3031L116.325 90.2343V82.2607L128.507 88.3738V96.3031Z" fill="#E1BD9E"/>
<path d="M140.689 82.2608L128.507 88.3739L116.325 82.2608L128.507 76.192L140.689 82.2608Z" fill="#EEBB66"/>
<path d="M179.937 109.46L167.755 115.573V107.599L179.937 101.53V109.46Z" fill="#D2A782"/>
<path d="M167.755 115.573L155.529 109.46V101.53L167.755 107.599V115.573Z" fill="#B2967D"/>
<path d="M179.937 101.53L167.755 107.599L155.529 101.53L167.755 95.4172L179.937 101.53Z" fill="#FBDDAB"/>
<path d="M77.2993 62.9026L167.755 107.599V105.384L77.2993 60.6877V62.9026Z" fill="#BF9775"/>
<path d="M167.755 107.599L181 100.954V98.7395L167.755 105.384V107.599Z" fill="#D2A782"/>
<path d="M77.2993 60.6878L167.755 105.384L181 98.7394L90.5443 54.0874L77.2993 60.6878Z" fill="#F1D3A0"/>
<path d="M40.7538 91.6076L131.209 136.26V134.045L40.7538 89.3927V91.6076Z" fill="#BF9775"/>
<path d="M131.209 136.26L144.499 129.615V127.4L131.209 134.045V136.26Z" fill="#D2A782"/>
<path d="M40.7538 89.3927L131.21 134.045L144.499 127.4L53.9988 82.748L40.7538 89.3927Z" fill="#F1D3A0"/>
<path d="M65.1174 88.8167L52.9355 94.9298V86.9562L65.1174 80.8431V88.8167Z" fill="#D2A782"/>
<path d="M52.9356 94.9298L40.7538 88.8167V80.8431L52.9356 86.9562V94.9298Z" fill="#E1BD9E"/>
<path d="M65.1175 80.8432L52.9356 86.9563L40.7538 80.8432L52.9356 74.7744L65.1175 80.8432Z" fill="#EEBB66"/>
<path d="M104.188 108.131L92.0061 114.244V106.314L104.188 100.201V108.131Z" fill="#D2A782"/>
<path d="M92.0061 114.244L79.8242 108.131V100.201L92.0061 106.314V114.244Z" fill="#E1BD9E"/>
<path d="M104.188 100.201L92.0061 106.314L79.8242 100.201L92.0061 94.0883L104.188 100.201Z" fill="#EEBB66"/>
<path d="M143.436 127.4L131.209 133.513V125.54L143.436 119.471V127.4Z" fill="#D2A782"/>
<path d="M131.209 133.513L119.028 127.4V119.471L131.209 125.54V133.513Z" fill="#B2967D"/>
<path d="M143.436 119.471L131.209 125.539L119.028 119.426L131.209 113.358L143.436 119.471Z" fill="#FBDDAB"/>
<path d="M40.7538 80.8433L131.209 125.54V123.28L40.7538 78.6284V80.8433Z" fill="#BF9775"/>
<path d="M131.209 125.539L144.499 118.895V116.68L131.209 123.325V125.539Z" fill="#D2A782"/>
<path d="M40.7538 78.6283L131.21 123.325L144.499 116.68L53.9988 72.028L40.7538 78.6283Z" fill="#F1D3A0"/>
<path d="M103.745 60.3334L13.2893 105.03V102.815L103.745 58.1628V60.3334Z" fill="#D2A782"/>
<path d="M13.2893 105.03L0.0443115 98.385V96.1702L13.2893 102.815V105.03Z" fill="#EEBC92"/>
<path d="M103.745 58.1628L13.2893 102.815L0.0443115 96.1702L90.5 51.5182L103.745 58.1628Z" fill="#FBDDAB"/>
<path d="M142.372 79.47L51.9167 124.122V121.907L142.372 77.2551V79.47Z" fill="#D2A782"/>
<path d="M51.9167 124.122L38.6274 117.477V115.262L51.9167 121.907V124.122Z" fill="#EEBC92"/>
<path d="M142.372 77.2551L51.9167 121.907L38.6274 115.262L129.083 70.6105L142.372 77.2551Z" fill="#FBDDAB"/>
<path d="M123.635 70.0789L33.179 114.731V112.516L123.635 67.864V70.0789Z" fill="#D2A782"/>
<path d="M33.1789 114.731L19.8896 108.086V105.871L33.1789 112.516V114.731Z" fill="#EEBC92"/>
<path d="M123.635 67.864L33.1789 112.516L19.8896 105.871L110.39 61.2194L123.635 67.864Z" fill="#FBDDAB"/>
<path d="M162.971 89.6142L72.5154 134.266V132.051L162.971 87.3993V89.6142Z" fill="#D2A782"/>
<path d="M72.5153 134.266L59.2703 127.666V125.451L72.5153 132.051V134.266Z" fill="#EEBC92"/>
<path d="M162.971 87.3993L72.5153 132.051L59.2703 125.407L149.726 80.7546L162.971 87.3993Z" fill="#FBDDAB"/>
<path d="M180.955 98.5622L90.4998 143.214V140.999L180.955 96.3473V98.5622Z" fill="#D2A782"/>
<path d="M90.4999 143.214L77.2549 136.57V134.355L90.4999 140.999V143.214Z" fill="#EEBC92"/>
<path d="M180.956 96.3473L90.4999 140.999L77.2549 134.355L167.711 89.7026L180.956 96.3473Z" fill="#FBDDAB"/>
<path d="M113.845 73.3569L37.2986 109.637V50.8537L113.845 14.574V73.3569Z" fill="#17A2B8"/>
<path d="M37.2986 109.637L8.15076 95.0627V36.3241L37.2986 50.8537V109.637Z" fill="#148092"/>
<path d="M113.845 14.574L37.2986 50.8538L8.15076 36.2799L84.697 0.00012207L113.845 14.574Z" fill="#34B3C7"/>
<path d="M37.2986 50.9423L8.15076 36.3684V36.3241L8.23934 36.2798L37.2986 50.8094V50.9423Z" fill="#F0C673"/>
<path d="M37.2986 50.9423L113.845 14.6626V14.574H113.756L37.2986 50.8094V50.9423Z" fill="#F0DAAF"/>
<path d="M23.9207 59.3146L19.7124 57.2326V42.1714L23.9207 44.2534V59.3146Z" fill="#455A64"/>
<path d="M19.7124 42.1713L23.9207 44.2533L100.733 8.01789L96.5244 5.93591L19.7124 42.1713Z" fill="#455A64"/>
<path d="M18.0292 48.6388L10.6758 46.5125L9.83411 41.9055L17.1875 44.0761L18.0292 48.6388Z" fill="white"/>
<path d="M11.7389 46.0253L11.5617 45.981L10.9858 43.0131L11.163 43.0574L11.7389 46.0253Z" fill="#5B677E"/>
<path d="M11.9161 46.1138L11.8275 46.0695L11.2959 43.1016L11.3845 43.1459L11.9161 46.1138Z" fill="#5B677E"/>
<path d="M12.1375 46.1581H12.0489L11.473 43.1902H11.5616L12.1375 46.1581Z" fill="#5B677E"/>
<path d="M12.359 46.2467L12.2704 46.2024L11.6946 43.2345H11.7832L12.359 46.2467Z" fill="#5B677E"/>
<path d="M12.5362 46.2911L12.4476 46.2468L11.916 43.2788L12.0046 43.3231L12.5362 46.2911Z" fill="#5B677E"/>
<path d="M12.8463 46.3797L12.6691 46.3354L12.0933 43.3674L12.2704 43.4117L12.8463 46.3797Z" fill="#5B677E"/>
<path d="M13.6436 46.6012H13.555L12.9791 43.589L13.0677 43.6333L13.6436 46.6012Z" fill="#5B677E"/>
<path d="M13.8651 46.6454H13.7765L13.2007 43.6775H13.2893L13.8651 46.6454Z" fill="#5B677E"/>
<path d="M14.1309 46.7339L13.9537 46.6896L13.4221 43.7217L13.5993 43.766L14.1309 46.7339Z" fill="#5B677E"/>
<path d="M13.1564 46.4683L12.9792 46.424L12.4033 43.4561L12.5805 43.5004L13.1564 46.4683Z" fill="#5B677E"/>
<path d="M13.4221 46.5568L13.245 46.5125L12.7134 43.5002L12.8906 43.5888L13.4221 46.5568Z" fill="#5B677E"/>
<path d="M14.4409 46.8225L14.2637 46.7782L13.6879 43.8103L13.8651 43.8546L14.4409 46.8225Z" fill="#5B677E"/>
<path d="M14.6625 46.9112L14.5739 46.8669L13.998 43.8989L14.0866 43.9432L14.6625 46.9112Z" fill="#5B677E"/>
<path d="M14.8397 46.9555L14.7511 46.9112L14.2195 43.9432L14.3081 43.9875L14.8397 46.9555Z" fill="#5B677E"/>
<path d="M15.0612 46.9998H14.9726L14.3967 44.0319H14.4853L15.0612 46.9998Z" fill="#5B677E"/>
<path d="M15.2828 47.0884L15.1941 47.0441L14.6183 44.0762L14.7069 44.1205L15.2828 47.0884Z" fill="#5B677E"/>
<path d="M15.5484 47.177L15.3712 47.1327L14.8396 44.1205L15.0168 44.2091L15.5484 47.177Z" fill="#5B677E"/>
<path d="M16.3459 47.3985L16.2573 47.3542L15.7257 44.3862L15.8143 44.4305L16.3459 47.3985Z" fill="#5B677E"/>
<path d="M16.5673 47.4428H16.4787L15.9028 44.4749H15.9914L16.5673 47.4428Z" fill="#5B677E"/>
<path d="M16.8773 47.5314L16.7001 47.4871L16.1243 44.5192L16.3015 44.5635L16.8773 47.5314Z" fill="#5B677E"/>
<path d="M15.8585 47.2656L15.6813 47.1771L15.1055 44.2091L15.2827 44.2977L15.8585 47.2656Z" fill="#5B677E"/>
<path d="M16.1686 47.3541L15.9914 47.2655L15.4155 44.2976L15.5927 44.3862L16.1686 47.3541Z" fill="#5B677E"/>
<path d="M35.2166 56.5681L26.0027 51.9168V47.5314L35.2166 52.1383V56.5681Z" fill="white"/>
<path fill-rule="evenodd" clip-rule="evenodd" d="M12.7134 92.6706V95.9487C12.7134 96.0373 12.6248 96.0816 12.4919 96.0373L9.21392 94.3983C9.08103 94.354 8.99243 94.1768 8.99243 94.0882V90.8102C8.99243 90.6773 9.08103 90.633 9.21392 90.6773L12.4919 92.3163C12.6248 92.3606 12.7134 92.5378 12.7134 92.6706ZM12.5362 92.7592C12.5362 92.6264 12.4476 92.4492 12.3148 92.4049L9.39111 90.943C9.25821 90.8987 9.16962 90.943 9.16962 91.0316V93.9553C9.16962 94.0882 9.25821 94.2654 9.39111 94.3097L12.3148 95.7715C12.4476 95.8601 12.5362 95.7715 12.5362 95.6829V92.7592Z" fill="#5B677E"/>
<path d="M10.277 94.2211L10.0555 94.1325V91.8733L10.277 91.9619V94.2211Z" fill="#5B677E"/>
<path d="M10.1442 91.6075L9.87842 92.0505L10.1442 92.1834L10.4543 92.3163L10.1442 91.6075Z" fill="#5B677E"/>
<path d="M11.6503 94.9298L11.4731 94.8412V92.582L11.6503 92.6706V94.9298Z" fill="#5B677E"/>
<path d="M11.5617 92.3163L11.2516 92.7593L11.5617 92.8921L11.8275 93.025L11.5617 92.3163Z" fill="#5B677E"/>
<path d="M9.56836 94.1767V93.9995L12.1376 95.2841V95.4613L9.56836 94.1767Z" fill="#5B677E"/>
<path fill-rule="evenodd" clip-rule="evenodd" d="M17.1432 94.8413V98.1193C17.1432 98.2522 17.0103 98.2965 16.9217 98.2522L13.6437 96.6132C13.5108 96.5246 13.4222 96.3917 13.4222 96.2588V92.9808C13.4222 92.8922 13.5108 92.8036 13.6437 92.8922L16.9217 94.5312C17.0103 94.5755 17.1432 94.7527 17.1432 94.8413ZM16.966 94.9299C16.966 94.8413 16.8332 94.6641 16.7446 94.6198L13.8209 93.158C13.688 93.0694 13.5551 93.1137 13.5551 93.2466V96.1702C13.5551 96.3031 13.688 96.4803 13.8209 96.5246L16.7446 97.9864C16.8332 98.0307 16.966 97.9864 16.966 97.8535V94.9299Z" fill="#5B677E"/>
<path d="M16.0357 96.1702C15.77 96.0373 15.5485 95.6829 15.5485 95.4171V94.2654L16.523 94.7527V95.9044C16.523 96.1702 16.3015 96.3031 16.0357 96.1702Z" fill="#5B677E"/>
<path d="M16.0801 97.3663L15.9915 97.2777V96.0817L16.0801 96.126V97.3663Z" fill="#5B677E"/>
<path d="M15.5485 97.1447C15.5485 97.1004 15.5928 97.0561 15.6371 97.1004L16.4344 97.4991C16.4787 97.4991 16.523 97.5877 16.523 97.632L15.5485 97.1447Z" fill="#5B677E"/>
<path fill-rule="evenodd" clip-rule="evenodd" d="M14.9727 93.9553V95.1513C14.9727 95.4171 14.7512 95.5057 14.4854 95.3728C14.2197 95.2399 13.9982 94.9298 13.9982 94.6197V93.468L14.9727 93.9553ZM14.8398 93.9996L14.0425 93.6009V94.664C14.0425 94.8855 14.264 95.1513 14.4411 95.2842C14.6626 95.3728 14.8398 95.2842 14.8398 95.0627V93.9996Z" fill="#5B677E"/>
<path d="M14.5296 96.5688L14.441 96.5245V95.3285L14.5296 95.3728V96.5688Z" fill="#5B677E"/>
<path d="M13.9982 96.3916C13.9982 96.303 14.0425 96.303 14.0868 96.303L14.8841 96.7017C14.9284 96.746 14.9727 96.8345 14.9727 96.8788L13.9982 96.3916Z" fill="#5B677E"/>
<path fill-rule="evenodd" clip-rule="evenodd" d="M21.5286 97.0561V100.334C21.5286 100.467 21.44 100.511 21.3071 100.467L18.0291 98.828C17.8962 98.7394 17.8076 98.6065 17.8076 98.4736V95.1956C17.8076 95.0627 17.8962 95.0184 18.0291 95.107L21.3071 96.746C21.44 96.7903 21.5286 96.9232 21.5286 97.0561ZM21.3514 97.1447C21.3514 97.0118 21.2628 96.8789 21.1299 96.8346L18.2063 95.3728C18.0734 95.2842 17.9848 95.3285 17.9848 95.4614V98.385C17.9848 98.5179 18.0734 98.6508 18.2063 98.7394L21.1299 100.201C21.2628 100.246 21.3514 100.201 21.3514 100.068V97.1447Z" fill="#5B677E"/>
<path d="M19.0037 97.3664C19.0923 97.3369 19.2104 97.3517 19.358 97.4107C19.4909 97.4993 19.6238 97.5879 19.7124 97.7208C19.801 97.6913 19.9191 97.7061 20.0668 97.7651C20.1997 97.8537 20.3326 97.9423 20.4212 98.0752C20.5393 98.0457 20.6574 98.0604 20.7756 98.1195C20.8051 98.149 20.8346 98.1638 20.8641 98.1638C20.8199 97.5436 20.3326 96.8792 19.7124 96.5691C19.1366 96.259 18.6493 96.4805 18.605 97.0121C18.605 97.0416 18.6197 97.0564 18.6493 97.0564C18.7822 97.145 18.9151 97.2336 19.0037 97.3664Z" fill="#5B677E"/>
<path d="M19.491 99.1824C19.3138 99.0938 19.1809 98.8723 19.1809 98.6951V98.6508C19.1809 98.6212 19.1957 98.6065 19.2252 98.6065C19.2695 98.6508 19.3138 98.6951 19.3138 98.7394V98.7837C19.3138 98.8723 19.4024 99.0052 19.491 99.0495C19.5796 99.0938 19.6682 99.0495 19.6682 98.9609V96.4359C19.6682 96.3768 19.683 96.3621 19.7125 96.3916C19.7568 96.3916 19.8011 96.4359 19.8011 96.4802V99.0052C19.8011 99.1824 19.6682 99.2709 19.491 99.1824Z" fill="#5B677E"/>
<path d="M86.4689 4.03108L78.7168 7.88498L78.4954 7.75209L86.2474 3.89819L86.4689 4.03108Z" fill="#5B677E"/>
<path d="M87.2662 4.3856L79.5141 8.28378L79.2483 8.15089L87.0004 4.297L87.2662 4.3856Z" fill="#5B677E"/>
<path d="M88.0193 4.78413L80.2673 8.63803L80.0015 8.54943L87.7535 4.65125L88.0193 4.78413Z" fill="#5B677E"/>
<path d="M88.7723 5.13864L81.0202 9.03683L80.7544 8.90393L88.5065 5.05005L88.7723 5.13864Z" fill="#5B677E"/>
<path d="M40.1336 42.3929L32.3815 46.2911L32.16 46.1582L39.9121 42.3043L40.1336 42.3929Z" fill="#5B677E"/>
<path d="M40.8867 42.7916L33.1346 46.6898L32.9131 46.5569L40.6652 42.6587L40.8867 42.7916Z" fill="#5B677E"/>
<path d="M41.684 43.1903L33.9319 47.0442L33.6661 46.9113L41.4182 43.0574L41.684 43.1903Z" fill="#5B677E"/>
<path d="M42.437 43.5446L34.685 47.4428L34.4192 47.3099L42.1713 43.4117L42.437 43.5446Z" fill="#5B677E"/>
<path opacity="0.1" d="M86.1145 134.975L113.845 129.482L180.956 96.3473L167.711 89.7026L86.1145 134.975Z" fill="black"/>
<path d="M147.511 83.191L124.609 94.6641V79.7358L147.511 68.307V83.191Z" fill="#17A2B8"/>
<path d="M124.609 94.6641L101.752 83.191V68.307L124.609 79.7358V94.6641Z" fill="#D8B268"/>
<path d="M147.511 68.307L124.609 79.7357L101.752 68.307L124.609 56.8782L147.511 68.307Z" fill="#34B3C7"/>
<path d="M124.609 79.7801L101.752 68.3513V68.307L101.796 68.2627L124.609 79.6915V79.7801Z" fill="#F0C673"/>
<path d="M124.609 79.7801L147.511 68.3513V68.307L147.467 68.2627L124.609 79.6915V79.7801Z" fill="#F0DAAF"/>
<path d="M124.609 82.5708V79.7357C124.609 79.7357 123.325 80.7546 124.609 94.664V91.0759C124.122 83.5453 124.388 85.7602 124.609 82.5708Z" fill="#CA9761"/>
<path d="M124.609 93.4237V80.1787C124.388 83.3681 124.122 85.8931 124.609 93.4237Z" fill="#AC7C47"/>
<path d="M114.111 80.4445L110.833 78.8055V72.9139L114.111 74.553V80.4445Z" fill="#FBF2D2"/>
<path d="M110.833 72.9139L114.111 74.5529L137.234 63.1684L133.912 61.4851L110.833 72.9139Z" fill="#455A64"/>
<path d="M109.504 77.9638L103.745 76.3248L103.036 72.6924L108.839 74.3757L109.504 77.9638Z" fill="white"/>
<path d="M104.542 75.9262H104.41L103.967 73.5784L104.099 73.6227L104.542 75.9262Z" fill="#5B677E"/>
<path d="M104.72 76.0147L104.631 75.9705L104.188 73.6227L104.277 73.667L104.72 76.0147Z" fill="#5B677E"/>
<path d="M104.897 76.0591L104.808 76.0148L104.365 73.667L104.454 73.7113L104.897 76.0591Z" fill="#5B677E"/>
<path d="M105.029 76.1034L104.985 76.0591L104.542 73.7556H104.587L105.029 76.1034Z" fill="#5B677E"/>
<path d="M105.207 76.1477L105.118 76.1034L104.675 73.7999H104.764L105.207 76.1477Z" fill="#5B677E"/>
<path d="M105.428 76.1919L105.295 76.1476L104.852 73.8441L104.985 73.8884L105.428 76.1919Z" fill="#5B677E"/>
<path d="M106.049 76.3691H106.004L105.561 74.0214L105.606 74.0657L106.049 76.3691Z" fill="#5B677E"/>
<path d="M106.225 76.4133H106.137L105.694 74.0656L105.782 74.1099L106.225 76.4133Z" fill="#5B677E"/>
<path d="M106.447 76.5021L106.314 76.4578L105.871 74.11L106.004 74.1543L106.447 76.5021Z" fill="#5B677E"/>
<path d="M105.65 76.2805L105.517 76.2362L105.074 73.8884L105.207 73.9327L105.65 76.2805Z" fill="#5B677E"/>
<path d="M105.915 76.3248L105.738 76.2805L105.34 73.9771L105.472 74.0213L105.915 76.3248Z" fill="#5B677E"/>
<path d="M106.669 76.5907L106.536 76.5464L106.093 74.1986L106.226 74.2429L106.669 76.5907Z" fill="#5B677E"/>
<path d="M106.846 76.6349L106.801 76.5906L106.358 74.2428L106.403 74.2871L106.846 76.6349Z" fill="#5B677E"/>
<path d="M107.023 76.6792L106.934 76.6349L106.491 74.2871L106.58 74.3314L107.023 76.6792Z" fill="#5B677E"/>
<path d="M107.156 76.7235L107.112 76.6792L106.669 74.3757H106.713L107.156 76.7235Z" fill="#5B677E"/>
<path d="M107.333 76.7678L107.289 76.7235L106.846 74.42H106.89L107.333 76.7678Z" fill="#5B677E"/>
<path d="M107.554 76.812L107.421 76.7677L106.979 74.4642L107.111 74.5085L107.554 76.812Z" fill="#5B677E"/>
<path d="M108.175 76.9892H108.13L107.688 74.6415L107.776 74.6858L108.175 76.9892Z" fill="#5B677E"/>
<path d="M108.352 77.0336H108.308L107.865 74.6858L107.909 74.7301L108.352 77.0336Z" fill="#5B677E"/>
<path d="M108.573 77.1222L108.441 77.0779L107.998 74.7301L108.13 74.7744L108.573 77.1222Z" fill="#5B677E"/>
<path d="M107.82 76.9006L107.643 76.8563L107.2 74.5085L107.377 74.5528L107.82 76.9006Z" fill="#5B677E"/>
<path d="M108.042 76.9449L107.909 76.9006L107.466 74.5972L107.599 74.6415L108.042 76.9449Z" fill="#5B677E"/>
<path d="M123.014 84.2098L115.75 80.5774V77.1222L123.014 80.7546V84.2098Z" fill="white"/>
<path fill-rule="evenodd" clip-rule="evenodd" d="M105.34 80.9318V83.5454C105.34 83.634 105.251 83.6783 105.162 83.634L102.593 82.3051C102.505 82.2608 102.416 82.1722 102.416 82.0836V79.47C102.416 79.3814 102.505 79.3371 102.593 79.4257L105.162 80.7104C105.251 80.7547 105.34 80.8433 105.34 80.9318ZM105.207 81.0204C105.207 80.9319 105.118 80.799 105.03 80.7547L102.726 79.6029C102.637 79.5586 102.549 79.6029 102.549 79.6915V81.995C102.549 82.0836 102.637 82.2165 102.726 82.2608L105.03 83.4125C105.118 83.4568 105.207 83.4125 105.207 83.3239V81.0204Z" fill="#5B677E"/>
<path d="M103.39 82.1722L103.258 82.1279V80.356L103.39 80.4445V82.1722Z" fill="#5B677E"/>
<path d="M103.302 80.1344L103.081 80.4888L103.302 80.5774L103.524 80.7103L103.302 80.1344Z" fill="#5B677E"/>
<path d="M104.498 82.748L104.321 82.6594V80.8875L104.498 80.9761V82.748Z" fill="#5B677E"/>
<path d="M104.409 80.7102L104.188 81.0203L104.409 81.1532L104.631 81.2418L104.409 80.7102Z" fill="#5B677E"/>
<path d="M102.859 82.1722V81.995L104.853 83.0138V83.1467L102.859 82.1722Z" fill="#5B677E"/>
<path fill-rule="evenodd" clip-rule="evenodd" d="M108.795 82.7036V85.2729C108.795 85.3615 108.706 85.4058 108.618 85.3615L106.048 84.0768C105.96 84.0325 105.871 83.8997 105.871 83.8111V81.2418C105.871 81.1089 105.96 81.1089 106.048 81.1532L108.618 82.4378C108.706 82.4821 108.795 82.5707 108.795 82.7036ZM108.662 82.7479C108.662 82.6593 108.573 82.5264 108.485 82.4821L106.181 81.3304C106.093 81.2861 106.004 81.3304 106.004 81.419V83.7225C106.004 83.8111 106.093 83.9439 106.181 83.9882L108.485 85.14C108.573 85.1843 108.662 85.14 108.662 85.0514V82.7479Z" fill="#5B677E"/>
<path d="M107.953 83.7227C107.732 83.5898 107.555 83.324 107.555 83.1025V82.2166L108.352 82.6152V83.5012C108.352 83.7227 108.175 83.8113 107.953 83.7227Z" fill="#5B677E"/>
<path d="M107.998 84.6528L107.909 84.6085V83.6339L107.998 83.6782V84.6528Z" fill="#5B677E"/>
<path d="M107.555 84.4757C107.555 84.4314 107.599 84.4314 107.643 84.4314L108.263 84.7415C108.308 84.7858 108.352 84.8301 108.352 84.8744L107.555 84.4757Z" fill="#5B677E"/>
<path fill-rule="evenodd" clip-rule="evenodd" d="M107.112 81.995V82.9252C107.112 83.1024 106.934 83.191 106.713 83.1024C106.491 83.0138 106.314 82.7481 106.314 82.5266V81.5963L107.112 81.995ZM107.067 82.0393L106.403 81.7292V82.5709C106.403 82.7481 106.58 82.9252 106.757 83.0138C106.89 83.1024 107.067 83.0581 107.067 82.8809V82.0393Z" fill="#5B677E"/>
<path d="M106.757 84.0326L106.669 83.9883V83.0581L106.757 83.1024V84.0326Z" fill="#5B677E"/>
<path d="M106.314 83.8998C106.314 83.8112 106.359 83.8112 106.403 83.8555L107.023 84.1213C107.067 84.1656 107.112 84.2099 107.112 84.2542L106.314 83.8998Z" fill="#5B677E"/>
<path fill-rule="evenodd" clip-rule="evenodd" d="M112.25 84.4312V87.0005C112.25 87.0891 112.161 87.1334 112.073 87.0891L109.504 85.8044C109.415 85.7601 109.326 85.6272 109.326 85.5386V82.9694C109.326 82.8808 109.415 82.8365 109.504 82.8808L112.073 84.1654C112.161 84.2097 112.25 84.3426 112.25 84.4312ZM112.117 84.4755C112.117 84.3869 112.029 84.254 111.94 84.2097L109.637 83.058C109.548 83.0137 109.459 83.058 109.459 83.1466V85.45C109.459 85.5386 109.548 85.6715 109.637 85.7158L111.94 86.8676C112.029 86.9119 112.117 86.8676 112.117 86.779V84.4755Z" fill="#5B677E"/>
<path d="M110.257 84.6528C110.345 84.6232 110.449 84.638 110.567 84.6971C110.655 84.7561 110.744 84.8299 110.832 84.9185C110.921 84.889 111.01 84.9038 111.098 84.9628C111.216 85.0219 111.32 85.1105 111.408 85.2286C111.467 85.1991 111.556 85.1991 111.674 85.2286C111.704 85.2582 111.718 85.2729 111.718 85.2729C111.674 84.83 111.32 84.2541 110.832 84.0326C110.39 83.7668 109.991 83.944 109.947 84.387C109.976 84.387 109.991 84.4017 109.991 84.4313C110.109 84.4903 110.198 84.5642 110.257 84.6528Z" fill="#5B677E"/>
<path d="M110.655 86.0704C110.523 86.0261 110.39 85.8489 110.39 85.716V85.6717C110.419 85.6422 110.449 85.6274 110.478 85.6274C110.478 85.6717 110.523 85.6717 110.523 85.716V85.7603C110.523 85.8489 110.567 85.9375 110.655 85.9818C110.744 86.0261 110.788 85.9818 110.788 85.8932V83.8998C110.788 83.8703 110.803 83.8703 110.833 83.8998C110.877 83.8998 110.877 83.9441 110.877 83.9441V85.9375C110.877 86.0704 110.788 86.159 110.655 86.0704Z" fill="#5B677E"/>
<path d="M125.805 59.4032L119.737 62.4154L119.559 62.3268L125.628 59.3146L125.805 59.4032Z" fill="#5B677E"/>
<path d="M126.425 59.6689L120.356 62.7254L120.135 62.6369L126.248 59.5803L126.425 59.6689Z" fill="#5B677E"/>
<path d="M127.001 59.979L120.932 63.0355L120.755 62.9469L126.824 59.8904L127.001 59.979Z" fill="#5B677E"/>
<path d="M127.621 60.289L121.553 63.3456L121.331 63.2127L127.444 60.2004L127.621 60.289Z" fill="#5B677E"/>
<path d="M126.868 73.0912L120.8 76.1477L120.578 76.0591L126.691 73.0026L126.868 73.0912Z" fill="#5B677E"/>
<path d="M127.444 73.4011L121.375 76.4576L121.198 76.3247L127.267 73.3125L127.444 73.4011Z" fill="#5B677E"/>
<path d="M128.064 73.7113L121.995 76.7235L121.774 76.6349L127.887 73.5784L128.064 73.7113Z" fill="#5B677E"/>
<path d="M128.64 73.977L122.571 77.0336L122.394 76.945L128.463 73.8884L128.64 73.977Z" fill="#5B677E"/>
<path d="M172.229 96.4803L149.371 107.909V92.9808L172.229 81.552V96.4803Z" fill="#17A2B8"/>
<path d="M149.372 107.909L126.47 96.4803V81.552L149.372 92.9808V107.909Z" fill="#148092"/>
<path d="M172.229 81.5519L149.372 92.9807L126.47 81.5519L149.372 70.1232L172.229 81.5519Z" fill="#34B3C7"/>
<path d="M149.372 93.0251L126.47 81.5963V81.552L126.514 81.5077L149.372 92.9365V93.0251Z" fill="#F0C673"/>
<path d="M149.371 93.0251L172.229 81.5963V81.552L172.185 81.5077L149.371 92.9365V93.0251Z" fill="#F0DAAF"/>
<path d="M138.829 93.6895L135.551 92.0505V86.1589L138.829 87.7979V93.6895Z" fill="#455A64"/>
<path d="M135.551 86.1589L138.829 87.7979L161.952 76.4134L158.63 74.7301L135.551 86.1589Z" fill="#455A64"/>
<path d="M134.222 91.2531L128.463 89.5698L127.799 85.9817L133.557 87.6207L134.222 91.2531Z" fill="white"/>
<path d="M129.305 89.2154L129.128 89.1711L128.685 86.8234L128.862 86.8677L129.305 89.2154Z" fill="#5B677E"/>
<path d="M129.438 89.2598L129.393 89.2155L128.95 86.912H128.995L129.438 89.2598Z" fill="#5B677E"/>
<path d="M129.615 89.3041L129.526 89.2598L129.083 86.9563H129.172L129.615 89.3041Z" fill="#5B677E"/>
<path d="M129.792 89.3484L129.703 89.3041L129.26 87.0006H129.349L129.792 89.3484Z" fill="#5B677E"/>
<path d="M129.925 89.3927L129.881 89.3484L129.438 87.0449H129.482L129.925 89.3927Z" fill="#5B677E"/>
<path d="M130.146 89.437L130.014 89.3927L129.571 87.0892L129.703 87.1335L130.146 89.437Z" fill="#5B677E"/>
<path d="M130.811 89.6584L130.722 89.6141L130.279 87.2664L130.368 87.3106L130.811 89.6584Z" fill="#5B677E"/>
<path d="M130.944 89.7028L130.9 89.6585L130.457 87.3107L130.501 87.355L130.944 89.7028Z" fill="#5B677E"/>
<path d="M131.165 89.7471L131.032 89.7028L130.589 87.3993H130.722L131.165 89.7471Z" fill="#5B677E"/>
<path d="M130.412 89.5255L130.235 89.4812L129.836 87.1334L129.969 87.1777L130.412 89.5255Z" fill="#5B677E"/>
<path d="M130.634 89.5698H130.501L130.058 87.222L130.191 87.2663L130.634 89.5698Z" fill="#5B677E"/>
<path d="M131.431 89.8357L131.298 89.7914L130.855 87.4436L130.988 87.4879L131.431 89.8357Z" fill="#5B677E"/>
<path d="M131.564 89.88L131.519 89.8357L131.076 87.5322H131.121L131.564 89.88Z" fill="#5B677E"/>
<path d="M131.741 89.9243L131.652 89.88L131.209 87.5765H131.298L131.741 89.9243Z" fill="#5B677E"/>
<path d="M131.918 89.9685L131.83 89.9242L131.387 87.6207H131.475L131.918 89.9685Z" fill="#5B677E"/>
<path d="M132.051 90.0129L132.007 89.9686L131.564 87.6652H131.608L132.051 90.0129Z" fill="#5B677E"/>
<path d="M132.317 90.0571L132.14 90.0128L131.697 87.7094L131.874 87.7536L132.317 90.0571Z" fill="#5B677E"/>
<path d="M132.937 90.2787L132.848 90.2344L132.406 87.8866L132.494 87.9309L132.937 90.2787Z" fill="#5B677E"/>
<path d="M133.07 90.3229L133.026 90.2786L132.583 87.9308L132.627 87.9751L133.07 90.3229Z" fill="#5B677E"/>
<path d="M133.336 90.3672L133.159 90.3229L132.76 88.0194H132.893L133.336 90.3672Z" fill="#5B677E"/>
<path d="M132.539 90.1456L132.406 90.1013L131.963 87.7535L132.096 87.7978L132.539 90.1456Z" fill="#5B677E"/>
<path d="M132.76 90.1899H132.627L132.184 87.8422L132.317 87.8865L132.76 90.1899Z" fill="#5B677E"/>
<path d="M147.733 97.4548L140.512 93.8224V90.3672L147.733 93.9996V97.4548Z" fill="#455A64"/>
<path fill-rule="evenodd" clip-rule="evenodd" d="M130.058 94.2211V96.7903C130.058 96.8789 129.969 96.9232 129.881 96.8789L127.311 95.5943C127.223 95.55 127.134 95.4171 127.134 95.3285V92.7593C127.134 92.6264 127.223 92.6264 127.311 92.6707L129.881 93.9553C129.969 93.9996 130.058 94.0882 130.058 94.2211ZM129.925 94.2654C129.925 94.1768 129.836 94.0439 129.748 93.9996L127.444 92.8478C127.356 92.8035 127.267 92.8478 127.267 92.9364V95.2399C127.267 95.3285 127.356 95.4614 127.444 95.5057L129.748 96.6574C129.836 96.7017 129.925 96.6574 129.925 96.5689V94.2654Z" fill="#5B677E"/>
<path d="M128.109 95.4615L127.976 95.3729V93.601L128.109 93.6896V95.4615Z" fill="#5B677E"/>
<path d="M128.065 93.4237L127.843 93.7338L128.065 93.8667L128.286 93.9553L128.065 93.4237Z" fill="#5B677E"/>
<path d="M129.216 95.9931L129.083 95.9045V94.1326L129.216 94.2212V95.9931Z" fill="#5B677E"/>
<path d="M129.127 93.9553L128.906 94.2654L129.127 94.3983L129.349 94.4869L129.127 93.9553Z" fill="#5B677E"/>
<path d="M127.577 95.4172V95.24L129.615 96.2588V96.436L127.577 95.4172Z" fill="#5B677E"/>
<path fill-rule="evenodd" clip-rule="evenodd" d="M133.513 95.9487V98.5179C133.513 98.6065 133.424 98.6508 133.336 98.6065L130.767 97.3219C130.678 97.2776 130.589 97.1447 130.589 97.0561V94.4868C130.589 94.3982 130.678 94.3539 130.767 94.3982L133.336 95.6829C133.424 95.7272 133.513 95.8601 133.513 95.9487ZM133.38 95.993C133.38 95.9044 133.292 95.7715 133.203 95.7272L130.899 94.5754C130.811 94.5311 130.722 94.5754 130.722 94.664V96.9675C130.722 97.0561 130.811 97.189 130.899 97.2333L133.203 98.385C133.292 98.4293 133.38 98.385 133.38 98.2964V95.993Z" fill="#5B677E"/>
<path d="M132.671 96.9675C132.45 96.8346 132.272 96.5689 132.272 96.3474V95.4614L133.07 95.8601V96.7461C133.07 96.9675 132.893 97.0561 132.671 96.9675Z" fill="#5B677E"/>
<path d="M132.716 97.8978L132.627 97.8535V96.8789L132.716 96.9232V97.8978Z" fill="#5B677E"/>
<path d="M132.272 97.7206C132.272 97.6763 132.317 97.6763 132.361 97.6763L132.981 97.9863C133.026 98.0306 133.07 98.0749 133.07 98.1192L132.272 97.7206Z" fill="#5B677E"/>
<path fill-rule="evenodd" clip-rule="evenodd" d="M131.829 95.2399V96.1701C131.829 96.3916 131.652 96.4802 131.475 96.3473C131.254 96.2587 131.076 95.9929 131.076 95.7714V94.8412L131.829 95.2399ZM131.741 95.2842L131.121 94.9741V95.8157C131.121 95.9929 131.254 96.1701 131.431 96.2587C131.608 96.3473 131.741 96.303 131.741 96.1258V95.2842Z" fill="#5B677E"/>
<path d="M131.519 97.2775L131.386 97.2332V96.303L131.519 96.3473V97.2775Z" fill="#5B677E"/>
<path d="M131.076 97.1447C131.076 97.1004 131.121 97.0561 131.165 97.1004L131.741 97.3662C131.785 97.4105 131.829 97.4548 131.829 97.5434L131.076 97.1447Z" fill="#5B677E"/>
<path fill-rule="evenodd" clip-rule="evenodd" d="M136.968 97.6762V100.245C136.968 100.334 136.924 100.378 136.791 100.334L134.222 99.0494C134.133 99.0051 134.045 98.8722 134.045 98.7836V96.2144C134.045 96.1258 134.133 96.0815 134.222 96.1258L136.791 97.4104C136.924 97.4547 136.968 97.5876 136.968 97.6762ZM136.835 97.7205C136.835 97.6319 136.791 97.5433 136.658 97.4547L134.399 96.303C134.266 96.2587 134.222 96.303 134.222 96.4359V98.695C134.222 98.8279 134.266 98.9165 134.399 98.9608L136.658 100.113C136.791 100.157 136.835 100.113 136.835 100.024V97.7205Z" fill="#5B677E"/>
<path d="M135.019 97.8978C135.078 97.8682 135.167 97.883 135.285 97.942C135.403 98.0011 135.491 98.0897 135.551 98.2078C135.639 98.1783 135.742 98.1783 135.861 98.2078C135.949 98.2669 136.038 98.3555 136.126 98.4736C136.185 98.4441 136.274 98.4589 136.392 98.5179C136.422 98.5179 136.451 98.5327 136.481 98.5622C136.436 98.0749 136.038 97.4991 135.551 97.2776C135.108 97.0561 134.709 97.189 134.665 97.632C134.694 97.632 134.709 97.6467 134.709 97.6763C134.827 97.7353 134.93 97.8092 135.019 97.8978Z" fill="#5B677E"/>
<path d="M135.374 99.3153C135.241 99.271 135.152 99.0938 135.152 98.9609V98.9166C135.152 98.8871 135.167 98.8871 135.196 98.9166L135.241 98.9609V99.0052C135.241 99.0938 135.285 99.1824 135.374 99.2267C135.462 99.271 135.506 99.2267 135.506 99.1381V97.1447C135.506 97.1152 135.521 97.1152 135.551 97.1447C135.595 97.1447 135.639 97.189 135.639 97.2333V99.2267C135.639 99.3596 135.506 99.4039 135.374 99.3153Z" fill="#5B677E"/>
<path d="M150.567 72.6482L144.454 75.6604L144.277 75.5718L150.346 72.5596L150.567 72.6482Z" fill="#5B677E"/>
<path d="M151.143 72.9582L145.075 75.9704L144.897 75.8818L150.966 72.8253L151.143 72.9582Z" fill="#5B677E"/>
<path d="M151.763 73.2241L145.65 76.2806L145.473 76.192L151.542 73.1355L151.763 73.2241Z" fill="#5B677E"/>
<path d="M152.339 73.534L146.271 76.5906L146.049 76.502L152.162 73.4454L152.339 73.534Z" fill="#5B677E"/>
<path d="M151.587 86.3362L145.518 89.3927L145.341 89.3041L151.409 86.2476L151.587 86.3362Z" fill="#5B677E"/>
<path d="M152.207 86.6462L146.093 89.7027L145.916 89.6141L151.985 86.5576L152.207 86.6462Z" fill="#5B677E"/>
<path d="M152.783 86.9563L146.714 89.9685L146.537 89.8799L152.605 86.8677L152.783 86.9563Z" fill="#5B677E"/>
<path d="M153.403 87.222L147.29 90.2786L147.112 90.19L153.181 87.1334L153.403 87.222Z" fill="#5B677E"/>
<path d="M144.011 106.093L86.1145 134.975V127.932L144.011 99.0496V106.093Z" fill="#17A2B8"/>
<path d="M86.1144 134.975L42.7028 113.313V106.27L86.1144 127.932V134.975Z" fill="#D8B268"/>
<path d="M144.011 99.0495L86.1144 127.932L42.7028 106.27L100.555 77.3879L144.011 99.0495Z" fill="#34B3C7"/>
<path d="M86.1144 128.02L42.7028 106.359V106.27L42.7914 106.226L86.1144 127.843V128.02Z" fill="#F0C673"/>
<path d="M86.1145 128.02L144.011 99.1381V99.0495L143.923 99.0052L86.1145 127.843V128.02Z" fill="#F0DAAF"/>
<path d="M69.1928 123.679L63.8771 121.021V116.901L69.1928 119.559V123.679Z" fill="#FBF2D2"/>
<path d="M63.8771 116.901L69.1928 119.559L127.4 90.7658L122.084 88.1079L63.8771 116.901Z" fill="#FFF6D6"/>
<path d="M65.2503 104.188L56.6123 108.529L50.6764 105.65L59.3144 101.264L65.2503 104.188Z" fill="white"/>
<path d="M56.9666 107.333L56.7451 107.422L52.9355 105.561L53.1127 105.428L56.9666 107.333Z" fill="#5B677E"/>
<path d="M57.2325 107.2L57.0996 107.245L53.29 105.384L53.3786 105.295L57.2325 107.2Z" fill="#5B677E"/>
<path d="M57.454 107.067L57.3654 107.112L53.5115 105.251L53.6001 105.207L57.454 107.067Z" fill="#5B677E"/>
<path d="M57.7198 106.934L57.5869 107.023L53.733 105.118L53.8659 105.074L57.7198 106.934Z" fill="#5B677E"/>
<path d="M57.9413 106.846L57.8527 106.89L53.9988 104.985L54.0874 104.941L57.9413 106.846Z" fill="#5B677E"/>
<path d="M58.2956 106.669L58.0741 106.757L54.2202 104.897L54.4417 104.764L58.2956 106.669Z" fill="#5B677E"/>
<path d="M59.2259 106.181L59.1373 106.226L55.2834 104.365L55.372 104.277L59.2259 106.181Z" fill="#5B677E"/>
<path d="M59.4917 106.048L59.3588 106.093L55.5049 104.232L55.6378 104.188L59.4917 106.048Z" fill="#5B677E"/>
<path d="M59.846 105.871L59.6245 106.004L55.7706 104.099L55.9921 104.011L59.846 105.871Z" fill="#5B677E"/>
<path d="M58.6501 106.492L58.4286 106.58L54.5747 104.72L54.7962 104.587L58.6501 106.492Z" fill="#5B677E"/>
<path d="M59.0045 106.314L58.783 106.403L54.9291 104.542L55.1506 104.41L59.0045 106.314Z" fill="#5B677E"/>
<path d="M60.1561 105.694L59.9789 105.827L56.125 103.922L56.3465 103.834L60.1561 105.694Z" fill="#5B677E"/>
<path d="M60.4218 105.605L60.289 105.65L56.4794 103.745L56.568 103.701L60.4218 105.605Z" fill="#5B677E"/>
<path d="M60.6434 105.473L60.5548 105.517L56.7009 103.612L56.8338 103.568L60.6434 105.473Z" fill="#5B677E"/>
<path d="M60.9093 105.34L60.7764 105.384L56.9668 103.524L57.0554 103.435L60.9093 105.34Z" fill="#5B677E"/>
<path d="M61.1307 105.207L61.0421 105.251L57.1882 103.391L57.2768 103.346L61.1307 105.207Z" fill="#5B677E"/>
<path d="M61.4851 105.03L61.2636 105.163L57.454 103.258L57.6312 103.169L61.4851 105.03Z" fill="#5B677E"/>
<path d="M62.4152 104.587L62.3267 104.631L58.4728 102.726L58.6057 102.682L62.4152 104.587Z" fill="#5B677E"/>
<path d="M62.6813 104.454L62.5484 104.498L58.7388 102.638L58.8274 102.549L62.6813 104.454Z" fill="#5B677E"/>
<path d="M63.0355 104.277L62.814 104.365L58.9601 102.505L59.1816 102.372L63.0355 104.277Z" fill="#5B677E"/>
<path d="M61.8394 104.852L61.6179 104.985L57.764 103.081L57.9855 102.992L61.8394 104.852Z" fill="#5B677E"/>
<path d="M62.1939 104.675L61.9724 104.808L58.1185 102.903L58.34 102.815L62.1939 104.675Z" fill="#5B677E"/>
<path d="M76.9006 107.953L65.206 113.801L59.6688 111.01L71.3191 105.163L76.9006 107.953Z" fill="white"/>
<path fill-rule="evenodd" clip-rule="evenodd" d="M125.982 102.15L129.305 103.789C129.437 103.878 129.437 103.967 129.305 104.011L125.982 105.694C125.849 105.738 125.628 105.738 125.495 105.694L122.173 104.011C122.084 103.967 122.084 103.878 122.173 103.789L125.495 102.15C125.628 102.062 125.849 102.062 125.982 102.15ZM125.982 102.328C125.849 102.239 125.628 102.239 125.495 102.328L122.527 103.789C122.394 103.834 122.394 103.967 122.527 104.011L125.495 105.517C125.628 105.561 125.849 105.561 125.982 105.517L128.95 104.011C129.083 103.967 129.083 103.834 128.95 103.789L125.982 102.328Z" fill="#5B677E"/>
<path d="M126.337 104.808L126.115 104.897L123.812 103.745L124.033 103.656L126.337 104.808Z" fill="#5B677E"/>
<path d="M123.635 103.568L123.901 104.011L124.211 103.834L124.476 103.701L123.635 103.568Z" fill="#5B677E"/>
<path d="M127.754 104.099L127.533 104.188L125.229 103.036L125.451 102.948L127.754 104.099Z" fill="#5B677E"/>
<path d="M125.052 102.859L125.318 103.302L125.628 103.125L125.894 102.992L125.052 102.859Z" fill="#5B677E"/>
<path d="M125.938 105.295L125.717 105.207L128.33 103.922L128.552 104.011L125.938 105.295Z" fill="#5B677E"/>
<path fill-rule="evenodd" clip-rule="evenodd" d="M130.457 99.8911L133.779 101.574C133.912 101.619 133.912 101.707 133.779 101.796L130.457 103.435C130.324 103.524 130.102 103.524 130.014 103.435L126.647 101.796C126.558 101.707 126.558 101.619 126.647 101.574L130.014 99.8911C130.102 99.8468 130.324 99.8468 130.457 99.8911ZM130.457 100.068C130.324 100.024 130.102 100.024 129.969 100.068L127.001 101.574C126.913 101.619 126.913 101.707 127.001 101.796L129.969 103.258C130.102 103.346 130.324 103.346 130.457 103.258L133.425 101.796C133.557 101.707 133.557 101.619 133.425 101.574L130.457 100.068Z" fill="#5B677E"/>
<path d="M131.21 101.397C130.944 101.53 130.457 101.53 130.191 101.397L129.039 100.777L130.058 100.29L131.21 100.866C131.475 100.999 131.475 101.22 131.21 101.397Z" fill="#5B677E"/>
<path d="M132.45 101.929L132.317 102.017L131.121 101.397L131.209 101.309L132.45 101.929Z" fill="#5B677E"/>
<path d="M131.963 102.283C131.918 102.239 131.918 102.195 131.963 102.15L132.76 101.752C132.804 101.707 132.937 101.707 132.982 101.752L131.963 102.283Z" fill="#5B677E"/>
<path fill-rule="evenodd" clip-rule="evenodd" d="M128.463 101.087L129.659 101.663C129.925 101.796 129.925 102.017 129.659 102.15C129.349 102.327 128.906 102.327 128.64 102.15L127.444 101.574L128.463 101.087ZM128.463 101.176L127.666 101.619L128.729 102.15C128.95 102.239 129.305 102.239 129.526 102.15C129.748 102.017 129.748 101.84 129.526 101.752L128.463 101.176Z" fill="#5B677E"/>
<path d="M130.9 102.726L130.767 102.77L129.526 102.15L129.659 102.106L130.9 102.726Z" fill="#5B677E"/>
<path d="M130.412 103.036C130.324 103.036 130.324 102.948 130.412 102.948L131.165 102.549C131.254 102.505 131.342 102.505 131.431 102.549L130.412 103.036Z" fill="#5B677E"/>
<path fill-rule="evenodd" clip-rule="evenodd" d="M134.93 97.632L138.253 99.3153C138.386 99.3596 138.386 99.4925 138.253 99.5368L134.93 101.22C134.798 101.264 134.576 101.264 134.487 101.22L131.121 99.5368C131.032 99.4925 131.032 99.3596 131.121 99.3153L134.487 97.632C134.576 97.5877 134.798 97.5877 134.93 97.632ZM134.93 97.8092C134.798 97.7649 134.576 97.7649 134.487 97.8092L131.52 99.3153C131.387 99.3596 131.387 99.4925 131.52 99.5368L134.487 101.043C134.576 101.087 134.798 101.087 134.93 101.043L137.898 99.5368C138.031 99.4925 138.031 99.3596 137.898 99.3153L134.93 97.8092Z" fill="#5B677E"/>
<path d="M133.956 99.714C133.956 99.6254 134.03 99.5515 134.177 99.4925C134.31 99.4039 134.487 99.3596 134.665 99.3596C134.694 99.271 134.768 99.1972 134.886 99.1381C135.019 99.0495 135.196 99.0052 135.373 99.0052C135.403 98.9166 135.477 98.828 135.595 98.7394C135.624 98.7394 135.669 98.7394 135.728 98.7394C135.063 98.4293 134.089 98.4736 133.513 98.7837C132.893 99.0938 132.848 99.5368 133.38 99.8912C133.41 99.8616 133.439 99.8469 133.469 99.8469C133.601 99.7583 133.779 99.7583 133.956 99.714Z" fill="#5B677E"/>
<path d="M136.038 100.29C135.861 100.378 135.595 100.378 135.418 100.29L135.329 100.246C135.3 100.216 135.3 100.201 135.329 100.201C135.373 100.157 135.462 100.157 135.462 100.201H135.551C135.639 100.29 135.816 100.29 135.905 100.201C135.994 100.157 135.994 100.068 135.905 100.024L133.336 98.7394C133.277 98.7099 133.277 98.6951 133.336 98.6951C133.336 98.6508 133.424 98.6508 133.469 98.6951L136.038 99.9797C136.215 100.068 136.215 100.201 136.038 100.29Z" fill="#5B677E"/>
<path d="M102.239 79.78L92.4492 84.697L92.1392 84.5641L101.929 79.6471L102.239 79.78Z" fill="#5B677E"/>
<path d="M103.213 80.2673L93.4236 85.1843L93.1135 85.0071L102.903 80.1344L103.213 80.2673Z" fill="#5B677E"/>
<path d="M104.188 80.7546L94.3538 85.6716L94.0437 85.4944L103.878 80.6217L104.188 80.7546Z" fill="#5B677E"/>
<path d="M105.162 81.2419L95.3284 86.1589L95.0183 85.9817L104.852 81.0647L105.162 81.2419Z" fill="#5B677E"/>
<path d="M92.0946 119.161L82.2605 124.033L81.9504 123.9L91.7845 118.983L92.0946 119.161Z" fill="#5B677E"/>
<path d="M93.0247 119.604L83.2349 124.521L82.9248 124.388L92.7589 119.471L93.0247 119.604Z" fill="#5B677E"/>
<path d="M93.9995 120.091L84.2097 125.008L83.8997 124.875L93.6894 119.958L93.9995 120.091Z" fill="#5B677E"/>
<path d="M94.9741 120.578L85.1401 125.495L84.8743 125.318L94.6641 120.445L94.9741 120.578Z" fill="#5B677E"/>
<path opacity="0.1" d="M12.2262 114.731L19.8897 114.244L39.0706 123.679V120.002L12.2262 106.757V114.731Z" fill="black"/>
<path opacity="0.1" d="M51.4296 134L59.1374 133.513L78.3182 142.948V139.272L51.4296 126.027V134Z" fill="black"/>
<path d="M131.165 95.8158L75.5273 123.147V90.5444L131.165 63.2571V95.8158Z" fill="#17A2B8"/>
<path d="M75.5275 123.147L42.9688 106.846V74.2871L75.5275 90.5886V123.147Z" fill="#148092"/>
<path d="M131.165 63.2571L75.5275 90.5887L42.9688 74.2429L98.6065 46.9556L131.165 63.2571Z" fill="#34B3C7"/>
<path d="M75.5275 90.6329L42.9688 74.3314V74.2871L43.0131 74.2428L75.5275 90.5V90.6329Z" fill="#F0C673"/>
<path d="M75.5273 90.6329L131.165 63.3455V63.2569L131.121 63.2126L75.5273 90.5V90.6329Z" fill="#F0DAAF"/>
<path d="M60.5548 100.024L55.8593 97.6762V80.8431L60.5548 83.1909V100.024Z" fill="#455A64"/>
<path d="M55.8593 80.8432L60.5548 83.191L116.547 55.9037L111.807 53.5559L55.8593 80.8432Z" fill="#455A64"/>
<path d="M53.9988 88.0637L45.8038 85.6716L44.8292 80.5774L53.0243 82.9695L53.9988 88.0637Z" fill="white"/>
<path d="M46.9555 85.1842L46.7341 85.0956L46.1139 81.7733L46.3354 81.8619L46.9555 85.1842Z" fill="#5B677E"/>
<path d="M47.1769 85.2287H47.0883L46.4681 81.9064H46.5567L47.1769 85.2287Z" fill="#5B677E"/>
<path d="M47.3985 85.3172L47.3099 85.2729L46.6897 81.9506L46.7783 81.9949L47.3985 85.3172Z" fill="#5B677E"/>
<path d="M47.6642 85.3615H47.5313L46.9111 82.0392H46.9997L47.6642 85.3615Z" fill="#5B677E"/>
<path d="M47.8856 85.4501L47.797 85.4058L47.1326 82.0835L47.2655 82.1278L47.8856 85.4501Z" fill="#5B677E"/>
<path d="M48.1958 85.5387L48.0186 85.4944L47.3984 82.1721L47.5756 82.2164L48.1958 85.5387Z" fill="#5B677E"/>
<path d="M49.0817 85.8045L48.9931 85.7602L48.3729 82.4379L48.4615 82.4822L49.0817 85.8045Z" fill="#5B677E"/>
<path d="M49.3474 85.8488H49.2145L48.5944 82.5265H48.6829L49.3474 85.8488Z" fill="#5B677E"/>
<path d="M49.6576 85.9817L49.4804 85.8931L48.8159 82.5708L49.0374 82.6594L49.6576 85.9817Z" fill="#5B677E"/>
<path d="M48.5501 85.6274L48.3287 85.5831L47.7085 82.2607L47.93 82.305L48.5501 85.6274Z" fill="#5B677E"/>
<path d="M48.8602 85.7159L48.683 85.6716L48.0186 82.3492L48.24 82.3935L48.8602 85.7159Z" fill="#5B677E"/>
<path d="M50.0119 86.0703L49.7905 85.9817L49.1703 82.6594L49.3475 82.748L50.0119 86.0703Z" fill="#5B677E"/>
<path d="M50.2334 86.1147H50.1448L49.4803 82.7924H49.6132L50.2334 86.1147Z" fill="#5B677E"/>
<path d="M50.4551 86.2033L50.3665 86.159L49.7463 82.8367L49.8349 82.881L50.4551 86.2033Z" fill="#5B677E"/>
<path d="M50.6764 86.2474H50.5878L49.9677 82.925H50.0563L50.6764 86.2474Z" fill="#5B677E"/>
<path d="M50.898 86.336L50.8094 86.2917L50.1892 82.9694L50.2778 83.0137L50.898 86.336Z" fill="#5B677E"/>
<path d="M51.2523 86.4246L51.0308 86.3803L50.4106 83.058L50.6321 83.1023L51.2523 86.4246Z" fill="#5B677E"/>
<path d="M52.1383 86.6905L52.0497 86.6462L51.4296 83.3239L51.5182 83.3681L52.1383 86.6905Z" fill="#5B677E"/>
<path d="M52.3598 86.7348H52.2712L51.651 83.4125H51.7396L52.3598 86.7348Z" fill="#5B677E"/>
<path d="M52.7142 86.8677L52.4927 86.7791L51.8726 83.4568L52.094 83.5454L52.7142 86.8677Z" fill="#5B677E"/>
<path d="M51.5625 86.5132L51.3853 86.4689L50.7651 83.1466L50.9423 83.1909L51.5625 86.5132Z" fill="#5B677E"/>
<path d="M51.9167 86.6019L51.6953 86.5575L51.0751 83.2352L51.2966 83.2795L51.9167 86.6019Z" fill="#5B677E"/>
<path d="M73.2239 96.9232L62.9026 91.7404V86.8677L73.2239 92.0062V96.9232Z" fill="white"/>
<path fill-rule="evenodd" clip-rule="evenodd" d="M48.0629 104.144V107.82C48.0629 107.953 47.93 107.998 47.7971 107.909L44.1647 106.093C43.9875 106.049 43.8989 105.871 43.8989 105.738V102.062C43.8989 101.929 43.9875 101.885 44.1647 101.929L47.7971 103.789C47.93 103.834 48.0629 104.011 48.0629 104.144ZM47.8857 104.232C47.8857 104.099 47.7528 103.922 47.6199 103.878L44.3419 102.239C44.209 102.15 44.0761 102.195 44.0761 102.372V105.606C44.0761 105.783 44.209 105.916 44.3419 106.004L47.6199 107.643C47.7528 107.688 47.8857 107.643 47.8857 107.51V104.232Z" fill="#5B677E"/>
<path d="M45.3163 105.916L45.0948 105.783V103.258L45.3163 103.391V105.916Z" fill="#5B677E"/>
<path d="M45.1836 102.992L44.8735 103.479L45.1836 103.612L45.4937 103.789L45.1836 102.992Z" fill="#5B677E"/>
<path d="M46.8669 106.669L46.6454 106.58V104.055L46.8669 104.188V106.669Z" fill="#5B677E"/>
<path d="M46.7782 103.789L46.4238 104.277L46.7782 104.41L47.0883 104.587L46.7782 103.789Z" fill="#5B677E"/>
<path d="M44.5634 105.871V105.65L47.3984 107.067V107.289L44.5634 105.871Z" fill="#5B677E"/>
<path fill-rule="evenodd" clip-rule="evenodd" d="M52.9799 106.624V110.257C52.9799 110.39 52.8913 110.478 52.7584 110.39L49.0817 108.574C48.9488 108.485 48.8159 108.352 48.8159 108.175V104.542C48.8159 104.41 48.9488 104.321 49.0817 104.41L52.7584 106.226C52.8913 106.314 52.9799 106.492 52.9799 106.624ZM52.8027 106.713C52.8027 106.58 52.6698 106.403 52.5369 106.314L49.2589 104.675C49.126 104.631 49.0374 104.675 49.0374 104.808V108.086C49.0374 108.219 49.126 108.396 49.2589 108.485L52.5369 110.124C52.6698 110.168 52.8027 110.124 52.8027 109.991V106.713Z" fill="#5B677E"/>
<path d="M51.7837 108.086C51.4737 107.909 51.2079 107.555 51.2079 107.244V105.916L52.3153 106.491V107.776C52.3153 108.086 52.0938 108.219 51.7837 108.086Z" fill="#5B677E"/>
<path d="M51.8281 109.415L51.6952 109.326V107.998L51.8281 108.042V109.415Z" fill="#5B677E"/>
<path d="M51.2079 109.194C51.2079 109.105 51.2522 109.061 51.3408 109.105L52.1824 109.548C52.271 109.592 52.3153 109.681 52.3153 109.725L51.2079 109.194Z" fill="#5B677E"/>
<path fill-rule="evenodd" clip-rule="evenodd" d="M50.5878 105.606V106.934C50.5878 107.245 50.3663 107.377 50.0562 107.2C49.7461 107.067 49.4803 106.669 49.4803 106.359V105.074L50.5878 105.606ZM50.4549 105.65L49.5689 105.207V106.403C49.5689 106.624 49.7904 106.934 50.0119 107.067C50.2777 107.2 50.4549 107.067 50.4549 106.846V105.65Z" fill="#5B677E"/>
<path d="M50.1004 108.529L49.9675 108.485V107.112L50.1004 107.2V108.529Z" fill="#5B677E"/>
<path d="M49.4803 108.308C49.4803 108.219 49.5246 108.219 49.6132 108.263L50.4549 108.662C50.5435 108.706 50.5878 108.795 50.5878 108.884L49.4803 108.308Z" fill="#5B677E"/>
<path fill-rule="evenodd" clip-rule="evenodd" d="M57.9412 109.061V112.737C57.9412 112.87 57.8083 112.915 57.6754 112.87L53.9987 111.01C53.8658 110.966 53.7772 110.788 53.7772 110.656V106.979C53.7772 106.846 53.8658 106.802 53.9987 106.89L57.6754 108.706C57.8083 108.751 57.9412 108.928 57.9412 109.061ZM57.7197 109.194C57.7197 109.016 57.6311 108.884 57.4539 108.795L54.2202 107.156C54.0873 107.112 53.9544 107.156 53.9544 107.289V110.567C53.9544 110.7 54.0873 110.877 54.2202 110.921L57.4539 112.56C57.6311 112.649 57.7197 112.605 57.7197 112.427V109.194Z" fill="#5B677E"/>
<path d="M55.1061 109.415C55.1946 109.386 55.3275 109.4 55.5047 109.459C55.6376 109.548 55.7705 109.681 55.9034 109.814C55.992 109.784 56.1249 109.799 56.3021 109.858C56.435 109.947 56.5679 110.08 56.7008 110.212C56.7894 110.183 56.9223 110.198 57.0994 110.257C57.129 110.286 57.1585 110.301 57.188 110.301C57.1437 109.637 56.5679 108.839 55.9034 108.529C55.239 108.175 54.7074 108.396 54.6188 109.016C54.6483 109.046 54.6778 109.061 54.7074 109.061C54.8403 109.149 54.9732 109.282 55.1061 109.415Z" fill="#5B677E"/>
<path d="M55.6377 111.453C55.4605 111.364 55.2833 111.098 55.2833 110.921V110.877C55.2833 110.818 55.3129 110.803 55.3719 110.833C55.4162 110.833 55.4162 110.877 55.4162 110.921V111.01C55.4162 111.098 55.5048 111.231 55.6377 111.32C55.7263 111.364 55.8149 111.32 55.8149 111.187V108.352C55.8444 108.322 55.874 108.308 55.9035 108.308C55.9478 108.352 55.9921 108.396 55.9921 108.441V111.276C55.9921 111.453 55.8149 111.541 55.6377 111.453Z" fill="#5B677E"/>
<path d="M100.6 51.4296L91.9174 55.7708L91.6516 55.6379L100.334 51.2968L100.6 51.4296Z" fill="#5B677E"/>
<path d="M101.441 51.8725L92.8033 56.1694L92.4932 56.0365L101.176 51.7396L101.441 51.8725Z" fill="#5B677E"/>
<path d="M102.283 52.2712L93.645 56.6124L93.3792 56.4795L102.017 52.1383L102.283 52.2712Z" fill="#5B677E"/>
<path d="M103.169 52.7143L94.4867 57.0555L94.2209 56.9226L102.903 52.5814L103.169 52.7143Z" fill="#5B677E"/>
<path d="M78.7168 81.109L70.0788 85.4501L69.813 85.3172L78.451 80.9761L78.7168 81.109Z" fill="#5B677E"/>
<path d="M79.6028 81.552L70.9205 85.8488L70.6547 85.7159L79.2927 81.4191L79.6028 81.552Z" fill="#5B677E"/>
<path d="M80.4446 81.9506L71.7622 86.2918L71.4965 86.1589L80.1788 81.8177L80.4446 81.9506Z" fill="#5B677E"/>
<path d="M81.286 82.3936L72.6037 86.7348L72.3379 86.6019L81.0202 82.2607L81.286 82.3936Z" fill="#5B677E"/>
</svg>
