<svg width="161" height="197" viewBox="0 0 161 197" fill="none" xmlns="http://www.w3.org/2000/svg">
<circle opacity="0.4" cx="80.5" cy="116.5" r="80.5" fill="#D1ECF1"/>
<path d="M102.442 101.933L91.2323 95.4232C89.4478 94.3928 87.1607 94.6944 85.7282 96.2023L71.6537 110.779C68.8891 113.645 69.5426 118.344 72.9858 120.33L135.868 156.823C137.879 157.828 139.035 159.361 139.136 161.121C139.236 162.855 138.206 164.564 136.346 165.795L102.341 185.399C100.657 186.505 98.4203 187.133 96.1332 187.234C93.8712 187.385 91.5841 187.008 89.7997 186.128L28.777 150.967C25.5348 149.107 24.7306 144.835 27.0428 141.944L40.8156 124.577C42.2231 122.818 44.6861 122.366 46.6214 123.497L57.4285 129.73" stroke="#263238" stroke-width="2.01063" stroke-miterlimit="10" stroke-linecap="round"/>
<path d="M82.2854 183.037C78.6411 187.787 72.6846 189.144 71.3274 188.516C70.2467 188.013 69.6184 186.731 70.4478 185.952C70.8247 185.6 71.4782 185.248 72.0814 184.721C73.8658 183.238 74.469 180.649 74.645 178.638L82.2854 183.037Z" fill="#17A2B8"/>
<path opacity="0.2" d="M82.2854 183.037C78.6411 187.787 72.6846 189.144 71.3274 188.516C70.2467 188.013 69.6184 186.731 70.4478 185.952C70.8247 185.6 71.4782 185.248 72.0814 184.721C73.8658 183.238 74.469 180.649 74.645 178.638L82.2854 183.037Z" fill="black"/>
<path d="M78.4148 190.3C78.44 186.48 75.801 181.83 72.5086 179.895C70.7744 178.865 69.2162 178.815 68.1104 179.543L64.0388 181.83L72.5589 196.508L76.5801 194.221C77.7111 193.618 78.4148 192.261 78.4148 190.3Z" fill="#37474F"/>
<path d="M68.286 182.283C71.5784 184.218 74.2425 188.893 74.2174 192.713C74.1922 196.533 71.503 198.066 68.1855 196.131C64.8931 194.196 62.2541 189.521 62.2792 185.701C62.3044 181.881 64.9936 180.347 68.286 182.283Z" fill="#455A64"/>
<path d="M68.261 185.701C69.9198 186.681 71.277 189.044 71.2519 190.979C71.2519 192.889 69.8696 193.668 68.2108 192.688C66.552 191.733 65.22 189.37 65.22 187.435C65.2451 185.5 66.6023 184.746 68.261 185.701Z" fill="#263238"/>
<path d="M71.8046 177.005C71.8046 177.005 72.2067 184.067 68.9646 186.756C68.3614 187.259 67.7079 187.636 67.3309 187.988C66.5015 188.742 67.155 190.024 68.2357 190.526C69.794 191.255 77.8113 189.194 80.953 182.258L71.8046 177.005Z" fill="#17A2B8"/>
<path d="M68.3867 188.44C68.7134 188.616 69.015 189.069 69.0401 189.446C69.0653 189.823 68.7888 189.999 68.4621 189.823C68.1102 189.647 67.8337 189.194 67.8086 188.817C67.7835 188.44 68.0348 188.264 68.3867 188.44Z" fill="#FAFAFA"/>
<path d="M44.4855 161.271C40.8412 166.022 34.8847 167.379 33.5275 166.75C32.4719 166.248 31.8185 164.966 32.6479 164.212C33.0249 163.86 33.6783 163.483 34.2815 162.98C36.066 161.498 36.6691 158.884 36.8451 156.873L44.4855 161.271Z" fill="#17A2B8"/>
<path opacity="0.2" d="M44.4855 161.271C40.8412 166.022 34.8847 167.379 33.5275 166.75C32.4719 166.248 31.8185 164.966 32.6479 164.212C33.0249 163.86 33.6783 163.483 34.2815 162.98C36.066 161.498 36.6691 158.884 36.8451 156.873L44.4855 161.271Z" fill="black"/>
<path d="M40.6399 168.56C40.6651 164.74 38.001 160.065 34.7086 158.13C32.9744 157.125 31.4162 157.074 30.3103 157.803L26.2639 160.09L34.7588 174.743L38.7801 172.456C39.9111 171.852 40.6148 170.52 40.6399 168.56Z" fill="#37474F"/>
<path d="M30.4862 160.543C33.7786 162.453 36.4427 167.128 36.4176 170.948C36.3924 174.768 33.7032 176.301 30.4108 174.366C27.0932 172.431 24.4543 167.781 24.4794 163.961C24.5046 160.141 27.1938 158.607 30.4862 160.543Z" fill="#455A64"/>
<path d="M30.461 163.961C32.1198 164.941 33.477 167.279 33.4518 169.214C33.4518 171.149 32.0946 171.928 30.4107 170.948C28.752 169.968 27.4199 167.605 27.4199 165.695C27.4451 163.76 28.8022 162.981 30.461 163.961Z" fill="#263238"/>
<path d="M33.9796 155.214C33.9796 155.214 34.4069 162.302 31.1648 165.016C30.5616 165.519 29.9081 165.871 29.5311 166.223C28.7017 167.002 29.3552 168.284 30.4359 168.786C31.9941 169.515 40.0367 167.429 43.1532 160.492L33.9796 155.214Z" fill="#17A2B8"/>
<path d="M30.5866 166.7C30.9385 166.876 31.2149 167.303 31.2401 167.68C31.2652 168.057 31.0139 168.233 30.662 168.057C30.3353 167.907 30.0337 167.454 30.0086 167.077C29.9834 166.7 30.2348 166.524 30.5866 166.7Z" fill="#FAFAFA"/>
<path d="M131.043 155.29C127.374 160.015 121.417 161.372 120.085 160.769C119.004 160.266 118.376 158.984 119.18 158.205C119.557 157.853 120.211 157.502 120.839 156.974C122.624 155.491 123.227 152.852 123.403 150.841L131.043 155.29Z" fill="#17A2B8"/>
<path opacity="0.2" d="M131.043 155.29C127.374 160.015 121.417 161.372 120.085 160.769C119.004 160.266 118.376 158.984 119.18 158.205C119.557 157.853 120.211 157.502 120.839 156.974C122.624 155.491 123.227 152.852 123.403 150.841L131.043 155.29Z" fill="black"/>
<path d="M127.173 162.553C127.198 158.733 124.534 154.084 121.241 152.148C119.507 151.118 117.949 151.068 116.868 151.797L112.797 154.084L121.317 168.761L125.338 166.474H125.313C126.444 165.871 127.173 164.514 127.173 162.553Z" fill="#37474F"/>
<path d="M117.044 154.536C120.336 156.471 122.975 161.146 122.975 164.966C122.95 168.786 120.236 170.32 116.944 168.384C113.651 166.449 110.987 161.774 111.012 157.954C111.037 154.134 113.726 152.601 117.044 154.536Z" fill="#455A64"/>
<path d="M117.019 157.979C118.677 158.935 120.009 161.297 120.009 163.232C119.984 165.142 118.627 165.921 116.968 164.941C115.31 163.986 113.978 161.624 113.978 159.688C114.003 157.753 115.36 156.999 117.019 157.979Z" fill="#263238"/>
<path d="M120.563 149.182C120.563 149.182 120.965 156.32 117.723 159.009C117.119 159.512 116.441 159.889 116.064 160.241C115.26 160.995 115.888 162.277 116.969 162.779C118.552 163.508 126.595 161.447 129.711 154.511L120.563 149.182Z" fill="#17A2B8"/>
<path d="M117.145 160.693C117.471 160.869 117.773 161.322 117.798 161.699C117.798 162.076 117.547 162.252 117.22 162.076C116.868 161.9 116.567 161.447 116.567 161.07C116.542 160.693 116.793 160.517 117.145 160.693Z" fill="#FAFAFA"/>
<path d="M93.5449 133.525C89.9006 138.275 83.9441 139.607 82.5869 138.979C81.5062 138.476 80.8779 137.194 81.7073 136.44C82.0843 136.088 82.7377 135.711 83.3409 135.209C85.1253 133.726 85.7285 131.112 85.9045 129.101L93.5449 133.525Z" fill="#17A2B8"/>
<path opacity="0.2" d="M93.5449 133.525C89.9006 138.275 83.9441 139.607 82.5869 138.979C81.5062 138.476 80.8779 137.194 81.7073 136.44C82.0843 136.088 82.7377 135.711 83.3409 135.209C85.1253 133.726 85.7285 131.112 85.9045 129.101L93.5449 133.525Z" fill="black"/>
<path d="M89.699 140.788C89.7242 136.968 87.0601 132.293 83.7677 130.358C82.0335 129.353 80.4752 129.302 79.3694 130.031L75.323 132.318L83.8179 146.971L87.8392 144.684C88.9702 144.08 89.6739 142.748 89.699 140.788Z" fill="#37474F"/>
<path d="M79.5458 132.745C82.8382 134.681 85.5023 139.355 85.4771 143.176C85.452 146.996 82.7628 148.529 79.4704 146.594C76.1528 144.658 73.5139 140.009 73.539 136.189C73.5641 132.368 76.2534 130.835 79.5458 132.745Z" fill="#455A64"/>
<path d="M79.5203 136.189C81.1791 137.169 82.5363 139.506 82.5111 141.441C82.5111 143.377 81.154 144.156 79.4701 143.176C77.8113 142.195 76.4792 139.833 76.4792 137.923C76.5044 135.988 77.8616 135.208 79.5203 136.189Z" fill="#263238"/>
<path d="M83.0392 127.417C83.0392 127.417 83.4665 134.53 80.2243 137.219C79.6211 137.747 78.9677 138.099 78.5907 138.45C77.7613 139.23 78.4148 140.511 79.4955 141.014C81.0537 141.743 89.0963 139.682 92.2127 132.745L83.0392 127.417Z" fill="#17A2B8"/>
<path d="M79.6464 138.928C79.9732 139.079 80.2748 139.531 80.2999 139.908C80.325 140.285 80.0737 140.461 79.7218 140.285C79.3951 140.109 79.0935 139.682 79.0684 139.305C79.0432 138.903 79.2946 138.752 79.6464 138.928Z" fill="#FAFAFA"/>
<path d="M74.8712 83.3094L72.9359 84.4153L69.0655 14.3447C68.1104 10.5245 64.441 5.64874 61.0481 3.68838L59.2134 2.63279C58.2583 2.07987 56.6247 2.07987 55.6947 2.63279L50.0901 5.84981C49.5372 6.1514 48.8586 5.97547 48.557 5.44768C48.2554 4.91989 48.4313 4.21617 48.9591 3.91457L54.5889 0.69756C56.1974 -0.232357 58.7107 -0.232357 60.2941 0.69756L62.1539 1.75314C66.0746 4.0151 70.1462 9.41868 71.2269 13.8169L74.8712 83.3094Z" fill="#455A64"/>
<path d="M8.34424 33.2949L4.7251 27.0117L49.7633 0.999112C50.2408 0.622119 50.9445 0.647252 51.7236 1.09964C53.1562 1.9039 54.2872 3.8894 54.2872 5.52304C54.2872 6.42782 53.9353 7.03101 53.3824 7.25721L8.34424 33.2949Z" fill="#17A2B8"/>
<path opacity="0.3" d="M8.34424 33.2949L4.7251 27.0117L49.7633 0.999112C50.2408 0.622119 50.9445 0.647252 51.7236 1.09964C53.1562 1.9039 54.2872 3.8894 54.2872 5.52304C54.2872 6.42782 53.9353 7.03101 53.3824 7.25721L8.34424 33.2949Z" fill="black"/>
<path d="M4.72515 27.0118C5.68021 26.484 7.26358 27.439 8.24376 29.1481C9.24908 30.8822 9.29934 32.7421 8.34429 33.295C7.38924 33.8228 5.80587 32.8677 4.80055 31.1335C3.82037 29.4245 3.7701 27.5647 4.72515 27.0118Z" fill="#17A2B8"/>
<path d="M26.5404 111.207L24.7308 112.263L11.3852 48.048C10.4553 44.2278 6.76075 39.352 3.36781 37.3916L1.53311 36.3109C0.552926 35.7831 0 34.9286 0 34.0238C0 33.119 0.552926 32.2896 1.53311 31.7367L5.52924 29.4496C5.83084 29.2737 6.30836 29.5753 6.60996 30.1031C6.93668 30.6308 6.93668 31.2089 6.63509 31.3848L2.63896 33.6719C2.31223 33.8479 2.23683 33.9987 2.23683 34.0238C2.23683 34.0741 2.31223 34.2249 2.63896 34.4008L4.49879 35.4815C8.39439 37.7183 12.4659 43.1219 13.5466 47.495L26.5404 111.207Z" fill="#455A64"/>
<path d="M24.731 112.263L74.8711 83.3094L148.159 125.608L98.0185 154.561L24.731 112.263Z" fill="#E0E0E0"/>
<g opacity="0.2">
<path d="M24.731 112.263L74.8711 83.3094L148.159 125.608L98.0185 154.561L24.731 112.263Z" fill="black"/>
</g>
<path d="M74.8708 83.5606C74.7452 83.5606 74.6446 83.4601 74.6195 83.3093L70.749 13.7917C70.749 13.666 70.8496 13.5403 71.0004 13.5403C71.126 13.5152 71.2517 13.6409 71.2517 13.7665L75.1221 83.2842C75.1473 83.435 75.0468 83.5355 74.896 83.5606C74.896 83.5606 74.8876 83.5606 74.8708 83.5606Z" fill="#E0E0E0"/>
<path d="M84.0446 88.8389C83.8938 88.8389 83.7932 88.7383 83.7932 88.5875L82.9387 21.9602C82.9387 21.8345 83.0644 21.7089 83.19 21.7089C83.3408 21.7089 83.4414 21.8345 83.4414 21.9602L84.2959 88.5875C84.2959 88.7383 84.1954 88.8389 84.0446 88.8389Z" fill="#E0E0E0"/>
<path d="M93.1927 94.1416C93.0671 94.1416 92.9414 94.016 92.9414 93.8652L94.6253 29.9773C94.6253 29.8265 94.7258 29.726 94.8766 29.726C95.0023 29.726 95.128 29.8516 95.128 29.9773L93.4441 93.8903C93.4441 94.016 93.3435 94.1416 93.1927 94.1416Z" fill="#E0E0E0"/>
<path d="M102.366 99.4197C102.366 99.4197 102.358 99.4197 102.341 99.4197C102.216 99.4197 102.115 99.294 102.115 99.1683L105.156 37.2408C105.156 37.09 105.282 36.9895 105.407 36.9895C105.558 36.9895 105.659 37.1152 105.659 37.266L102.618 99.1935C102.618 99.3191 102.492 99.4197 102.366 99.4197Z" fill="#E0E0E0"/>
<path d="M111.515 104.723C111.364 104.698 111.263 104.572 111.263 104.446L115.762 44.5294C115.762 44.3786 115.888 44.2781 116.014 44.2781C116.164 44.3032 116.265 44.4289 116.265 44.5545L111.766 104.471C111.766 104.622 111.666 104.723 111.515 104.723Z" fill="#E0E0E0"/>
<path d="M120.688 110C120.672 110 120.663 110 120.663 110C120.512 109.975 120.412 109.85 120.437 109.724L126.544 51.868C126.569 51.7424 126.695 51.6418 126.821 51.6418C126.972 51.667 127.072 51.7926 127.047 51.9183L120.94 109.774C120.914 109.9 120.814 110 120.688 110Z" fill="#E0E0E0"/>
<path d="M129.837 115.278C129.837 115.278 129.828 115.278 129.811 115.278C129.686 115.278 129.585 115.128 129.61 115.002L137.904 59.6341C137.929 59.5085 138.055 59.4079 138.206 59.4331C138.331 59.4331 138.432 59.5839 138.407 59.7095L130.088 115.077C130.088 115.203 129.962 115.278 129.837 115.278Z" fill="#E0E0E0"/>
<path d="M139.01 120.582C138.993 120.582 138.977 120.582 138.96 120.582C138.834 120.556 138.734 120.431 138.759 120.28L148.686 67.0233C148.711 66.8976 148.837 66.7971 148.988 66.8222C149.114 66.8474 149.214 66.9982 149.189 67.1238L139.261 120.38C139.236 120.506 139.136 120.582 139.01 120.582Z" fill="#E0E0E0"/>
<path d="M148.159 125.859C148.142 125.859 148.125 125.859 148.108 125.859C147.983 125.834 147.882 125.709 147.932 125.558L159.494 74.3369C159.519 74.2112 159.669 74.1107 159.795 74.1609C159.921 74.1861 160.021 74.3117 159.996 74.4625L148.41 125.683C148.385 125.784 148.284 125.859 148.159 125.859Z" fill="#E0E0E0"/>
<path d="M24.7307 112.514C24.6302 112.514 24.5045 112.413 24.4794 112.313L11.4103 48.023C11.3851 47.8973 11.4605 47.7716 11.6113 47.7465C11.737 47.6962 11.8627 47.7968 11.8878 47.9224L24.9821 112.212C25.0072 112.338 24.9318 112.464 24.781 112.514C24.7642 112.514 24.7475 112.514 24.7307 112.514Z" fill="#E0E0E0"/>
<path d="M37.2721 105.276C37.1464 105.276 37.0459 105.175 37.0207 105.049L27.0932 38.9499C27.0681 38.8242 27.1686 38.6986 27.2943 38.6734C27.4451 38.6483 27.5708 38.7488 27.5959 38.8745L37.5234 104.974C37.5485 105.125 37.448 105.251 37.3223 105.276C37.3056 105.276 37.2888 105.276 37.2721 105.276Z" fill="#E0E0E0"/>
<path d="M49.8133 98.0374C49.6877 98.0374 49.562 97.9369 49.562 97.8112L41.9719 30.3545C41.9467 30.2288 42.0473 30.1031 42.1981 30.078C42.3237 30.078 42.4494 30.1534 42.4745 30.3042L50.0647 97.7609C50.0647 97.8866 49.9641 98.0123 49.8385 98.0374C49.8217 98.0374 49.8133 98.0374 49.8133 98.0374Z" fill="#E0E0E0"/>
<path d="M62.3549 90.7989C62.2041 90.7989 62.1035 90.6984 62.1035 90.5727L56.2979 22.1861C56.2979 22.0353 56.3984 21.9096 56.524 21.9096C56.6497 21.8845 56.8005 21.985 56.8005 22.1358L62.6062 90.5225C62.6062 90.6481 62.5057 90.7738 62.3549 90.7989Z" fill="#E0E0E0"/>
<path d="M74.8708 83.5608C74.7452 83.5608 74.6446 83.4602 74.6195 83.3094L70.749 13.7918C70.749 13.6661 70.8496 13.5405 71.0004 13.5405C71.126 13.5153 71.2517 13.641 71.2517 13.7667L75.1221 83.2843C75.1473 83.4351 75.0468 83.5356 74.896 83.5608C74.896 83.5608 74.8876 83.5608 74.8708 83.5608Z" fill="#E0E0E0"/>
<path d="M148.158 125.859C148.125 125.859 148.083 125.851 148.033 125.834L74.8707 83.5856L24.8562 112.463C24.7305 112.539 24.5797 112.488 24.5295 112.388C24.4541 112.262 24.4792 112.112 24.6049 112.036L74.745 83.083C74.8456 83.0327 74.921 83.0327 74.9964 83.083L148.284 125.407C148.41 125.457 148.46 125.633 148.384 125.734C148.334 125.834 148.259 125.859 148.158 125.859Z" fill="#E0E0E0"/>
<path d="M151.074 113.067C151.024 113.067 150.973 113.05 150.923 113.016L73.765 64.7611L21.5388 95.7499C21.4132 95.8253 21.2624 95.7751 21.2121 95.6745C21.1367 95.5489 21.1618 95.3981 21.2875 95.3227L73.6393 64.2584C73.7147 64.2081 73.8153 64.2081 73.8907 64.2584L151.2 112.589C151.325 112.664 151.35 112.815 151.275 112.941C151.225 113.016 151.149 113.067 151.074 113.067Z" fill="#E0E0E0"/>
<path d="M153.964 100.249C153.914 100.249 153.864 100.24 153.813 100.224L72.9357 49.229L18.3219 79.866C18.1962 79.9414 18.0454 79.8911 17.97 79.7906C17.8946 79.6649 17.9449 79.5141 18.0705 79.4387L72.81 48.7263C72.9105 48.676 73.0111 48.676 73.0865 48.7263L154.09 99.7964C154.216 99.8718 154.241 100.023 154.165 100.148C154.115 100.224 154.04 100.249 153.964 100.249Z" fill="#E0E0E0"/>
<path d="M156.854 87.456C156.804 87.456 156.754 87.4393 156.704 87.4058L72.056 31.9123L15.0295 63.63C14.9038 63.7054 14.753 63.6552 14.6776 63.5295C14.6273 63.4038 14.6525 63.253 14.7781 63.2028L71.9304 31.4096C72.0058 31.3594 72.1063 31.3594 72.1817 31.4096L156.98 87.0036C157.106 87.079 157.131 87.2298 157.056 87.3304C157.005 87.4058 156.93 87.456 156.854 87.456Z" fill="#E0E0E0"/>
<path d="M159.745 74.6384C159.695 74.6384 159.644 74.63 159.594 74.6133L71.0006 14.0932L11.7874 48.1986C11.6618 48.274 11.511 48.2237 11.4356 48.098C11.3602 47.9975 11.4104 47.8216 11.5361 47.7713L70.8749 13.5654C70.9754 13.5151 71.076 13.5151 71.1514 13.5654L159.871 74.186C159.996 74.2614 160.021 74.4122 159.946 74.5379C159.896 74.6133 159.82 74.6384 159.745 74.6384Z" fill="#E0E0E0"/>
<g opacity="0.2">
<path d="M74.8708 83.5606C74.7452 83.5606 74.6446 83.4601 74.6195 83.3093L70.749 13.7917C70.749 13.666 70.8496 13.5403 71.0004 13.5403C71.126 13.5152 71.2517 13.6409 71.2517 13.7665L75.1221 83.2842C75.1473 83.435 75.0468 83.5355 74.896 83.5606C74.896 83.5606 74.8876 83.5606 74.8708 83.5606Z" fill="black"/>
<path d="M84.0446 88.8389C83.8938 88.8389 83.7932 88.7383 83.7932 88.5875L82.9387 21.9602C82.9387 21.8345 83.0644 21.7089 83.19 21.7089C83.3408 21.7089 83.4414 21.8345 83.4414 21.9602L84.2959 88.5875C84.2959 88.7383 84.1954 88.8389 84.0446 88.8389Z" fill="black"/>
<path d="M93.1927 94.1416C93.0671 94.1416 92.9414 94.016 92.9414 93.8652L94.6253 29.9773C94.6253 29.8265 94.7258 29.726 94.8766 29.726C95.0023 29.726 95.128 29.8516 95.128 29.9773L93.4441 93.8903C93.4441 94.016 93.3435 94.1416 93.1927 94.1416Z" fill="black"/>
<path d="M102.366 99.4197C102.366 99.4197 102.358 99.4197 102.341 99.4197C102.216 99.4197 102.115 99.294 102.115 99.1683L105.156 37.2408C105.156 37.09 105.282 36.9895 105.407 36.9895C105.558 36.9895 105.659 37.1152 105.659 37.266L102.618 99.1935C102.618 99.3191 102.492 99.4197 102.366 99.4197Z" fill="black"/>
<path d="M111.515 104.723C111.364 104.698 111.263 104.572 111.263 104.446L115.762 44.5294C115.762 44.3786 115.888 44.2781 116.014 44.2781C116.164 44.3032 116.265 44.4289 116.265 44.5545L111.766 104.471C111.766 104.622 111.666 104.723 111.515 104.723Z" fill="black"/>
<path d="M120.688 110C120.672 110 120.663 110 120.663 110C120.512 109.975 120.412 109.85 120.437 109.724L126.544 51.868C126.569 51.7424 126.695 51.6418 126.821 51.6418C126.972 51.667 127.072 51.7926 127.047 51.9183L120.94 109.774C120.914 109.9 120.814 110 120.688 110Z" fill="black"/>
<path d="M129.837 115.278C129.837 115.278 129.828 115.278 129.811 115.278C129.686 115.278 129.585 115.128 129.61 115.002L137.904 59.6341C137.929 59.5085 138.055 59.4079 138.206 59.4331C138.331 59.4331 138.432 59.5839 138.407 59.7095L130.088 115.077C130.088 115.203 129.962 115.278 129.837 115.278Z" fill="black"/>
<path d="M139.01 120.582C138.993 120.582 138.977 120.582 138.96 120.582C138.834 120.556 138.734 120.431 138.759 120.28L148.686 67.0233C148.711 66.8976 148.837 66.7971 148.988 66.8222C149.114 66.8474 149.214 66.9982 149.189 67.1238L139.261 120.38C139.236 120.506 139.136 120.582 139.01 120.582Z" fill="black"/>
<path d="M148.159 125.859C148.142 125.859 148.125 125.859 148.108 125.859C147.983 125.834 147.882 125.709 147.932 125.558L159.494 74.3369C159.519 74.2112 159.669 74.1107 159.795 74.1609C159.921 74.1861 160.021 74.3117 159.996 74.4625L148.41 125.683C148.385 125.784 148.284 125.859 148.159 125.859Z" fill="black"/>
<path d="M24.7307 112.514C24.6302 112.514 24.5045 112.413 24.4794 112.313L11.4103 48.023C11.3851 47.8973 11.4605 47.7716 11.6113 47.7465C11.737 47.6962 11.8627 47.7968 11.8878 47.9224L24.9821 112.212C25.0072 112.338 24.9318 112.464 24.781 112.514C24.7642 112.514 24.7475 112.514 24.7307 112.514Z" fill="black"/>
<path d="M37.2721 105.276C37.1464 105.276 37.0459 105.175 37.0207 105.049L27.0932 38.9499C27.0681 38.8242 27.1686 38.6986 27.2943 38.6734C27.4451 38.6483 27.5708 38.7488 27.5959 38.8745L37.5234 104.974C37.5485 105.125 37.448 105.251 37.3223 105.276C37.3056 105.276 37.2888 105.276 37.2721 105.276Z" fill="black"/>
<path d="M49.8133 98.0374C49.6877 98.0374 49.562 97.9369 49.562 97.8112L41.9719 30.3545C41.9467 30.2288 42.0473 30.1031 42.1981 30.078C42.3237 30.078 42.4494 30.1534 42.4745 30.3042L50.0647 97.7609C50.0647 97.8866 49.9641 98.0123 49.8385 98.0374C49.8217 98.0374 49.8133 98.0374 49.8133 98.0374Z" fill="black"/>
<path d="M62.3549 90.7989C62.2041 90.7989 62.1035 90.6984 62.1035 90.5727L56.2979 22.1861C56.2979 22.0353 56.3984 21.9096 56.524 21.9096C56.6497 21.8845 56.8005 21.985 56.8005 22.1358L62.6062 90.5225C62.6062 90.6481 62.5057 90.7738 62.3549 90.7989Z" fill="black"/>
<path d="M74.8708 83.5608C74.7452 83.5608 74.6446 83.4602 74.6195 83.3094L70.749 13.7918C70.749 13.6661 70.8496 13.5405 71.0004 13.5405C71.126 13.5153 71.2517 13.641 71.2517 13.7667L75.1221 83.2843C75.1473 83.4351 75.0468 83.5356 74.896 83.5608C74.896 83.5608 74.8876 83.5608 74.8708 83.5608Z" fill="black"/>
<path d="M148.158 125.859C148.125 125.859 148.083 125.851 148.033 125.834L74.8707 83.5856L24.8562 112.463C24.7305 112.539 24.5797 112.488 24.5295 112.388C24.4541 112.262 24.4792 112.111 24.6049 112.036L74.8707 83.0076L74.9964 83.083L148.284 125.407C148.41 125.457 148.46 125.633 148.384 125.734C148.334 125.834 148.259 125.859 148.158 125.859Z" fill="black"/>
<path d="M151.074 113.067C151.024 113.067 150.973 113.05 150.923 113.016L73.765 64.7612L21.5388 95.75C21.4132 95.8254 21.2624 95.7752 21.2121 95.6746C21.1367 95.549 21.1618 95.3982 21.2875 95.3228L73.765 64.1831L73.8907 64.2585L151.2 112.589C151.325 112.664 151.35 112.815 151.275 112.941C151.225 113.016 151.149 113.067 151.074 113.067Z" fill="black"/>
<path d="M153.964 100.249C153.914 100.249 153.864 100.24 153.813 100.224L72.9357 49.2289L18.3219 79.866C18.1962 79.9414 18.0454 79.8911 17.97 79.7906C17.8946 79.6649 17.9449 79.5141 18.0705 79.4387L72.9608 48.6509L73.0865 48.7263L154.09 99.7964C154.216 99.8718 154.241 100.023 154.165 100.148C154.115 100.224 154.04 100.249 153.964 100.249Z" fill="black"/>
<path d="M156.854 87.4564C156.804 87.4564 156.754 87.4396 156.704 87.4061L72.056 31.9127L15.0295 63.6304C14.9038 63.7058 14.753 63.6555 14.6776 63.5299C14.6273 63.4042 14.6525 63.2534 14.7781 63.2031L72.056 31.3346L72.1817 31.41L156.98 87.004C157.106 87.0794 157.131 87.2302 157.056 87.3307C157.005 87.4061 156.93 87.4564 156.854 87.4564Z" fill="black"/>
<path d="M159.745 74.6385C159.695 74.6385 159.644 74.6301 159.594 74.6134L71.0006 14.0933L11.7874 48.1987C11.6618 48.2741 11.511 48.2238 11.4356 48.0981C11.3602 47.9976 11.4104 47.8217 11.5361 47.7714L71.0257 13.4901L71.1514 13.5655L159.871 74.1861C159.996 74.2615 160.021 74.4123 159.946 74.538C159.896 74.6134 159.82 74.6385 159.745 74.6385Z" fill="black"/>
</g>
<path opacity="0.1" d="M28.1489 111.609L66.8285 89.241L101.763 109.423L63.0837 131.816L28.1489 111.609Z" fill="black"/>
<path opacity="0.1" d="M71.9304 128.147L111.716 105.1L146.651 125.307L106.865 148.354L71.9304 128.147Z" fill="black"/>
<path d="M60.0173 32.9177L59.9922 76.3725L94.8515 96.4537L94.8767 52.9738L60.0173 32.9177Z" fill="#17A2B8"/>
<path opacity="0.1" d="M60.0173 32.9177L59.9922 76.3725L94.8515 96.4537L94.8767 52.9738L60.0173 32.9177Z" fill="black"/>
<path d="M111.389 43.4484L76.5297 23.3672L60.0173 32.9177L94.8767 52.9738L111.389 43.4484Z" fill="#17A2B8"/>
<path opacity="0.3" d="M111.389 43.4484L76.5297 23.3672L60.0173 32.9177L94.8767 52.9738L111.389 43.4484Z" fill="white"/>
<path fill-rule="evenodd" clip-rule="evenodd" d="M102.844 43.9511C102.894 44.0348 102.919 44.1354 102.919 44.2527C102.919 44.5291 102.743 44.7805 102.391 44.9815L100.28 46.213L100.129 46.2884L100.079 46.1879L98.1438 45.082L100.506 43.7249C101.109 43.373 101.989 43.3479 102.517 43.6495C102.668 43.7332 102.777 43.8338 102.844 43.9511ZM100.28 45.836L102.24 44.7302C102.492 44.5794 102.617 44.4035 102.617 44.2527C102.617 44.0767 102.492 43.9762 102.366 43.9008C101.939 43.6746 101.16 43.6997 100.657 43.9762L100.506 44.0767L100.858 44.7051L100.079 45.3082L100.28 45.836ZM100.456 44.6045L100.23 44.2275L98.7721 45.0569L99.9282 45.7104L99.7272 45.1826L100.456 44.6045Z" fill="#455A64"/>
<path d="M104.352 42.6694C104.402 42.7448 104.377 42.8454 104.301 42.8956L102.517 43.9009C102.467 43.9512 102.366 43.9261 102.316 43.8507C102.266 43.7753 102.291 43.6748 102.366 43.6496L104.151 42.6192C104.226 42.5689 104.327 42.594 104.352 42.6694Z" fill="#455A64"/>
<path d="M105.257 43.1971C105.282 43.2473 105.282 43.2976 105.257 43.3479C105.206 43.4233 105.106 43.4484 105.03 43.3981L103.271 42.3677C103.196 42.3426 103.171 42.242 103.196 42.1666C103.246 42.0912 103.347 42.0661 103.422 42.1164L105.206 43.1468C105.223 43.1468 105.24 43.1636 105.257 43.1971Z" fill="#455A64"/>
<path d="M99.0237 39.4523C99.0572 39.5026 99.074 39.5612 99.074 39.6283C99.074 39.7539 98.9734 39.8796 98.8478 39.9801L98.4708 40.1812C98.3954 40.2314 98.2948 40.2063 98.2697 40.1309C98.2194 40.0555 98.2446 39.955 98.32 39.9047L98.6718 39.7037C98.7472 39.6785 98.7472 39.6283 98.7472 39.6283C98.7472 39.6031 98.7472 39.578 98.697 39.5529C98.5462 39.4775 98.2194 39.5026 97.943 39.6534L95.5805 41.0106C95.5051 41.0608 95.4046 41.0357 95.3794 40.9603C95.3292 40.8849 95.3543 40.7844 95.4297 40.7592L97.7922 39.3769C98.144 39.1759 98.5964 39.1507 98.8478 39.2764C98.9148 39.3267 98.9734 39.3853 99.0237 39.4523Z" fill="#455A64"/>
<path fill-rule="evenodd" clip-rule="evenodd" d="M97.7671 42.041L97.5409 42.1918C96.4601 42.795 94.7008 42.795 93.595 42.1918C93.0421 41.865 92.7405 41.4378 92.7405 40.9603C92.7405 40.4827 93.0421 40.0555 93.595 39.7287L93.6955 39.7036L97.7671 42.041ZM93.1677 41.3624C93.285 41.5634 93.4777 41.7394 93.7458 41.8902C94.6757 42.418 96.1334 42.4682 97.1387 42.0158L93.6704 40.0303C93.2683 40.2817 93.0421 40.6084 93.0421 40.9351C93.0421 41.0859 93.084 41.2283 93.1677 41.3624Z" fill="#455A64"/>
<path d="M93.5444 36.2605C93.5947 36.3359 93.5696 36.4113 93.4942 36.4616L88.9702 39.0754C88.8948 39.1257 88.7943 39.1005 88.744 39.0251C88.7189 38.9497 88.744 38.8492 88.8194 38.7989L93.3434 36.2102C93.4188 36.16 93.4942 36.1851 93.5444 36.2605Z" fill="#455A64"/>
<path d="M90.1515 38.7485C90.1515 38.7653 90.1515 38.782 90.1515 38.7988C90.1767 38.8742 90.1013 38.9496 90.0259 38.9747L88.6687 39.1255L88.9703 38.2459C88.9954 38.1705 89.0708 38.1202 89.1714 38.1453C89.2468 38.1705 89.297 38.271 89.2468 38.3464L89.1211 38.7737L90.0007 38.6731C90.051 38.648 90.1264 38.6731 90.1515 38.7485Z" fill="#455A64"/>
<path d="M92.1372 35.4308C92.1875 35.5062 92.1623 35.6067 92.0869 35.6318L87.563 38.2457C87.4876 38.2959 87.3871 38.2708 87.3368 38.1954C87.3117 38.12 87.3368 38.0195 87.4122 37.9943L91.911 35.3805C91.9864 35.3303 92.0869 35.3554 92.1372 35.4308Z" fill="#455A64"/>
<path d="M88.7441 37.9189C88.7441 37.9357 88.7441 37.9524 88.7441 37.9692C88.7692 38.0446 88.6938 38.12 88.6184 38.1451L87.2612 38.2959L87.5628 37.4163C87.588 37.3409 87.6634 37.2906 87.7639 37.3157C87.8393 37.366 87.8644 37.4414 87.8393 37.5168L87.7136 37.9441L88.5933 37.8435C88.6435 37.8184 88.6938 37.8687 88.7441 37.9189Z" fill="#455A64"/>
<path d="M111.389 43.4485L111.364 86.9284L94.8516 96.4538L94.8767 52.9739L111.389 43.4485Z" fill="#17A2B8"/>
<path d="M97.8926 79.7403V72.0999L94.8516 73.8592V81.4744L97.8926 79.7403Z" fill="#37474F"/>
<path d="M94.8515 73.8594L59.9922 53.7782V61.4186L94.8515 81.4747V73.8594Z" fill="#263238"/>
<path d="M101.763 87.4058V78.182C101.763 77.9558 101.939 77.6793 102.14 77.5537L106.94 74.7891C107.317 74.5629 107.644 74.7639 107.644 75.2163V84.415C107.644 84.6412 107.493 84.9176 107.292 85.0433L102.492 87.8079C102.09 88.0341 101.763 87.8582 101.763 87.4058Z" fill="#FAFAFA"/>
<path d="M102.617 87.1291V86.8275L106.84 84.3645V84.6912L102.617 87.1291Z" fill="#455A64"/>
<path d="M102.617 85.8474V85.3196L106.865 82.8817L106.84 83.4095L102.617 85.8474Z" fill="#455A64"/>
<path d="M102.617 84.5909V84.2642L106.84 81.8263V82.1279L102.617 84.5909Z" fill="#455A64"/>
<path d="M102.617 83.6358V83.0075L106.84 80.5444V81.1728L102.617 83.6358Z" fill="#455A64"/>
<path d="M102.617 82.0272V81.7256L106.84 79.2877V79.5893L102.617 82.0272Z" fill="#455A64"/>
<path d="M102.592 81.1225L102.617 80.4439L106.84 78.006V78.6846L102.592 81.1225Z" fill="#455A64"/>
<path d="M102.617 79.4887V79.162L106.84 76.7241V77.0509L102.617 79.4887Z" fill="#455A64"/>
<path d="M102.617 78.76V78.6092L106.84 76.1713V76.3221L102.617 78.76Z" fill="#455A64"/>
<path d="M102.643 80.0666V79.8907L106.865 77.4528V77.6036L102.643 80.0666Z" fill="#455A64"/>
<path d="M102.617 82.6303V82.4795L106.865 80.0416V80.1924L102.617 82.6303Z" fill="#455A64"/>
<path d="M102.617 84.0378V83.887L106.865 81.424V81.5999L102.617 84.0378Z" fill="#455A64"/>
<path d="M102.643 85.0431V84.8672L106.865 82.4293V82.5801L102.643 85.0431Z" fill="#455A64"/>
<path d="M102.617 86.4256V86.2748L106.84 83.8118V83.9877L102.617 86.4256Z" fill="#455A64"/>
<path d="M102.617 78.2069V77.9053L106.84 75.4423V75.769L102.617 78.2069Z" fill="#455A64"/>
<path d="M96.6108 87.1547L66.9791 70.014L33.3262 89.492L62.9579 106.633L96.6108 87.1547Z" fill="#17A2B8"/>
<path opacity="0.3" d="M96.6108 87.1547L66.9791 70.014L33.3262 89.492L62.9579 106.633L96.6108 87.1547Z" fill="white"/>
<path d="M62.958 128.9L96.611 109.422V87.1547L62.958 106.633V128.9Z" fill="#17A2B8"/>
<path fill-rule="evenodd" clip-rule="evenodd" d="M66.6776 121.511C66.5771 121.511 66.4766 121.486 66.376 121.436C66.1498 121.31 66.0242 121.009 66.0242 120.632V118.269V118.093L66.1498 118.118L67.9845 117.038V119.677C67.9845 120.33 67.5824 121.109 67.0798 121.386C66.9457 121.469 66.8117 121.511 66.6776 121.511ZM66.3258 118.445V120.632C66.3258 120.908 66.4012 121.109 66.5268 121.185C66.6525 121.26 66.8284 121.21 66.929 121.134C67.3311 120.908 67.6829 120.23 67.6829 119.677V119.476H67.0044L66.8787 118.546L66.3258 118.445ZM67.2808 119.174H67.7081V117.54L66.6022 118.194L67.13 118.294L67.2808 119.174Z" fill="#455A64"/>
<path d="M67.0041 123.396C66.9287 123.396 66.8533 123.321 66.8533 123.246V121.26C66.8533 121.185 66.9287 121.109 67.0041 121.109C67.0795 121.109 67.1549 121.185 67.1549 121.26V123.246C67.1549 123.321 67.0795 123.396 67.0041 123.396Z" fill="#455A64"/>
<path d="M66.1496 123.899C66.0994 123.899 66.0491 123.874 66.024 123.824C65.9737 123.748 65.9988 123.648 66.0742 123.623L67.7833 122.617C67.8587 122.567 67.9592 122.592 67.9843 122.667C68.0346 122.743 68.0095 122.843 67.9341 122.869L66.225 123.874C66.1915 123.891 66.1664 123.899 66.1496 123.899Z" fill="#455A64"/>
<path d="M72.282 120.481C72.215 120.481 72.1564 120.464 72.1061 120.431C72.0056 120.381 71.9302 120.255 71.9302 120.079V119.677C71.9302 119.601 72.0056 119.526 72.081 119.526C72.1815 119.526 72.2318 119.601 72.2318 119.677V120.079C72.2318 120.129 72.2569 120.18 72.2569 120.18C72.282 120.18 72.3072 120.18 72.3574 120.154C72.4831 120.079 72.6339 119.777 72.6339 119.476V116.862C72.6339 116.761 72.7093 116.711 72.7847 116.711C72.8601 116.711 72.9355 116.761 72.9355 116.862V119.476C72.9355 119.878 72.7596 120.28 72.5082 120.406C72.4245 120.456 72.3491 120.481 72.282 120.481Z" fill="#455A64"/>
<path fill-rule="evenodd" clip-rule="evenodd" d="M70.7241 118.169V117.917C70.7241 116.711 71.5786 115.228 72.6091 114.625C73.1369 114.323 73.6647 114.273 74.0417 114.499C74.4438 114.725 74.67 115.203 74.67 115.806V115.907L70.7241 118.169ZM73.4887 114.65C73.2709 114.65 73.028 114.725 72.7599 114.876C71.8802 115.379 71.1262 116.585 71.0257 117.641L74.3684 115.706C74.3433 115.253 74.1673 114.901 73.8909 114.751C73.7736 114.684 73.6395 114.65 73.4887 114.65Z" fill="#455A64"/>
<path d="M77.6103 117.44C77.5097 117.44 77.4595 117.364 77.4595 117.289V112.237C77.4595 112.162 77.5097 112.111 77.6103 112.111C77.6857 112.111 77.7611 112.162 77.7611 112.237V117.289C77.7611 117.364 77.6857 117.44 77.6103 117.44Z" fill="#455A64"/>
<path d="M77.1578 113.393C77.141 113.393 77.1243 113.393 77.1075 113.393C77.0321 113.343 77.007 113.268 77.0321 113.192L77.5599 111.986L78.138 112.664C78.2134 112.715 78.1882 112.815 78.138 112.865C78.0626 112.916 77.9872 112.916 77.9369 112.84L77.6353 112.514L77.3086 113.318C77.2835 113.368 77.2332 113.393 77.1578 113.393Z" fill="#455A64"/>
<path d="M78.9672 116.661C78.8918 116.661 78.8164 116.585 78.8164 116.51V111.458C78.8164 111.383 78.8918 111.307 78.9672 111.307C79.0677 111.307 79.118 111.383 79.118 111.458V116.51C79.118 116.585 79.0677 116.661 78.9672 116.661Z" fill="#455A64"/>
<path d="M78.5402 112.614C78.5234 112.614 78.5067 112.614 78.4899 112.614C78.4145 112.564 78.3643 112.489 78.4145 112.413L78.9423 111.182L79.5204 111.86C79.5706 111.936 79.5706 112.036 79.4952 112.087C79.445 112.137 79.3444 112.137 79.2942 112.061L79.0177 111.735L78.6659 112.539C78.6407 112.589 78.5905 112.614 78.5402 112.614Z" fill="#455A64"/>
<path d="M62.9579 128.9L33.3262 111.76V89.4918L62.9579 106.632V128.9Z" fill="#17A2B8"/>
<path opacity="0.1" d="M62.9579 128.9L33.3262 111.76V89.4918L62.9579 106.632V128.9Z" fill="black"/>
<path d="M46.6968 100.601L48.8582 101.857V98.4643L46.6968 97.2076V100.601Z" fill="#37474F"/>
<path d="M48.8582 98.4644L82.5112 78.9864L80.3497 77.7297L46.6968 97.2077L48.8582 98.4644Z" fill="#455A64"/>
<path d="M37.5736 103.491L45.2643 107.965C45.4653 108.065 45.6161 108.342 45.6161 108.543V113.921C45.6161 114.348 45.2894 114.524 44.9124 114.298L37.2217 109.85C37.0207 109.749 36.8699 109.473 36.8699 109.246V103.893C36.8699 103.466 37.1715 103.29 37.5736 103.491Z" fill="#FAFAFA"/>
<path d="M37.3723 104.346L37.6236 104.496V109.221L37.3723 109.071V104.346Z" fill="#455A64"/>
<path d="M38.4277 104.949L38.8801 105.225V109.95L38.4277 109.674V104.949Z" fill="#455A64"/>
<path d="M39.5088 105.577L39.7601 105.728V110.453L39.5088 110.302V105.577Z" fill="#455A64"/>
<path d="M40.313 106.03L40.8408 106.331V111.056L40.313 110.755V106.03Z" fill="#455A64"/>
<path d="M41.645 106.809L41.8963 106.96V111.684L41.645 111.534V106.809Z" fill="#455A64"/>
<path d="M42.3989 107.236L42.977 107.563V112.288L42.3989 111.961V107.236Z" fill="#455A64"/>
<path d="M43.7812 108.04L44.0326 108.191V112.916L43.7812 112.765V108.04Z" fill="#455A64"/>
<path d="M44.3843 108.367L44.5099 108.442V113.167L44.3843 113.092V108.367Z" fill="#455A64"/>
<path d="M43.2783 107.764L43.404 107.839V112.564L43.2783 112.489V107.764Z" fill="#455A64"/>
<path d="M41.1423 106.507L41.268 106.583V111.308L41.1423 111.232V106.507Z" fill="#455A64"/>
<path d="M39.9612 105.828L40.0868 105.904V110.629L39.9612 110.553V105.828Z" fill="#455A64"/>
<path d="M39.1064 105.376L39.2572 105.452L39.2321 110.176L39.1064 110.101V105.376Z" fill="#455A64"/>
<path d="M37.9756 104.672L38.1013 104.748V109.473L37.9756 109.397V104.672Z" fill="#455A64"/>
<path d="M44.8369 108.643L45.1134 108.794V113.519L44.8369 113.368V108.643Z" fill="#455A64"/>
<path d="M28.5763 81.7763L36.267 86.2248C36.468 86.3505 36.6188 86.6018 36.6188 86.828V92.1813C36.6188 92.6337 36.3172 92.8097 35.9402 92.5835L28.2244 88.1349C28.0234 88.0344 27.8726 87.7579 27.8726 87.5318V82.1784C27.8726 81.7512 28.1993 81.5501 28.5763 81.7763Z" fill="#FAFAFA"/>
<path d="M28.375 82.6057L28.6515 82.7565V87.5066L28.375 87.3307V82.6057Z" fill="#455A64"/>
<path d="M29.4558 83.2341L29.9082 83.4855V88.2356L29.4558 87.9591V83.2341Z" fill="#455A64"/>
<path d="M30.5115 83.8373L30.7879 83.9881V88.7131L30.5115 88.5623V83.8373Z" fill="#455A64"/>
<path d="M31.3157 84.3147L31.8435 84.6163V89.3413L31.3157 89.0397V84.3147Z" fill="#455A64"/>
<path d="M32.6477 85.0688L32.899 85.2196V89.9698L32.6477 89.7938V85.0688Z" fill="#455A64"/>
<path d="M33.4268 85.5211L33.9797 85.8479V90.5728L33.4268 90.2461V85.5211Z" fill="#455A64"/>
<path d="M34.7842 86.3L35.0355 86.4508V91.1758L34.7842 91.025V86.3Z" fill="#455A64"/>
<path d="M35.3872 86.6522L35.5129 86.7276V91.4526L35.3872 91.3772V86.6522Z" fill="#455A64"/>
<path d="M34.3064 86.0488L34.4321 86.1242V90.8492L34.3064 90.7738V86.0488Z" fill="#455A64"/>
<path d="M32.1453 84.7921L32.2709 84.8675V89.5925L32.1453 89.5171V84.7921Z" fill="#455A64"/>
<path d="M30.9639 84.1136L31.0895 84.1891V88.914L30.9639 88.8386V84.1136Z" fill="#455A64"/>
<path d="M30.1343 83.6614L30.2599 83.7368V88.4618L30.1343 88.3864V83.6614Z" fill="#455A64"/>
<path d="M28.9785 82.9578L29.1042 83.0332V87.7581L28.9785 87.6827V82.9578Z" fill="#455A64"/>
<path d="M35.8396 86.9286L36.1161 87.0794V91.8044L35.8396 91.6536V86.9286Z" fill="#455A64"/>
<path d="M144.464 86.0239L112.47 67.5261L76.1528 88.5624L108.147 107.06L144.464 86.0239Z" fill="#17A2B8"/>
<g opacity="0.4">
<path d="M144.464 86.0239L112.47 67.5261L76.1528 88.5624L108.147 107.06L144.464 86.0239Z" fill="white"/>
</g>
<path d="M108.147 146.519L144.464 125.508V86.024L108.147 107.06V146.519Z" fill="#17A2B8"/>
<g opacity="0.2">
<path d="M108.147 146.519L144.464 125.508V86.024L108.147 107.06V146.519Z" fill="white"/>
</g>
<path fill-rule="evenodd" clip-rule="evenodd" d="M111.289 139.808C111.205 139.808 111.121 139.792 111.037 139.758C110.862 139.658 110.736 139.406 110.736 139.08V137.119V136.968H110.836L112.395 136.064V138.275C112.395 138.828 112.068 139.482 111.641 139.708C111.523 139.775 111.406 139.808 111.289 139.808ZM110.987 137.27V139.08C110.987 139.306 111.063 139.482 111.163 139.532C111.289 139.607 111.414 139.557 111.515 139.507C111.842 139.306 112.143 138.753 112.143 138.275V138.125H111.565L111.465 137.345L110.987 137.27ZM111.766 137.873H112.143V136.516L111.213 137.044L111.666 137.144L111.766 137.873Z" fill="#455A64"/>
<path d="M111.565 141.392C111.49 141.392 111.44 141.342 111.44 141.266V139.607C111.44 139.532 111.49 139.482 111.565 139.482C111.641 139.482 111.691 139.532 111.691 139.607V141.266C111.691 141.342 111.641 141.392 111.565 141.392Z" fill="#455A64"/>
<path d="M110.836 141.819C110.811 141.819 110.761 141.794 110.736 141.744C110.711 141.693 110.736 141.618 110.786 141.568L112.219 140.738C112.294 140.713 112.37 140.738 112.395 140.789C112.42 140.864 112.42 140.939 112.344 140.965L110.912 141.794C110.895 141.811 110.87 141.819 110.836 141.819Z" fill="#455A64"/>
<path d="M115.989 138.954C115.939 138.954 115.888 138.946 115.838 138.929C115.763 138.853 115.687 138.753 115.687 138.627V138.275C115.687 138.2 115.763 138.15 115.813 138.15C115.888 138.15 115.939 138.2 115.939 138.275V138.627C115.939 138.678 115.964 138.703 115.964 138.703C115.989 138.703 116.014 138.703 116.064 138.678C116.165 138.627 116.29 138.376 116.29 138.125V135.913C116.29 135.837 116.341 135.787 116.416 135.787C116.466 135.787 116.542 135.837 116.542 135.913V138.125C116.542 138.451 116.391 138.778 116.19 138.904C116.123 138.937 116.056 138.954 115.989 138.954Z" fill="#455A64"/>
<path fill-rule="evenodd" clip-rule="evenodd" d="M114.682 137.019V136.818C114.682 135.787 115.386 134.556 116.265 134.053C116.718 133.802 117.145 133.751 117.472 133.952C117.798 134.153 117.974 134.53 117.974 135.058V135.109L114.682 137.019ZM117.019 134.078C116.835 134.078 116.625 134.145 116.391 134.279C115.662 134.706 115.034 135.712 114.933 136.591L117.723 134.983C117.723 134.581 117.597 134.304 117.346 134.179C117.245 134.112 117.137 134.078 117.019 134.078Z" fill="#455A64"/>
<path d="M120.437 136.416C120.362 136.416 120.311 136.365 120.311 136.29V132.068C120.311 131.992 120.362 131.942 120.437 131.942C120.512 131.942 120.563 131.992 120.563 132.068V136.29C120.563 136.365 120.512 136.416 120.437 136.416Z" fill="#455A64"/>
<path d="M120.085 133.023C120.069 133.023 120.052 133.023 120.035 133.023C119.96 132.998 119.934 132.922 119.96 132.847L120.412 131.841L120.89 132.394C120.94 132.445 120.94 132.52 120.89 132.57C120.839 132.621 120.764 132.621 120.714 132.57L120.487 132.294L120.186 132.947C120.186 132.998 120.136 133.023 120.085 133.023Z" fill="#455A64"/>
<path d="M121.593 135.762C121.518 135.762 121.468 135.712 121.468 135.636V131.414C121.468 131.338 121.518 131.288 121.593 131.288C121.669 131.288 121.719 131.338 121.719 131.414V135.636C121.719 135.712 121.669 135.762 121.593 135.762Z" fill="#455A64"/>
<path d="M121.216 132.369C121.199 132.369 121.183 132.369 121.166 132.369C121.116 132.344 121.09 132.268 121.116 132.193L121.568 131.188L122.045 131.741C122.096 131.791 122.096 131.866 122.045 131.917C121.995 131.967 121.895 131.967 121.87 131.917L121.618 131.64L121.342 132.294C121.317 132.344 121.266 132.369 121.216 132.369Z" fill="#455A64"/>
<path d="M108.147 146.519L76.1528 128.021V88.5623L108.147 107.06V146.519Z" fill="#17A2B8"/>
<path opacity="0.1" d="M108.147 146.519L76.1528 128.021V88.5623L108.147 107.06V146.519Z" fill="black"/>
<path d="M129.259 99.5704L123.403 102.963V98.2384L129.259 94.8455V99.5704Z" fill="#37474F"/>
<path d="M123.403 98.2387L91.4087 79.7157L97.2898 76.3228L129.259 94.8457L123.403 98.2387Z" fill="#455A64"/>
<path d="M78.4651 122.693L83.9943 125.885C84.12 125.985 84.2456 126.161 84.2456 126.337V130.182C84.2456 130.484 84.0194 130.635 83.743 130.459L78.2137 127.267C78.0629 127.192 77.9624 126.99 77.9624 126.84V122.994C77.9624 122.668 78.1886 122.542 78.4651 122.693Z" fill="#FAFAFA"/>
<path d="M78.3142 123.296L78.5153 123.396V126.815L78.3142 126.689V123.296Z" fill="#455A64"/>
<path d="M79.0933 123.748L79.42 123.924V127.317L79.0933 127.141V123.748Z" fill="#455A64"/>
<path d="M79.8474 124.176L80.0485 124.301V127.694L79.8474 127.569V124.176Z" fill="#455A64"/>
<path d="M80.4253 124.502L80.8023 124.729V128.121L80.4253 127.895V124.502Z" fill="#455A64"/>
<path d="M81.3804 125.055L81.5814 125.181V128.574L81.3804 128.473V125.055Z" fill="#455A64"/>
<path d="M81.9333 125.382L82.3355 125.608V129.026L81.9333 128.775V125.382Z" fill="#455A64"/>
<path d="M82.9136 125.96L83.1146 126.061V129.454L82.9136 129.353V125.96Z" fill="#455A64"/>
<path d="M83.366 126.211L83.4414 126.262V129.655L83.366 129.604V126.211Z" fill="#455A64"/>
<path d="M82.5615 125.759L82.6621 125.834V129.227L82.5615 129.152V125.759Z" fill="#455A64"/>
<path d="M81.0286 124.854L81.1291 124.93V128.322L81.0286 128.247V124.854Z" fill="#455A64"/>
<path d="M80.1741 124.377L80.2746 124.427V127.82L80.1741 127.77V124.377Z" fill="#455A64"/>
<path d="M79.5708 124.05L79.6713 124.1V127.493L79.5708 127.443V124.05Z" fill="#455A64"/>
<path d="M78.7415 123.547L78.842 123.597V126.99L78.7415 126.94V123.547Z" fill="#455A64"/>
<path d="M83.6926 126.387L83.8686 126.513V129.906L83.6926 129.78V126.387Z" fill="#455A64"/>
<path d="M109.605 103.592C109.554 103.592 109.513 103.583 109.479 103.567L11.5361 48.1988C11.4104 48.1234 11.3602 47.9726 11.4356 47.8469C11.511 47.7464 11.6618 47.6961 11.7623 47.7715L109.605 103.064L159.619 74.1862C159.745 74.1108 159.896 74.1611 159.971 74.2616C160.021 74.3873 159.996 74.5381 159.871 74.6135L109.73 103.567C109.68 103.583 109.638 103.592 109.605 103.592Z" fill="#E0E0E0"/>
<path d="M98.0185 154.813C97.985 154.813 97.9431 154.804 97.8929 154.788L24.6053 112.464C24.555 112.439 24.5048 112.388 24.4796 112.313L11.4105 48.023C11.3854 47.8973 11.4608 47.7716 11.6116 47.7465C11.7372 47.6962 11.8629 47.7968 11.888 47.9224L24.9572 112.087L98.0185 154.285L147.958 125.457L159.494 74.3371C159.519 74.2115 159.67 74.1109 159.795 74.1612C159.921 74.1863 160.021 74.312 159.996 74.4628L148.41 125.684C148.41 125.734 148.36 125.809 148.284 125.834L98.1442 154.788C98.1107 154.804 98.0688 154.813 98.0185 154.813Z" fill="#E0E0E0"/>
<path d="M98.0185 154.813C98.0017 154.813 97.985 154.813 97.9682 154.813C97.8425 154.787 97.742 154.637 97.7923 154.511L109.353 103.29C109.379 103.164 109.504 103.064 109.655 103.114C109.781 103.139 109.881 103.265 109.831 103.391L98.2698 154.612C98.2447 154.737 98.1441 154.813 98.0185 154.813Z" fill="#E0E0E0"/>
<path d="M110.56 147.574C110.543 147.574 110.526 147.574 110.51 147.574C110.359 147.549 110.283 147.398 110.308 147.273L121.895 96.0519C121.92 95.9263 122.046 95.8257 122.196 95.876C122.322 95.9011 122.397 96.0268 122.372 96.1776L110.811 147.398C110.786 147.499 110.685 147.574 110.56 147.574Z" fill="#E0E0E0"/>
<path d="M123.101 140.336C123.084 140.336 123.068 140.336 123.051 140.336C122.9 140.311 122.825 140.185 122.85 140.034L134.436 88.8135C134.461 88.6879 134.587 88.5873 134.712 88.6376C134.863 88.6627 134.939 88.7884 134.914 88.9392L123.352 140.16C123.327 140.261 123.202 140.336 123.101 140.336Z" fill="#E0E0E0"/>
<path d="M135.642 133.098C135.626 133.098 135.6 133.098 135.567 133.098C135.441 133.072 135.366 132.947 135.391 132.796L146.952 81.5751C146.977 81.4495 147.128 81.3489 147.254 81.3992C147.405 81.4243 147.48 81.55 147.455 81.7008L135.869 132.922C135.843 133.022 135.743 133.098 135.642 133.098Z" fill="#E0E0E0"/>
<path d="M33.9044 117.792C33.7788 117.792 33.6531 117.691 33.6531 117.566L26.4651 56.5178C26.4651 56.3921 26.5405 56.2665 26.6913 56.2413C26.8421 56.2413 26.9426 56.3419 26.9677 56.4675L34.1558 117.515C34.1558 117.641 34.0552 117.767 33.9296 117.792C33.9128 117.792 33.9044 117.792 33.9044 117.792Z" fill="#E0E0E0"/>
<path d="M43.0529 123.095C42.9272 123.095 42.8267 122.995 42.8016 122.844L38.7049 63.4295C38.6798 63.3039 38.8054 63.1782 38.9311 63.1531C39.0568 63.1531 39.1824 63.2536 39.2076 63.4044L43.3042 122.819C43.3294 122.944 43.2037 123.07 43.078 123.095C43.078 123.095 43.0696 123.095 43.0529 123.095Z" fill="#E0E0E0"/>
<path d="M52.2262 128.373C52.0754 128.373 51.9749 128.272 51.9749 128.121L51.5225 70.6676C51.5225 70.5168 51.623 70.4163 51.7487 70.4163C51.8743 70.4163 52.0251 70.5168 52.0251 70.6425L52.4775 128.121C52.4775 128.247 52.3518 128.373 52.2262 128.373Z" fill="#E0E0E0"/>
<path d="M61.3749 133.651C61.2241 133.651 61.1235 133.55 61.1235 133.399L63.2096 77.2524C63.2096 77.1267 63.3352 77.0011 63.486 77.0262C63.6117 77.0262 63.7122 77.1518 63.7122 77.2775L61.6262 133.424C61.6262 133.55 61.5257 133.651 61.3749 133.651Z" fill="#E0E0E0"/>
<path d="M70.5481 138.954C70.5314 138.954 70.523 138.954 70.523 138.954C70.3722 138.929 70.2717 138.828 70.2968 138.677L74.6197 83.7115C74.6448 83.5607 74.7705 83.4602 74.8961 83.4853C75.0469 83.4853 75.1475 83.611 75.1223 83.7366L70.7995 138.727C70.7743 138.853 70.6738 138.954 70.5481 138.954Z" fill="#E0E0E0"/>
<path d="M79.6966 144.232C79.6966 144.232 79.6883 144.232 79.6715 144.232C79.5459 144.232 79.4453 144.106 79.4453 143.955L86.2061 90.246C86.2312 90.0952 86.3569 89.9947 86.4825 90.0198C86.6333 90.045 86.7087 90.1706 86.7087 90.2963L79.948 144.03C79.948 144.156 79.8223 144.232 79.6966 144.232Z" fill="#E0E0E0"/>
<path d="M88.8702 149.535C88.8534 149.535 88.8367 149.535 88.8199 149.535C88.6943 149.509 88.5937 149.359 88.6189 149.233L98.1191 96.7806C98.1442 96.655 98.2699 96.5544 98.4207 96.5796C98.5464 96.6047 98.6469 96.7304 98.6218 96.8812L89.1215 149.334C89.0964 149.434 88.9959 149.535 88.8702 149.535Z" fill="#E0E0E0"/>
<path d="M109.605 103.592C109.554 103.592 109.513 103.583 109.479 103.567L11.5361 48.1988C11.4104 48.1234 11.3602 47.9726 11.4356 47.8469C11.511 47.7464 11.6618 47.6961 11.7623 47.7715L109.605 103.064L159.619 74.1862C159.745 74.1108 159.896 74.1611 159.971 74.2616C160.021 74.3873 159.996 74.5381 159.871 74.6135L109.73 103.567C109.68 103.583 109.638 103.592 109.605 103.592Z" fill="#E0E0E0"/>
<path d="M106.714 116.41C106.664 116.41 106.622 116.393 106.589 116.36L14.7781 63.6307C14.6525 63.5553 14.6273 63.4045 14.6776 63.2788C14.753 63.1783 14.9038 63.128 15.0295 63.2034L106.714 115.857L156.729 86.9792C156.854 86.9038 157.005 86.954 157.056 87.0797C157.131 87.2054 157.106 87.3561 156.98 87.4315L106.84 116.36C106.79 116.393 106.748 116.41 106.714 116.41Z" fill="#E0E0E0"/>
<path d="M103.799 129.202C103.765 129.202 103.732 129.194 103.698 129.177L18.0705 79.8664C17.9449 79.8161 17.8946 79.6653 17.97 79.5396C18.0454 79.414 18.1962 79.3637 18.3219 79.4391L103.799 128.674L153.839 99.7968C153.939 99.7214 154.115 99.7716 154.165 99.8722C154.241 99.9978 154.19 100.149 154.09 100.224L103.925 129.177C103.891 129.194 103.849 129.202 103.799 129.202Z" fill="#E0E0E0"/>
<path d="M100.909 142.02C100.875 142.02 100.833 142.003 100.783 141.97L21.2875 95.7504C21.1618 95.7001 21.1367 95.5242 21.2121 95.4237C21.2624 95.298 21.4132 95.2477 21.5388 95.3231L100.909 141.467L150.948 112.589C151.049 112.514 151.2 112.564 151.275 112.69C151.35 112.816 151.3 112.966 151.2 113.042L101.034 141.97C101.001 142.003 100.959 142.02 100.909 142.02Z" fill="#E0E0E0"/>
<path d="M98.0181 154.813C97.9846 154.813 97.9427 154.804 97.8924 154.788L24.6049 112.464C24.4792 112.414 24.4541 112.238 24.5295 112.137C24.5797 112.012 24.7305 111.961 24.8562 112.037L98.0181 154.285L148.033 125.407C148.158 125.332 148.309 125.382 148.384 125.483C148.46 125.608 148.41 125.759 148.284 125.835L98.1438 154.788C98.1103 154.804 98.0684 154.813 98.0181 154.813Z" fill="#E0E0E0"/>
</svg>
