<svg width="200" height="192" viewBox="0 0 200 192" fill="none" xmlns="http://www.w3.org/2000/svg">
<circle opacity="0.4" cx="88.9503" cy="102.95" r="88.9503" fill="#D1ECF1"/>
<path opacity="0.1" d="M114.635 164.611L119.432 158.248L138.718 147.724L159.667 143.515L162.555 137.151L178.953 127.851L159.227 111.013L102.79 147.43L114.635 164.611Z" fill="black"/>
<path d="M0.0490723 122.565L100 171.904V169.457L0.0490723 120.117V122.565Z" fill="#EEBC92"/>
<path d="M100 171.904L114.635 164.611V162.163L100 169.457V171.904Z" fill="#D2A782"/>
<path d="M0.0490723 120.117L100 169.457L114.635 162.114L14.6844 112.775L0.0490723 120.117Z" fill="#F1D3A0"/>
<path d="M26.9701 120.02L13.5095 126.774V117.964L26.9701 111.258V120.02Z" fill="#D2A782"/>
<path d="M13.5095 126.774L0 120.02V111.258L13.5095 117.964V126.774Z" fill="#E1BD9E"/>
<path d="M26.9701 111.258L13.5095 117.964L0 111.258L13.5095 104.503L26.9701 111.258Z" fill="#EEBB66"/>
<path d="M70.2399 141.361L56.7793 148.116V139.305L70.2399 132.599V141.361Z" fill="#D2A782"/>
<path d="M56.7793 148.116L43.2698 141.361V132.599L56.7793 139.305V148.116Z" fill="#E1BD9E"/>
<path d="M70.2399 132.599L56.7793 139.305L43.2698 132.599L56.7793 125.844L70.2399 132.599Z" fill="#EEBB66"/>
<path d="M113.461 162.653L100 169.359V160.597L113.461 153.842V162.653Z" fill="#D2A782"/>
<path d="M99.9999 169.359L86.5393 162.653V153.842L99.9999 160.597V169.359Z" fill="#E1BD9E"/>
<path d="M113.461 153.842L99.9999 160.597L86.5393 153.842L99.9999 147.137L113.461 153.842Z" fill="#FBDDAB"/>
<path d="M0.0490723 111.258L100 160.597V158.15L0.0490723 108.811V111.258Z" fill="#EEBC92"/>
<path d="M100 160.597L114.635 153.255V150.808L100 158.15V160.597Z" fill="#D2A782"/>
<path d="M0.0490723 108.811L100 158.15L114.635 150.808L14.6844 101.469L0.0490723 108.811Z" fill="#F1D3A0"/>
<path d="M85.4136 81.4L185.365 130.739V128.292L85.4136 78.9526V81.4Z" fill="#BF9775"/>
<path d="M185.365 130.739L200 123.397V120.95L185.365 128.292V130.739Z" fill="#D2A782"/>
<path d="M85.4136 78.9526L185.365 128.292L200 120.95L100.049 71.6105L85.4136 78.9526Z" fill="#F1D3A0"/>
<path d="M112.286 78.3162L98.8252 85.071V76.2604L112.286 69.5546V78.3162Z" fill="#D2A782"/>
<path d="M98.8251 85.071L85.3645 78.3162V69.5546L98.8251 76.2604V85.071Z" fill="#E1BD9E"/>
<path d="M112.286 69.5547L98.8251 76.2605L85.3645 69.5058L98.8251 62.7999L112.286 69.5547Z" fill="#EEBB66"/>
<path d="M155.457 99.7063L141.997 106.412V97.6505L155.457 90.8958V99.7063Z" fill="#D2A782"/>
<path d="M141.997 106.412L128.536 99.7063V90.8958L141.997 97.6505V106.412Z" fill="#E1BD9E"/>
<path d="M155.458 90.8959L141.997 97.6507L128.536 90.8959L141.997 84.1901L155.458 90.8959Z" fill="#EEBB66"/>
<path d="M198.825 120.95L185.365 127.705V118.894L198.825 112.188V120.95Z" fill="#D2A782"/>
<path d="M185.364 127.705L171.855 120.95V112.188L185.364 118.894V127.705Z" fill="#B2967D"/>
<path d="M198.825 112.188L185.364 118.894L171.855 112.188L185.364 105.433L198.825 112.188Z" fill="#FBDDAB"/>
<path d="M85.4136 69.5057L185.365 118.894V116.447L85.4136 67.0583V69.5057Z" fill="#BF9775"/>
<path d="M185.365 118.894L200 111.552V109.104L185.365 116.447V118.894Z" fill="#D2A782"/>
<path d="M85.4136 67.0583L185.365 116.447L200 109.104L100.049 59.7651L85.4136 67.0583Z" fill="#F1D3A0"/>
<path d="M45.032 101.224L144.983 150.563V148.116L45.032 98.7765V101.224Z" fill="#BF9775"/>
<path d="M144.983 150.563L159.667 143.221V140.773L144.983 148.116V150.563Z" fill="#D2A782"/>
<path d="M45.032 98.7765L144.983 148.116L159.667 140.774L59.6673 91.4343L45.032 98.7765Z" fill="#F1D3A0"/>
<path d="M71.953 98.1402L58.4924 104.895V96.0844L71.953 89.3296V98.1402Z" fill="#D2A782"/>
<path d="M58.4926 104.895L45.032 98.1402V89.3296L58.4926 96.0844V104.895Z" fill="#E1BD9E"/>
<path d="M71.9532 89.3296L58.4926 96.0844L45.032 89.3296L58.4926 82.6238L71.9532 89.3296Z" fill="#EEBB66"/>
<path d="M115.125 119.481L101.664 126.236V117.475L115.125 110.72V119.481Z" fill="#D2A782"/>
<path d="M101.664 126.236L88.2036 119.481V110.72L101.664 117.475V126.236Z" fill="#E1BD9E"/>
<path d="M115.125 110.72L101.664 117.475L88.2036 110.72L101.664 103.965L115.125 110.72Z" fill="#EEBB66"/>
<path d="M158.493 140.774L144.983 147.528V138.718L158.493 132.012V140.774Z" fill="#D2A782"/>
<path d="M144.983 147.528L131.522 140.774V132.012L144.983 138.718V147.528Z" fill="#B2967D"/>
<path d="M158.493 132.012L144.983 138.718L131.522 131.963L144.983 125.257L158.493 132.012Z" fill="#FBDDAB"/>
<path d="M45.032 89.3296L144.983 138.718V136.221L45.032 86.8822V89.3296Z" fill="#BF9775"/>
<path d="M144.983 138.718L159.667 131.376V128.928L144.983 136.27V138.718Z" fill="#D2A782"/>
<path d="M45.032 86.8822L144.983 136.27L159.667 128.928L59.6673 79.589L45.032 86.8822Z" fill="#F1D3A0"/>
<path d="M114.635 66.6665L14.6843 116.055V113.607L114.635 64.2681V66.6665Z" fill="#D2A782"/>
<path d="M14.6844 116.055L0.0490723 108.713V106.265L14.6844 113.607V116.055Z" fill="#EEBC92"/>
<path d="M114.635 64.2682L14.6844 113.607L0.0490723 106.265L100 56.926L114.635 64.2682Z" fill="#FBDDAB"/>
<path d="M157.318 87.8121L57.3667 137.151V134.704L157.318 85.3647V87.8121Z" fill="#D2A782"/>
<path d="M57.3667 137.151L42.6824 129.809V127.362L57.3667 134.704V137.151Z" fill="#EEBC92"/>
<path d="M157.318 85.3647L57.3667 134.704L42.6824 127.362L142.633 78.0226L157.318 85.3647Z" fill="#FBDDAB"/>
<path d="M136.613 77.4353L36.6619 126.775V124.327L136.613 74.9879V77.4353Z" fill="#D2A782"/>
<path d="M36.6618 126.775L21.9775 119.432V116.985L36.6618 124.327V126.775Z" fill="#EEBC92"/>
<path d="M136.613 74.9879L36.6618 124.327L21.9775 116.985L121.978 67.6458L136.613 74.9879Z" fill="#FBDDAB"/>
<path d="M180.078 99.0211L80.1274 148.36V145.913L180.078 96.5737V99.0211Z" fill="#D2A782"/>
<path d="M80.1273 148.36L65.4919 141.067V138.62L80.1273 145.913V148.36Z" fill="#EEBC92"/>
<path d="M180.078 96.5737L80.1273 145.913L65.4919 138.571L165.443 89.2316L180.078 96.5737Z" fill="#FBDDAB"/>
<path d="M199.951 108.908L99.9998 158.248V155.8L199.951 106.461V108.908Z" fill="#D2A782"/>
<path d="M99.9999 158.248L85.3645 150.906V148.458L99.9999 155.8V158.248Z" fill="#EEBC92"/>
<path d="M199.951 106.461L99.9999 155.8L85.3645 148.458L185.316 99.1189L199.951 106.461Z" fill="#FBDDAB"/>
<path d="M125.795 81.0573L41.2139 121.145V56.1919L125.795 16.1038V81.0573Z" fill="#17A2B8"/>
<path d="M41.2139 121.145L9.00635 105.042V40.1371L41.2139 56.1919V121.145Z" fill="#148092"/>
<path d="M125.795 16.1039L41.2139 56.192L9.00635 40.0882L93.5879 0.00012207L125.795 16.1039Z" fill="#34B3C7"/>
<path d="M41.2139 56.2898L9.00635 40.186V40.1371L9.10423 40.0881L41.2139 56.143V56.2898Z" fill="#F0C673"/>
<path d="M41.2139 56.2898L125.795 16.2016V16.1038H125.697L41.2139 56.1429V56.2898Z" fill="#F0DAAF"/>
<path d="M26.4318 65.541L21.7817 63.2405V46.5983L26.4318 48.8988V65.541Z" fill="#455A64"/>
<path d="M21.7817 46.5981L26.4318 48.8987L111.307 8.85949L106.657 6.55896L21.7817 46.5981Z" fill="#455A64"/>
<path d="M19.9218 53.7445L11.7965 51.395L10.8665 46.3044L18.9918 48.7029L19.9218 53.7445Z" fill="white"/>
<path d="M12.9713 50.8566L12.7755 50.8077L12.1392 47.5282L12.3349 47.5771L12.9713 50.8566Z" fill="#5B677E"/>
<path d="M13.167 50.9545L13.0691 50.9056L12.4817 47.6261L12.5796 47.675L13.167 50.9545Z" fill="#5B677E"/>
<path d="M13.4117 51.0035H13.3138L12.6775 47.724H12.7754L13.4117 51.0035Z" fill="#5B677E"/>
<path d="M13.6566 51.1014L13.5587 51.0524L12.9224 47.7729H13.0202L13.6566 51.1014Z" fill="#5B677E"/>
<path d="M13.8523 51.1503L13.7544 51.1014L13.167 47.8219L13.2649 47.8709L13.8523 51.1503Z" fill="#5B677E"/>
<path d="M14.1949 51.2482L13.9991 51.1993L13.3628 47.9198L13.5586 47.9688L14.1949 51.2482Z" fill="#5B677E"/>
<path d="M15.076 51.493H14.9781L14.3418 48.1646L14.4397 48.2135L15.076 51.493Z" fill="#5B677E"/>
<path d="M15.3206 51.5418H15.2227L14.5864 48.2623H14.6843L15.3206 51.5418Z" fill="#5B677E"/>
<path d="M15.6142 51.6397L15.4184 51.5908L14.8311 48.3113L15.0268 48.3602L15.6142 51.6397Z" fill="#5B677E"/>
<path d="M14.5377 51.3461L14.3419 51.2972L13.7056 48.0177L13.9014 48.0667L14.5377 51.3461Z" fill="#5B677E"/>
<path d="M14.8313 51.4439L14.6355 51.395L14.0481 48.0665L14.2439 48.1644L14.8313 51.4439Z" fill="#5B677E"/>
<path d="M15.9571 51.7376L15.7613 51.6887L15.125 48.4092L15.3208 48.4581L15.9571 51.7376Z" fill="#5B677E"/>
<path d="M16.2017 51.8355L16.1039 51.7866L15.4675 48.5071L15.5654 48.556L16.2017 51.8355Z" fill="#5B677E"/>
<path d="M16.3974 51.8845L16.2995 51.8355L15.7122 48.556L15.8101 48.605L16.3974 51.8845Z" fill="#5B677E"/>
<path d="M16.6424 51.9334H16.5445L15.9082 48.6539H16.0061L16.6424 51.9334Z" fill="#5B677E"/>
<path d="M16.887 52.0313L16.7891 51.9824L16.1528 48.7029L16.2507 48.7518L16.887 52.0313Z" fill="#5B677E"/>
<path d="M17.1806 52.1292L16.9848 52.0803L16.3975 48.7518L16.5932 48.8497L17.1806 52.1292Z" fill="#5B677E"/>
<path d="M18.0617 52.374L17.9638 52.325L17.3765 49.0455L17.4744 49.0945L18.0617 52.374Z" fill="#5B677E"/>
<path d="M18.3065 52.4229H18.2086L17.5723 49.1434H17.6702L18.3065 52.4229Z" fill="#5B677E"/>
<path d="M18.6492 52.5208L18.4535 52.4719L17.8171 49.1924L18.0129 49.2413L18.6492 52.5208Z" fill="#5B677E"/>
<path d="M17.5233 52.2271L17.3275 52.1292L16.6912 48.8497L16.887 48.9476L17.5233 52.2271Z" fill="#5B677E"/>
<path d="M17.8661 52.325L17.6702 52.2271L17.0339 48.9476L17.2297 49.0455L17.8661 52.325Z" fill="#5B677E"/>
<path d="M38.9133 62.5062L28.7322 57.3667V52.5209L38.9133 57.6114V62.5062Z" fill="white"/>
<path fill-rule="evenodd" clip-rule="evenodd" d="M14.0479 102.398V106.021C14.0479 106.119 13.95 106.167 13.8031 106.119L10.181 104.307C10.0342 104.258 9.93628 104.063 9.93628 103.965V100.343C9.93628 100.196 10.0342 100.147 10.181 100.196L13.8031 102.007C13.95 102.056 14.0479 102.252 14.0479 102.398ZM13.8521 102.496C13.8521 102.35 13.7542 102.154 13.6074 102.105L10.3768 100.49C10.23 100.441 10.1321 100.49 10.1321 100.587V103.818C10.1321 103.965 10.23 104.161 10.3768 104.21L13.6074 105.825C13.7542 105.923 13.8521 105.825 13.8521 105.727V102.496Z" fill="#5B677E"/>
<path d="M11.3561 104.112L11.1113 104.014V101.517L11.3561 101.615V104.112Z" fill="#5B677E"/>
<path d="M11.209 101.224L10.9153 101.713L11.209 101.86L11.5516 102.007L11.209 101.224Z" fill="#5B677E"/>
<path d="M12.8735 104.895L12.6777 104.797V102.301L12.8735 102.399V104.895Z" fill="#5B677E"/>
<path d="M12.7755 102.007L12.4329 102.496L12.7755 102.643L13.0692 102.79L12.7755 102.007Z" fill="#5B677E"/>
<path d="M10.5728 104.063V103.867L13.4117 105.286V105.482L10.5728 104.063Z" fill="#5B677E"/>
<path fill-rule="evenodd" clip-rule="evenodd" d="M18.9427 104.797V108.419C18.9427 108.566 18.7958 108.615 18.6979 108.566L15.0758 106.755C14.9289 106.657 14.8311 106.51 14.8311 106.363V102.741C14.8311 102.643 14.9289 102.545 15.0758 102.643L18.6979 104.454C18.7958 104.503 18.9427 104.699 18.9427 104.797ZM18.7469 104.895C18.7469 104.797 18.6 104.601 18.5021 104.552L15.2716 102.937C15.1247 102.839 14.9779 102.888 14.9779 103.035V106.265C14.9779 106.412 15.1247 106.608 15.2716 106.657L18.5021 108.272C18.6 108.321 18.7469 108.272 18.7469 108.125V104.895Z" fill="#5B677E"/>
<path d="M17.7193 106.265C17.4256 106.118 17.1809 105.727 17.1809 105.433V104.16L18.2578 104.699V105.971C18.2578 106.265 18.013 106.412 17.7193 106.265Z" fill="#5B677E"/>
<path d="M17.7683 107.587L17.6704 107.489V106.167L17.7683 106.216V107.587Z" fill="#5B677E"/>
<path d="M17.1809 107.342C17.1809 107.293 17.2299 107.244 17.2788 107.293L18.1599 107.734C18.2088 107.734 18.2578 107.832 18.2578 107.88L17.1809 107.342Z" fill="#5B677E"/>
<path fill-rule="evenodd" clip-rule="evenodd" d="M16.5446 103.818V105.139C16.5446 105.433 16.2999 105.531 16.0062 105.384C15.7125 105.237 15.4678 104.895 15.4678 104.552V103.279L16.5446 103.818ZM16.3978 103.867L15.5167 103.426V104.601C15.5167 104.846 15.7615 105.139 15.9572 105.286C16.202 105.384 16.3978 105.286 16.3978 105.042V103.867Z" fill="#5B677E"/>
<path d="M16.0552 106.706L15.9573 106.657V105.335L16.0552 105.384V106.706Z" fill="#5B677E"/>
<path d="M15.4678 106.51C15.4678 106.412 15.5167 106.412 15.5657 106.412L16.4467 106.853C16.4957 106.901 16.5446 106.999 16.5446 107.048L15.4678 106.51Z" fill="#5B677E"/>
<path fill-rule="evenodd" clip-rule="evenodd" d="M23.7888 107.244V110.866C23.7888 111.013 23.6909 111.062 23.5441 111.013L19.922 109.202C19.7751 109.104 19.6772 108.957 19.6772 108.811V105.189C19.6772 105.042 19.7751 104.993 19.922 105.091L23.5441 106.902C23.6909 106.951 23.7888 107.097 23.7888 107.244ZM23.5931 107.342C23.5931 107.195 23.4952 107.049 23.3483 107L20.1178 105.384C19.9709 105.286 19.873 105.335 19.873 105.482V108.713C19.873 108.86 19.9709 109.006 20.1178 109.104L23.3483 110.72C23.4952 110.769 23.5931 110.72 23.5931 110.573V107.342Z" fill="#5B677E"/>
<path d="M20.9989 107.587C21.0968 107.555 21.2273 107.571 21.3905 107.636C21.5373 107.734 21.6841 107.832 21.782 107.979C21.8799 107.946 22.0105 107.962 22.1736 108.028C22.3205 108.126 22.4673 108.224 22.5652 108.37C22.6957 108.338 22.8263 108.354 22.9568 108.419C22.9894 108.452 23.022 108.468 23.0547 108.468C23.0057 107.783 22.4673 107.049 21.782 106.706C21.1457 106.364 20.6073 106.608 20.5583 107.196C20.5583 107.228 20.5747 107.245 20.6073 107.245C20.7541 107.342 20.901 107.44 20.9989 107.587Z" fill="#5B677E"/>
<path d="M21.5375 109.594C21.3417 109.496 21.1948 109.251 21.1948 109.055V109.006C21.1948 108.974 21.2111 108.957 21.2438 108.957C21.2927 109.006 21.3417 109.055 21.3417 109.104V109.153C21.3417 109.251 21.4396 109.398 21.5375 109.447C21.6354 109.496 21.7333 109.447 21.7333 109.349V106.559C21.7333 106.494 21.7496 106.477 21.7822 106.51C21.8311 106.51 21.8801 106.559 21.8801 106.608V109.398C21.8801 109.594 21.7333 109.692 21.5375 109.594Z" fill="#5B677E"/>
<path d="M95.5457 4.45433L86.9798 8.71278L86.7351 8.56595L95.3009 4.3075L95.5457 4.45433Z" fill="#5B677E"/>
<path d="M96.4267 4.84607L87.8608 9.15346L87.5671 9.00662L96.133 4.74817L96.4267 4.84607Z" fill="#5B677E"/>
<path d="M97.2587 5.28649L88.6929 9.54494L88.3992 9.44703L96.965 5.13965L97.2587 5.28649Z" fill="#5B677E"/>
<path d="M98.0907 5.67809L89.5249 9.98549L89.2312 9.83864L97.797 5.5802L98.0907 5.67809Z" fill="#5B677E"/>
<path d="M44.3465 46.843L35.7806 51.1504L35.5359 51.0036L44.1017 46.7451L44.3465 46.843Z" fill="#5B677E"/>
<path d="M45.1787 47.2836L36.6129 51.591L36.3682 51.4441L44.934 47.1367L45.1787 47.2836Z" fill="#5B677E"/>
<path d="M46.0597 47.724L37.4939 51.9824L37.2002 51.8356L45.766 47.5771L46.0597 47.724Z" fill="#5B677E"/>
<path d="M46.8917 48.1156L38.3259 52.423L38.0322 52.2761L46.5981 47.9688L46.8917 48.1156Z" fill="#5B677E"/>
<path opacity="0.1" d="M95.1541 149.144L125.795 143.074L199.951 106.461L185.316 99.119L95.1541 149.144Z" fill="black"/>
<path d="M162.995 91.9237L137.689 104.601V88.1058L162.995 75.4773V91.9237Z" fill="#17A2B8"/>
<path d="M137.69 104.601L112.433 91.9237V75.4773L137.69 88.1058V104.601Z" fill="#D8B268"/>
<path d="M162.996 75.4772L137.69 88.1057L112.433 75.4772L137.69 62.8488L162.996 75.4772Z" fill="#34B3C7"/>
<path d="M137.69 88.1547L112.433 75.5262V75.4773L112.482 75.4283L137.69 88.0568V88.1547Z" fill="#F0C673"/>
<path d="M137.689 88.1547L162.995 75.5262V75.4773L162.946 75.4283L137.689 88.0568V88.1547Z" fill="#F0DAAF"/>
<path d="M137.689 91.2384V88.1057C137.689 88.1057 136.27 89.2315 137.689 104.601V100.636C137.151 92.3152 137.445 94.7626 137.689 91.2384Z" fill="#CA9761"/>
<path d="M137.689 103.231V88.5952C137.445 92.1194 137.151 94.9095 137.689 103.231Z" fill="#AC7C47"/>
<path d="M126.089 88.889L122.467 87.0779V80.5679L126.089 82.3789V88.889Z" fill="#FBF2D2"/>
<path d="M122.467 80.5678L126.089 82.3789L151.64 69.7993L147.969 67.9393L122.467 80.5678Z" fill="#455A64"/>
<path d="M120.998 86.1479L114.635 84.3368L113.852 80.3231L120.264 82.1831L120.998 86.1479Z" fill="white"/>
<path d="M115.516 83.8964H115.369L114.88 81.3021L115.027 81.3511L115.516 83.8964Z" fill="#5B677E"/>
<path d="M115.712 83.9942L115.614 83.9453L115.125 81.3511L115.223 81.4L115.712 83.9942Z" fill="#5B677E"/>
<path d="M115.908 84.0432L115.81 83.9942L115.321 81.4L115.418 81.449L115.908 84.0432Z" fill="#5B677E"/>
<path d="M116.055 84.0921L116.006 84.0432L115.516 81.4979H115.565L116.055 84.0921Z" fill="#5B677E"/>
<path d="M116.25 84.1411L116.152 84.0922L115.663 81.5469H115.761L116.25 84.1411Z" fill="#5B677E"/>
<path d="M116.495 84.1901L116.348 84.1411L115.859 81.5958L116.005 81.6448L116.495 84.1901Z" fill="#5B677E"/>
<path d="M117.181 84.3859H117.132L116.642 81.7916L116.691 81.8406L117.181 84.3859Z" fill="#5B677E"/>
<path d="M117.376 84.4347H117.278L116.789 81.8405L116.886 81.8894L117.376 84.4347Z" fill="#5B677E"/>
<path d="M117.621 84.5327L117.474 84.4837L116.984 81.8895L117.131 81.9385L117.621 84.5327Z" fill="#5B677E"/>
<path d="M116.74 84.2879L116.593 84.239L116.104 81.6448L116.25 81.6937L116.74 84.2879Z" fill="#5B677E"/>
<path d="M117.034 84.3369L116.838 84.2879L116.397 81.7427L116.544 81.7916L117.034 84.3369Z" fill="#5B677E"/>
<path d="M117.866 84.6306L117.719 84.5816L117.229 81.9874L117.376 82.0364L117.866 84.6306Z" fill="#5B677E"/>
<path d="M118.061 84.6794L118.012 84.6305L117.523 82.0363L117.572 82.0852L118.061 84.6794Z" fill="#5B677E"/>
<path d="M118.258 84.7284L118.16 84.6794L117.67 82.0852L117.768 82.1342L118.258 84.7284Z" fill="#5B677E"/>
<path d="M118.404 84.7774L118.355 84.7285L117.866 82.1832H117.915L118.404 84.7774Z" fill="#5B677E"/>
<path d="M118.6 84.8263L118.551 84.7773L118.061 82.2321H118.11L118.6 84.8263Z" fill="#5B677E"/>
<path d="M118.844 84.8752L118.697 84.8263L118.208 82.281L118.355 82.33L118.844 84.8752Z" fill="#5B677E"/>
<path d="M119.53 85.071H119.481L118.992 82.4768L119.09 82.5257L119.53 85.071Z" fill="#5B677E"/>
<path d="M119.726 85.12H119.677L119.188 82.5258L119.236 82.5747L119.726 85.12Z" fill="#5B677E"/>
<path d="M119.971 85.2179L119.824 85.1689L119.334 82.5747L119.481 82.6237L119.971 85.2179Z" fill="#5B677E"/>
<path d="M119.138 84.9731L118.943 84.9242L118.453 82.33L118.649 82.3789L119.138 84.9731Z" fill="#5B677E"/>
<path d="M119.383 85.0221L119.236 84.9731L118.747 82.4279L118.893 82.4768L119.383 85.0221Z" fill="#5B677E"/>
<path d="M135.927 93.0495L127.9 89.0358V85.2179L135.927 89.2316V93.0495Z" fill="white"/>
<path fill-rule="evenodd" clip-rule="evenodd" d="M116.397 89.4274V92.3153C116.397 92.4132 116.299 92.4622 116.201 92.4132L113.363 90.9448C113.265 90.8958 113.167 90.798 113.167 90.7001V87.8121C113.167 87.7143 113.265 87.6653 113.363 87.7632L116.201 89.1827C116.299 89.2316 116.397 89.3295 116.397 89.4274ZM116.25 89.5253C116.25 89.4274 116.153 89.2806 116.055 89.2316L113.509 87.959C113.411 87.91 113.314 87.959 113.314 88.0569V90.6022C113.314 90.7001 113.411 90.8469 113.509 90.8958L116.055 92.1685C116.153 92.2174 116.25 92.1685 116.25 92.0706V89.5253Z" fill="#5B677E"/>
<path d="M114.244 90.7979L114.097 90.7489V88.791L114.244 88.8889V90.7979Z" fill="#5B677E"/>
<path d="M114.146 88.5463L113.901 88.9378L114.146 89.0357L114.39 89.1826L114.146 88.5463Z" fill="#5B677E"/>
<path d="M115.468 91.4342L115.272 91.3363V89.3784L115.468 89.4763V91.4342Z" fill="#5B677E"/>
<path d="M115.369 89.1825L115.125 89.5251L115.369 89.672L115.614 89.7699L115.369 89.1825Z" fill="#5B677E"/>
<path d="M113.656 90.798V90.6022L115.859 91.728V91.8748L113.656 90.798Z" fill="#5B677E"/>
<path fill-rule="evenodd" clip-rule="evenodd" d="M120.215 91.3853V94.2242C120.215 94.3221 120.117 94.3711 120.019 94.3221L117.18 92.9026C117.082 92.8537 116.985 92.7068 116.985 92.609V89.77C116.985 89.6232 117.082 89.6231 117.18 89.6721L120.019 91.0916C120.117 91.1405 120.215 91.2384 120.215 91.3853ZM120.068 91.4342C120.068 91.3363 119.97 91.1895 119.873 91.1405L117.327 89.8679C117.229 89.8189 117.131 89.8679 117.131 89.9658V92.5111C117.131 92.609 117.229 92.7558 117.327 92.8047L119.873 94.0774C119.97 94.1263 120.068 94.0774 120.068 93.9795V91.4342Z" fill="#5B677E"/>
<path d="M119.285 92.5112C119.041 92.3643 118.845 92.0706 118.845 91.8259V90.8469L119.726 91.2875V92.2664C119.726 92.5112 119.53 92.6091 119.285 92.5112Z" fill="#5B677E"/>
<path d="M119.334 93.5389L119.236 93.4899V92.4131L119.334 92.462V93.5389Z" fill="#5B677E"/>
<path d="M118.845 93.3433C118.845 93.2943 118.894 93.2943 118.943 93.2943L119.628 93.637C119.677 93.6859 119.726 93.7348 119.726 93.7838L118.845 93.3433Z" fill="#5B677E"/>
<path fill-rule="evenodd" clip-rule="evenodd" d="M118.355 90.6021V91.6301C118.355 91.8258 118.159 91.9237 117.915 91.8258C117.67 91.7279 117.474 91.4343 117.474 91.1895V90.1616L118.355 90.6021ZM118.306 90.6511L117.572 90.3085V91.2385C117.572 91.4343 117.768 91.6301 117.964 91.728C118.11 91.8258 118.306 91.7769 118.306 91.5811V90.6511Z" fill="#5B677E"/>
<path d="M117.964 92.8537L117.866 92.8047V91.7769L117.964 91.8258V92.8537Z" fill="#5B677E"/>
<path d="M117.474 92.7068C117.474 92.6089 117.523 92.6089 117.572 92.6579L118.257 92.9516C118.306 93.0005 118.355 93.0495 118.355 93.0984L117.474 92.7068Z" fill="#5B677E"/>
<path fill-rule="evenodd" clip-rule="evenodd" d="M124.033 93.2941V96.1331C124.033 96.231 123.935 96.2799 123.837 96.231L120.999 94.8115C120.901 94.7626 120.803 94.6157 120.803 94.5178V91.6789C120.803 91.581 120.901 91.532 120.999 91.581L123.837 93.0005C123.935 93.0494 124.033 93.1962 124.033 93.2941ZM123.886 93.3431C123.886 93.2452 123.789 93.0983 123.691 93.0494L121.145 91.7768C121.047 91.7278 120.95 91.7768 120.95 91.8747V94.4199C120.95 94.5178 121.047 94.6647 121.145 94.7136L123.691 95.9863C123.789 96.0352 123.886 95.9863 123.886 95.8884V93.3431Z" fill="#5B677E"/>
<path d="M121.831 93.5389C121.929 93.5063 122.043 93.5226 122.173 93.5879C122.271 93.6532 122.369 93.7347 122.467 93.8326C122.565 93.8 122.663 93.8163 122.761 93.8816C122.891 93.9468 123.005 94.0447 123.103 94.1753C123.169 94.1426 123.266 94.1426 123.397 94.1753C123.43 94.2079 123.446 94.2242 123.446 94.2242C123.397 93.7347 123.005 93.0984 122.467 92.8537C121.978 92.56 121.537 92.7558 121.488 93.2453C121.521 93.2453 121.537 93.2616 121.537 93.2942C121.667 93.3595 121.765 93.4411 121.831 93.5389Z" fill="#5B677E"/>
<path d="M122.271 95.1054C122.124 95.0565 121.978 94.8607 121.978 94.7138V94.6649C122.01 94.6322 122.043 94.6159 122.075 94.6159C122.075 94.6649 122.124 94.6649 122.124 94.7138V94.7628C122.124 94.8607 122.173 94.9586 122.271 95.0075C122.369 95.0564 122.418 95.0075 122.418 94.9096V92.707C122.418 92.6743 122.434 92.6743 122.467 92.707C122.516 92.707 122.516 92.7559 122.516 92.7559V94.9586C122.516 95.1054 122.418 95.2033 122.271 95.1054Z" fill="#5B677E"/>
<path d="M139.011 65.6388L132.305 68.9672L132.11 68.8693L138.815 65.5409L139.011 65.6388Z" fill="#5B677E"/>
<path d="M139.696 65.9325L132.991 69.3099L132.746 69.212L139.501 65.8346L139.696 65.9325Z" fill="#5B677E"/>
<path d="M140.333 66.275L133.627 69.6524L133.431 69.5545L140.137 66.1771L140.333 66.275Z" fill="#5B677E"/>
<path d="M141.018 66.6177L134.312 69.9951L134.067 69.8482L140.822 66.5198L141.018 66.6177Z" fill="#5B677E"/>
<path d="M140.186 80.7637L133.48 84.1411L133.235 84.0432L139.99 80.6658L140.186 80.7637Z" fill="#5B677E"/>
<path d="M140.822 81.1062L134.116 84.4836L133.92 84.3367L140.626 81.0083L140.822 81.1062Z" fill="#5B677E"/>
<path d="M141.507 81.4489L134.801 84.7773L134.557 84.6794L141.311 81.302L141.507 81.4489Z" fill="#5B677E"/>
<path d="M142.144 81.7426L135.438 85.1199L135.242 85.022L141.948 81.6447L142.144 81.7426Z" fill="#5B677E"/>
<path d="M190.308 106.608L165.051 119.237V102.741L190.308 90.1127V106.608Z" fill="#17A2B8"/>
<path d="M165.052 119.237L139.746 106.608V90.1127L165.052 102.741V119.237Z" fill="#148092"/>
<path d="M190.308 90.1126L165.052 102.741L139.746 90.1126L165.052 77.4841L190.308 90.1126Z" fill="#34B3C7"/>
<path d="M165.052 102.79L139.746 90.1616V90.1127L139.795 90.0637L165.052 102.692V102.79Z" fill="#F0C673"/>
<path d="M165.051 102.79L190.308 90.1616V90.1127L190.259 90.0637L165.051 102.692V102.79Z" fill="#F0DAAF"/>
<path d="M153.402 103.524L149.78 101.713V95.2032L153.402 97.0143V103.524Z" fill="#455A64"/>
<path d="M149.78 95.2032L153.402 97.0143L178.953 84.4347L175.281 82.5747L149.78 95.2032Z" fill="#455A64"/>
<path d="M148.311 100.832L141.948 98.9722L141.214 95.0074L147.577 96.8185L148.311 100.832Z" fill="white"/>
<path d="M142.878 98.5807L142.682 98.5317L142.193 95.9375L142.389 95.9864L142.878 98.5807Z" fill="#5B677E"/>
<path d="M143.025 98.6296L142.976 98.5807L142.487 96.0354H142.536L143.025 98.6296Z" fill="#5B677E"/>
<path d="M143.221 98.6786L143.123 98.6296L142.633 96.0844H142.731L143.221 98.6786Z" fill="#5B677E"/>
<path d="M143.416 98.7275L143.319 98.6786L142.829 96.1333H142.927L143.416 98.7275Z" fill="#5B677E"/>
<path d="M143.564 98.7765L143.515 98.7275L143.025 96.1823H143.074L143.564 98.7765Z" fill="#5B677E"/>
<path d="M143.808 98.8254L143.661 98.7765L143.172 96.2312L143.319 96.2802L143.808 98.8254Z" fill="#5B677E"/>
<path d="M144.542 99.0702L144.445 99.0212L143.955 96.427L144.053 96.4759L144.542 99.0702Z" fill="#5B677E"/>
<path d="M144.689 99.1191L144.64 99.0702L144.151 96.476L144.2 96.5249L144.689 99.1191Z" fill="#5B677E"/>
<path d="M144.934 99.1681L144.787 99.1191L144.298 96.5739H144.444L144.934 99.1681Z" fill="#5B677E"/>
<path d="M144.102 98.9233L143.906 98.8744L143.466 96.2802L143.612 96.3291L144.102 98.9233Z" fill="#5B677E"/>
<path d="M144.347 98.9723H144.2L143.71 96.3781L143.857 96.427L144.347 98.9723Z" fill="#5B677E"/>
<path d="M145.228 99.266L145.081 99.217L144.591 96.6228L144.738 96.6718L145.228 99.266Z" fill="#5B677E"/>
<path d="M145.374 99.3149L145.325 99.266L144.836 96.7207H144.885L145.374 99.3149Z" fill="#5B677E"/>
<path d="M145.57 99.3639L145.472 99.3149L144.983 96.7697H145.081L145.57 99.3639Z" fill="#5B677E"/>
<path d="M145.766 99.4127L145.668 99.3638L145.179 96.8185H145.277L145.766 99.4127Z" fill="#5B677E"/>
<path d="M145.913 99.4618L145.864 99.4128L145.375 96.8676H145.423L145.913 99.4618Z" fill="#5B677E"/>
<path d="M146.207 99.5107L146.011 99.4618L145.521 96.9165L145.717 96.9654L146.207 99.5107Z" fill="#5B677E"/>
<path d="M146.892 99.7555L146.794 99.7065L146.304 97.1123L146.402 97.1613L146.892 99.7555Z" fill="#5B677E"/>
<path d="M147.039 99.8043L146.99 99.7554L146.5 97.1611L146.549 97.2101L147.039 99.8043Z" fill="#5B677E"/>
<path d="M147.332 99.8534L147.137 99.8044L146.696 97.2592H146.843L147.332 99.8534Z" fill="#5B677E"/>
<path d="M146.451 99.6085L146.304 99.5596L145.815 96.9653L145.962 97.0143L146.451 99.6085Z" fill="#5B677E"/>
<path d="M146.696 99.6575H146.549L146.059 97.0632L146.206 97.1122L146.696 99.6575Z" fill="#5B677E"/>
<path d="M163.24 107.685L155.262 103.671V99.8533L163.24 103.867V107.685Z" fill="#455A64"/>
<path fill-rule="evenodd" clip-rule="evenodd" d="M143.71 104.112V106.951C143.71 107.049 143.612 107.098 143.514 107.049L140.676 105.629C140.578 105.58 140.48 105.433 140.48 105.335V102.496C140.48 102.35 140.578 102.35 140.676 102.399L143.514 103.818C143.612 103.867 143.71 103.965 143.71 104.112ZM143.563 104.161C143.563 104.063 143.466 103.916 143.368 103.867L140.822 102.594C140.724 102.545 140.627 102.594 140.627 102.692V105.238C140.627 105.335 140.724 105.482 140.822 105.531L143.368 106.804C143.466 106.853 143.563 106.804 143.563 106.706V104.161Z" fill="#5B677E"/>
<path d="M141.557 105.482L141.41 105.384V103.426L141.557 103.524V105.482Z" fill="#5B677E"/>
<path d="M141.508 103.231L141.263 103.573L141.508 103.72L141.752 103.818L141.508 103.231Z" fill="#5B677E"/>
<path d="M142.78 106.07L142.633 105.972V104.014L142.78 104.112V106.07Z" fill="#5B677E"/>
<path d="M142.682 103.818L142.438 104.161L142.682 104.307L142.927 104.405L142.682 103.818Z" fill="#5B677E"/>
<path d="M140.969 105.433V105.238L143.221 106.363V106.559L140.969 105.433Z" fill="#5B677E"/>
<path fill-rule="evenodd" clip-rule="evenodd" d="M147.528 106.021V108.86C147.528 108.958 147.43 109.007 147.332 108.958L144.493 107.538C144.395 107.489 144.297 107.342 144.297 107.244V104.405C144.297 104.308 144.395 104.259 144.493 104.308L147.332 105.727C147.43 105.776 147.528 105.923 147.528 106.021ZM147.381 106.07C147.381 105.972 147.283 105.825 147.185 105.776L144.64 104.503C144.542 104.454 144.444 104.503 144.444 104.601V107.147C144.444 107.244 144.542 107.391 144.64 107.44L147.185 108.713C147.283 108.762 147.381 108.713 147.381 108.615V106.07Z" fill="#5B677E"/>
<path d="M146.598 107.147C146.353 107 146.157 106.706 146.157 106.461V105.482L147.039 105.923V106.902C147.039 107.147 146.843 107.244 146.598 107.147Z" fill="#5B677E"/>
<path d="M146.647 108.175L146.549 108.126V107.049L146.647 107.098V108.175Z" fill="#5B677E"/>
<path d="M146.157 107.979C146.157 107.93 146.206 107.93 146.255 107.93L146.941 108.272C146.99 108.321 147.039 108.37 147.039 108.419L146.157 107.979Z" fill="#5B677E"/>
<path fill-rule="evenodd" clip-rule="evenodd" d="M145.668 105.238V106.265C145.668 106.51 145.472 106.608 145.276 106.461C145.031 106.363 144.836 106.07 144.836 105.825V104.797L145.668 105.238ZM145.57 105.286L144.885 104.944V105.874C144.885 106.07 145.032 106.265 145.227 106.363C145.423 106.461 145.57 106.412 145.57 106.216V105.286Z" fill="#5B677E"/>
<path d="M145.325 107.489L145.178 107.44V106.412L145.325 106.461V107.489Z" fill="#5B677E"/>
<path d="M144.836 107.342C144.836 107.293 144.885 107.244 144.934 107.293L145.57 107.587C145.619 107.636 145.668 107.685 145.668 107.783L144.836 107.342Z" fill="#5B677E"/>
<path fill-rule="evenodd" clip-rule="evenodd" d="M151.346 107.93V110.768C151.346 110.866 151.297 110.915 151.15 110.866L148.311 109.447C148.213 109.398 148.115 109.251 148.115 109.153V106.314C148.115 106.216 148.213 106.167 148.311 106.216L151.15 107.636C151.297 107.685 151.346 107.832 151.346 107.93ZM151.199 107.978C151.199 107.881 151.15 107.783 151.003 107.685L148.507 106.412C148.36 106.363 148.311 106.412 148.311 106.559V109.055C148.311 109.202 148.36 109.3 148.507 109.349L151.003 110.622C151.15 110.671 151.199 110.622 151.199 110.524V107.978Z" fill="#5B677E"/>
<path d="M149.192 108.174C149.257 108.142 149.355 108.158 149.486 108.223C149.616 108.289 149.714 108.386 149.779 108.517C149.877 108.484 149.992 108.484 150.122 108.517C150.22 108.582 150.318 108.68 150.416 108.811C150.481 108.778 150.579 108.794 150.709 108.86C150.742 108.86 150.775 108.876 150.807 108.909C150.758 108.37 150.318 107.734 149.779 107.489C149.29 107.244 148.849 107.391 148.801 107.881C148.833 107.881 148.849 107.897 148.849 107.93C148.98 107.995 149.094 108.076 149.192 108.174Z" fill="#5B677E"/>
<path d="M149.584 109.741C149.437 109.692 149.339 109.496 149.339 109.349V109.3C149.339 109.267 149.356 109.267 149.388 109.3L149.437 109.349V109.398C149.437 109.496 149.486 109.594 149.584 109.643C149.682 109.692 149.731 109.643 149.731 109.545V107.342C149.731 107.31 149.747 107.31 149.78 107.342C149.829 107.342 149.878 107.391 149.878 107.44V109.643C149.878 109.79 149.731 109.839 149.584 109.741Z" fill="#5B677E"/>
<path d="M166.373 80.2742L159.618 83.6026L159.422 83.5047L166.128 80.1763L166.373 80.2742Z" fill="#5B677E"/>
<path d="M167.01 80.6168L160.304 83.9453L160.108 83.8474L166.814 80.47L167.01 80.6168Z" fill="#5B677E"/>
<path d="M167.694 80.9106L160.94 84.288L160.744 84.1901L167.45 80.8127L167.694 80.9106Z" fill="#5B677E"/>
<path d="M168.331 81.2531L161.625 84.6304L161.38 84.5325L168.135 81.1552L168.331 81.2531Z" fill="#5B677E"/>
<path d="M167.499 95.399L160.793 98.7764L160.597 98.6785L167.303 95.3011L167.499 95.399Z" fill="#5B677E"/>
<path d="M168.184 95.7417L161.429 99.1191L161.233 99.0212L167.939 95.6438L168.184 95.7417Z" fill="#5B677E"/>
<path d="M168.82 96.0842L162.115 99.4127L161.919 99.3148L168.625 95.9863L168.82 96.0842Z" fill="#5B677E"/>
<path d="M169.506 96.3779L162.751 99.7553L162.555 99.6574L169.261 96.28L169.506 96.3779Z" fill="#5B677E"/>
<path d="M159.129 117.23L95.1541 149.143V141.361L159.129 109.447V117.23Z" fill="#17A2B8"/>
<path d="M95.154 149.143L47.1853 125.208V117.425L95.154 141.361V149.143Z" fill="#D8B268"/>
<path d="M159.129 109.447L95.154 141.361L47.1853 117.425L111.111 85.5115L159.129 109.447Z" fill="#34B3C7"/>
<path d="M95.154 141.459L47.1853 117.523V117.425L47.2832 117.376L95.154 141.263V141.459Z" fill="#F0C673"/>
<path d="M95.1541 141.459L159.129 109.545V109.447L159.031 109.398L95.1541 141.263V141.459Z" fill="#F0DAAF"/>
<path d="M76.456 136.662L70.5823 133.725V129.173L76.456 132.11V136.662Z" fill="#FBF2D2"/>
<path d="M70.5823 129.173L76.456 132.109L140.773 100.294L134.899 97.3567L70.5823 129.173Z" fill="#FFF6D6"/>
<path d="M72.0996 115.125L62.5548 119.922L55.9958 116.74L65.5406 111.894L72.0996 115.125Z" fill="white"/>
<path d="M62.9464 118.6L62.7017 118.698L58.4922 116.642L58.688 116.495L62.9464 118.6Z" fill="#5B677E"/>
<path d="M63.2401 118.453L63.0933 118.502L58.8838 116.446L58.9817 116.349L63.2401 118.453Z" fill="#5B677E"/>
<path d="M63.485 118.306L63.3871 118.355L59.1287 116.3L59.2266 116.251L63.485 118.306Z" fill="#5B677E"/>
<path d="M63.7786 118.16L63.6317 118.257L59.3733 116.153L59.5201 116.104L63.7786 118.16Z" fill="#5B677E"/>
<path d="M64.0233 118.062L63.9254 118.111L59.667 116.006L59.7649 115.957L64.0233 118.062Z" fill="#5B677E"/>
<path d="M64.4148 117.866L64.1701 117.964L59.9116 115.908L60.1564 115.761L64.4148 117.866Z" fill="#5B677E"/>
<path d="M65.443 117.328L65.3451 117.376L61.0867 115.321L61.1846 115.223L65.443 117.328Z" fill="#5B677E"/>
<path d="M65.7366 117.181L65.5897 117.23L61.3313 115.174L61.4781 115.125L65.7366 117.181Z" fill="#5B677E"/>
<path d="M66.1279 116.985L65.8832 117.132L61.6248 115.027L61.8695 114.929L66.1279 116.985Z" fill="#5B677E"/>
<path d="M64.8066 117.67L64.5619 117.768L60.3035 115.712L60.5482 115.565L64.8066 117.67Z" fill="#5B677E"/>
<path d="M65.1983 117.474L64.9535 117.572L60.6951 115.516L60.9398 115.37L65.1983 117.474Z" fill="#5B677E"/>
<path d="M66.4706 116.789L66.2748 116.936L62.0164 114.831L62.2611 114.733L66.4706 116.789Z" fill="#5B677E"/>
<path d="M66.7643 116.691L66.6174 116.74L62.408 114.635L62.5059 114.586L66.7643 116.691Z" fill="#5B677E"/>
<path d="M67.0092 116.544L66.9113 116.593L62.6528 114.489L62.7997 114.44L67.0092 116.544Z" fill="#5B677E"/>
<path d="M67.3029 116.398L67.156 116.447L62.9465 114.391L63.0444 114.293L67.3029 116.398Z" fill="#5B677E"/>
<path d="M67.5478 116.251L67.4499 116.3L63.1914 114.244L63.2893 114.195L67.5478 116.251Z" fill="#5B677E"/>
<path d="M67.9391 116.055L67.6943 116.202L63.4849 114.097L63.6806 113.999L67.9391 116.055Z" fill="#5B677E"/>
<path d="M68.9674 115.566L68.8695 115.615L64.6111 113.51L64.7579 113.461L68.9674 115.566Z" fill="#5B677E"/>
<path d="M69.2609 115.419L69.1141 115.468L64.9045 113.412L65.0024 113.314L69.2609 115.419Z" fill="#5B677E"/>
<path d="M69.6526 115.223L69.4079 115.321L65.1494 113.265L65.3942 113.118L69.6526 115.223Z" fill="#5B677E"/>
<path d="M68.3311 115.859L68.0863 116.006L63.8279 113.901L64.0726 113.803L68.3311 115.859Z" fill="#5B677E"/>
<path d="M68.7224 115.663L68.4777 115.81L64.2192 113.705L64.464 113.607L68.7224 115.663Z" fill="#5B677E"/>
<path d="M84.973 119.285L72.0508 125.746L65.9324 122.663L78.8056 116.202L84.973 119.285Z" fill="white"/>
<path fill-rule="evenodd" clip-rule="evenodd" d="M139.207 112.873L142.878 114.684C143.025 114.782 143.025 114.88 142.878 114.929L139.207 116.789C139.06 116.838 138.815 116.838 138.669 116.789L134.997 114.929C134.9 114.88 134.9 114.782 134.997 114.684L138.669 112.873C138.815 112.775 139.06 112.775 139.207 112.873ZM139.207 113.069C139.06 112.971 138.815 112.971 138.669 113.069L135.389 114.684C135.242 114.733 135.242 114.88 135.389 114.929L138.669 116.593C138.815 116.642 139.06 116.642 139.207 116.593L142.486 114.929C142.633 114.88 142.633 114.733 142.486 114.684L139.207 113.069Z" fill="#5B677E"/>
<path d="M139.599 115.81L139.354 115.908L136.809 114.635L137.054 114.538L139.599 115.81Z" fill="#5B677E"/>
<path d="M136.613 114.44L136.907 114.929L137.25 114.733L137.543 114.586L136.613 114.44Z" fill="#5B677E"/>
<path d="M141.165 115.027L140.92 115.125L138.375 113.852L138.62 113.754L141.165 115.027Z" fill="#5B677E"/>
<path d="M138.179 113.656L138.473 114.146L138.816 113.95L139.109 113.803L138.179 113.656Z" fill="#5B677E"/>
<path d="M139.158 116.349L138.913 116.251L141.801 114.831L142.046 114.929L139.158 116.349Z" fill="#5B677E"/>
<path fill-rule="evenodd" clip-rule="evenodd" d="M144.151 110.377L147.822 112.237C147.969 112.286 147.969 112.384 147.822 112.482L144.151 114.293C144.004 114.391 143.759 114.391 143.661 114.293L139.941 112.482C139.843 112.384 139.843 112.286 139.941 112.237L143.661 110.377C143.759 110.328 144.004 110.328 144.151 110.377ZM144.151 110.573C144.004 110.524 143.759 110.524 143.612 110.573L140.333 112.237C140.235 112.286 140.235 112.384 140.333 112.482L143.612 114.097C143.759 114.195 144.004 114.195 144.151 114.097L147.43 112.482C147.577 112.384 147.577 112.286 147.43 112.237L144.151 110.573Z" fill="#5B677E"/>
<path d="M144.983 112.041C144.689 112.188 144.151 112.188 143.857 112.041L142.585 111.356L143.711 110.817L144.983 111.454C145.277 111.601 145.277 111.845 144.983 112.041Z" fill="#5B677E"/>
<path d="M146.353 112.628L146.207 112.726L144.885 112.041L144.983 111.943L146.353 112.628Z" fill="#5B677E"/>
<path d="M145.815 113.02C145.766 112.971 145.766 112.922 145.815 112.873L146.696 112.433C146.745 112.384 146.892 112.384 146.941 112.433L145.815 113.02Z" fill="#5B677E"/>
<path fill-rule="evenodd" clip-rule="evenodd" d="M141.948 111.698L143.27 112.335C143.563 112.482 143.563 112.726 143.27 112.873C142.927 113.069 142.438 113.069 142.144 112.873L140.822 112.237L141.948 111.698ZM141.948 111.796L141.067 112.286L142.242 112.873C142.486 112.971 142.878 112.971 143.123 112.873C143.368 112.726 143.368 112.531 143.123 112.433L141.948 111.796Z" fill="#5B677E"/>
<path d="M144.64 113.509L144.494 113.558L143.123 112.873L143.27 112.824L144.64 113.509Z" fill="#5B677E"/>
<path d="M144.102 113.852C144.004 113.852 144.004 113.754 144.102 113.754L144.934 113.314C145.032 113.265 145.13 113.265 145.228 113.314L144.102 113.852Z" fill="#5B677E"/>
<path fill-rule="evenodd" clip-rule="evenodd" d="M149.094 107.881L152.766 109.741C152.912 109.79 152.912 109.936 152.766 109.985L149.094 111.845C148.948 111.894 148.703 111.894 148.605 111.845L144.885 109.985C144.787 109.936 144.787 109.79 144.885 109.741L148.605 107.881C148.703 107.832 148.948 107.832 149.094 107.881ZM149.094 108.076C148.948 108.027 148.703 108.027 148.605 108.076L145.325 109.741C145.179 109.79 145.179 109.936 145.325 109.985L148.605 111.65C148.703 111.698 148.948 111.698 149.094 111.65L152.374 109.985C152.521 109.936 152.521 109.79 152.374 109.741L149.094 108.076Z" fill="#5B677E"/>
<path d="M148.018 110.181C148.018 110.083 148.099 110.002 148.262 109.936C148.409 109.838 148.605 109.79 148.801 109.79C148.833 109.692 148.915 109.61 149.045 109.545C149.192 109.447 149.388 109.398 149.584 109.398C149.617 109.3 149.698 109.202 149.829 109.104C149.861 109.104 149.91 109.104 149.975 109.104C149.241 108.762 148.164 108.811 147.528 109.153C146.843 109.496 146.794 109.985 147.381 110.377C147.414 110.344 147.447 110.328 147.479 110.328C147.626 110.23 147.822 110.23 148.018 110.181Z" fill="#5B677E"/>
<path d="M150.318 110.817C150.122 110.915 149.829 110.915 149.633 110.817L149.535 110.768C149.502 110.736 149.502 110.719 149.535 110.719C149.584 110.671 149.682 110.671 149.682 110.719H149.78C149.878 110.817 150.073 110.817 150.171 110.719C150.269 110.671 150.269 110.573 150.171 110.524L147.332 109.104C147.267 109.072 147.267 109.055 147.332 109.055C147.332 109.006 147.43 109.006 147.479 109.055L150.318 110.475C150.514 110.573 150.514 110.719 150.318 110.817Z" fill="#5B677E"/>
<path d="M112.971 88.1546L102.154 93.5878L101.811 93.441L112.628 88.0078L112.971 88.1546Z" fill="#5B677E"/>
<path d="M114.048 88.6931L103.23 94.1263L102.888 93.9305L113.705 88.5463L114.048 88.6931Z" fill="#5B677E"/>
<path d="M115.125 89.2316L104.258 94.6647L103.916 94.469L114.782 89.0847L115.125 89.2316Z" fill="#5B677E"/>
<path d="M116.201 89.77L105.335 95.2032L104.992 95.0074L115.859 89.5742L116.201 89.77Z" fill="#5B677E"/>
<path d="M101.762 131.669L90.8956 137.053L90.553 136.906L101.419 131.473L101.762 131.669Z" fill="#5B677E"/>
<path d="M102.79 132.159L91.9722 137.592L91.6296 137.445L102.496 132.012L102.79 132.159Z" fill="#5B677E"/>
<path d="M103.867 132.697L93.0497 138.13L92.707 137.983L103.524 132.55L103.867 132.697Z" fill="#5B677E"/>
<path d="M104.944 133.235L94.0776 138.669L93.7839 138.473L104.601 133.089L104.944 133.235Z" fill="#5B677E"/>
<path opacity="0.1" d="M13.5095 126.774L21.9775 126.236L43.1718 136.662V132.599L13.5095 117.964V126.774Z" fill="black"/>
<path opacity="0.1" d="M56.8281 148.067L65.345 147.528L86.5393 157.954V153.891L56.8281 139.256V148.067Z" fill="black"/>
<path d="M144.934 105.874L83.4558 136.075V100.049L144.934 69.8973V105.874Z" fill="#17A2B8"/>
<path d="M83.4558 136.074L47.4792 118.062V82.0852L83.4558 100.098V136.074Z" fill="#148092"/>
<path d="M144.934 69.8974L83.4558 100.098L47.4792 82.0364L108.957 51.8846L144.934 69.8974Z" fill="#34B3C7"/>
<path d="M83.4558 100.147L47.4792 82.1341V82.0852L47.5282 82.0363L83.4558 100V100.147Z" fill="#F0C673"/>
<path d="M83.4558 100.147L144.934 69.9951V69.8972L144.885 69.8483L83.4558 100V100.147Z" fill="#F0DAAF"/>
<path d="M66.9114 110.524L61.7229 107.93V89.3295L66.9114 91.9237V110.524Z" fill="#455A64"/>
<path d="M61.7229 89.3296L66.9114 91.9238L128.781 61.7721L123.544 59.1779L61.7229 89.3296Z" fill="#455A64"/>
<path d="M59.6671 97.308L50.6118 94.6649L49.5349 89.0359L58.5902 91.6791L59.6671 97.308Z" fill="white"/>
<path d="M51.8843 94.1264L51.6396 94.0285L50.9543 90.3574L51.1991 90.4553L51.8843 94.1264Z" fill="#5B677E"/>
<path d="M52.1289 94.1756H52.031L51.3457 90.5045H51.4436L52.1289 94.1756Z" fill="#5B677E"/>
<path d="M52.3737 94.2734L52.2758 94.2244L51.5906 90.5533L51.6885 90.6023L52.3737 94.2734Z" fill="#5B677E"/>
<path d="M52.6673 94.3223H52.5205L51.8352 90.6512H51.9331L52.6673 94.3223Z" fill="#5B677E"/>
<path d="M52.9119 94.4202L52.814 94.3713L52.0798 90.7002L52.2267 90.7491L52.9119 94.4202Z" fill="#5B677E"/>
<path d="M53.2548 94.5181L53.059 94.4692L52.3738 90.7981L52.5696 90.847L53.2548 94.5181Z" fill="#5B677E"/>
<path d="M54.2336 94.8118L54.1357 94.7629L53.4504 91.0918L53.5483 91.1407L54.2336 94.8118Z" fill="#5B677E"/>
<path d="M54.5274 94.8608H54.3806L53.6953 91.1897H53.7932L54.5274 94.8608Z" fill="#5B677E"/>
<path d="M54.8699 95.0076L54.6742 94.9097L53.9399 91.2386L54.1847 91.3365L54.8699 95.0076Z" fill="#5B677E"/>
<path d="M53.6463 94.616L53.4016 94.5671L52.7163 90.896L52.961 90.9449L53.6463 94.616Z" fill="#5B677E"/>
<path d="M53.9891 94.7139L53.7933 94.665L53.0591 90.9939L53.3038 91.0428L53.9891 94.7139Z" fill="#5B677E"/>
<path d="M55.2615 95.1055L55.0168 95.0076L54.3315 91.3365L54.5273 91.4344L55.2615 95.1055Z" fill="#5B677E"/>
<path d="M55.5062 95.1545H55.4083L54.6741 91.4834H54.8209L55.5062 95.1545Z" fill="#5B677E"/>
<path d="M55.7512 95.2524L55.6533 95.2034L54.968 91.5323L55.0659 91.5813L55.7512 95.2524Z" fill="#5B677E"/>
<path d="M55.9958 95.3012H55.8979L55.2126 91.6301H55.3105L55.9958 95.3012Z" fill="#5B677E"/>
<path d="M56.2407 95.3991L56.1428 95.3501L55.4575 91.6791L55.5554 91.728L56.2407 95.3991Z" fill="#5B677E"/>
<path d="M56.6322 95.497L56.3874 95.448L55.7021 91.777L55.9469 91.8259L56.6322 95.497Z" fill="#5B677E"/>
<path d="M57.611 95.7907L57.5131 95.7418L56.8279 92.0707L56.9258 92.1196L57.611 95.7907Z" fill="#5B677E"/>
<path d="M57.8559 95.8397H57.758L57.0728 92.1686H57.1706L57.8559 95.8397Z" fill="#5B677E"/>
<path d="M58.2476 95.9865L58.0029 95.8886L57.3176 92.2175L57.5624 92.3154L58.2476 95.9865Z" fill="#5B677E"/>
<path d="M56.9748 95.5949L56.779 95.546L56.0938 91.8749L56.2895 91.9238L56.9748 95.5949Z" fill="#5B677E"/>
<path d="M57.3663 95.6928L57.1216 95.6439L56.4363 91.9728L56.681 92.0217L57.3663 95.6928Z" fill="#5B677E"/>
<path d="M80.9104 107.098L69.5056 101.371V95.9865L80.9104 101.664V107.098Z" fill="white"/>
<path fill-rule="evenodd" clip-rule="evenodd" d="M53.1082 115.076V119.139C53.1082 119.285 52.9613 119.334 52.8145 119.237L48.8008 117.23C48.605 117.181 48.5071 116.985 48.5071 116.838V112.775C48.5071 112.629 48.605 112.58 48.8008 112.629L52.8145 114.684C52.9613 114.733 53.1082 114.929 53.1082 115.076ZM52.9124 115.174C52.9124 115.027 52.7655 114.831 52.6187 114.782L48.9966 112.971C48.8497 112.873 48.7029 112.922 48.7029 113.118V116.691C48.7029 116.887 48.8497 117.034 48.9966 117.132L52.6187 118.943C52.7655 118.992 52.9124 118.943 52.9124 118.796V115.174Z" fill="#5B677E"/>
<path d="M50.0734 117.034L49.8286 116.887V114.097L50.0734 114.244V117.034Z" fill="#5B677E"/>
<path d="M49.9266 113.803L49.584 114.342L49.9266 114.489L50.2693 114.684L49.9266 113.803Z" fill="#5B677E"/>
<path d="M51.7867 117.866L51.542 117.768V114.978L51.7867 115.125V117.866Z" fill="#5B677E"/>
<path d="M51.6887 114.685L51.2971 115.223L51.6887 115.37L52.0313 115.566L51.6887 114.685Z" fill="#5B677E"/>
<path d="M49.2412 116.985V116.74L52.3739 118.307V118.551L49.2412 116.985Z" fill="#5B677E"/>
<path fill-rule="evenodd" clip-rule="evenodd" d="M58.5413 117.817V121.831C58.5413 121.978 58.4434 122.076 58.2965 121.978L54.2339 119.971C54.087 119.873 53.9402 119.726 53.9402 119.53V115.517C53.9402 115.37 54.087 115.272 54.2339 115.37L58.2965 117.377C58.4434 117.474 58.5413 117.67 58.5413 117.817ZM58.3455 117.915C58.3455 117.768 58.1986 117.572 58.0518 117.474L54.4297 115.663C54.2828 115.614 54.1849 115.663 54.1849 115.81V119.432C54.1849 119.579 54.2828 119.775 54.4297 119.873L58.0518 121.684C58.1986 121.733 58.3455 121.684 58.3455 121.537V117.915Z" fill="#5B677E"/>
<path d="M57.2196 119.432C56.8769 119.236 56.5833 118.845 56.5833 118.502V117.034L57.8069 117.67V119.09C57.8069 119.432 57.5622 119.579 57.2196 119.432Z" fill="#5B677E"/>
<path d="M57.2687 120.901L57.1218 120.803V119.334L57.2687 119.383V120.901Z" fill="#5B677E"/>
<path d="M56.5833 120.656C56.5833 120.558 56.6322 120.509 56.7301 120.558L57.6601 121.047C57.758 121.096 57.8069 121.194 57.8069 121.243L56.5833 120.656Z" fill="#5B677E"/>
<path fill-rule="evenodd" clip-rule="evenodd" d="M55.898 116.691V118.16C55.898 118.502 55.6533 118.649 55.3106 118.453C54.968 118.307 54.6743 117.866 54.6743 117.523V116.104L55.898 116.691ZM55.7512 116.74L54.7722 116.251V117.572C54.7722 117.817 55.0169 118.16 55.2617 118.307C55.5554 118.453 55.7512 118.307 55.7512 118.062V116.74Z" fill="#5B677E"/>
<path d="M55.3595 119.922L55.2126 119.873V118.355L55.3595 118.453V119.922Z" fill="#5B677E"/>
<path d="M54.6743 119.677C54.6743 119.579 54.7233 119.579 54.8212 119.628L55.7512 120.069C55.8491 120.118 55.898 120.215 55.898 120.313L54.6743 119.677Z" fill="#5B677E"/>
<path fill-rule="evenodd" clip-rule="evenodd" d="M64.0234 120.509V124.572C64.0234 124.719 63.8766 124.768 63.7298 124.719L59.6671 122.663C59.5203 122.614 59.4224 122.418 59.4224 122.271V118.209C59.4224 118.062 59.5203 118.013 59.6671 118.111L63.7298 120.118C63.8766 120.167 64.0234 120.362 64.0234 120.509ZM63.7787 120.656C63.7787 120.46 63.6808 120.313 63.485 120.215L59.9118 118.404C59.765 118.355 59.6182 118.404 59.6182 118.551V122.173C59.6182 122.32 59.765 122.516 59.9118 122.565L63.485 124.376C63.6808 124.474 63.7787 124.425 63.7787 124.229V120.656Z" fill="#5B677E"/>
<path d="M60.8907 120.901C60.9886 120.868 61.1355 120.884 61.3312 120.95C61.4781 121.048 61.6249 121.194 61.7718 121.341C61.8697 121.309 62.0165 121.325 62.2123 121.39C62.3592 121.488 62.506 121.635 62.6528 121.782C62.7507 121.749 62.8976 121.765 63.0934 121.831C63.126 121.863 63.1586 121.88 63.1913 121.88C63.1423 121.145 62.506 120.264 61.7718 119.922C61.0376 119.53 60.4502 119.775 60.3523 120.46C60.3849 120.493 60.4176 120.509 60.4502 120.509C60.597 120.607 60.7439 120.754 60.8907 120.901Z" fill="#5B677E"/>
<path d="M61.478 123.152C61.2822 123.054 61.0864 122.761 61.0864 122.565V122.516C61.0864 122.451 61.1191 122.434 61.1843 122.467C61.2333 122.467 61.2333 122.516 61.2333 122.565V122.663C61.2333 122.761 61.3312 122.908 61.478 123.005C61.5759 123.054 61.6738 123.005 61.6738 122.859V119.726C61.7064 119.693 61.7391 119.677 61.7717 119.677C61.8207 119.726 61.8696 119.775 61.8696 119.824V122.956C61.8696 123.152 61.6738 123.25 61.478 123.152Z" fill="#5B677E"/>
<path d="M111.16 56.8284L101.566 61.6252L101.272 61.4784L110.866 56.6815L111.16 56.8284Z" fill="#5B677E"/>
<path d="M112.09 57.3177L102.545 62.0657L102.202 61.9188L111.796 57.1709L112.09 57.3177Z" fill="#5B677E"/>
<path d="M113.02 57.7583L103.475 62.5552L103.181 62.4083L112.726 57.6115L113.02 57.7583Z" fill="#5B677E"/>
<path d="M113.999 58.2478L104.405 63.0447L104.112 62.8978L113.705 58.101L113.999 58.2478Z" fill="#5B677E"/>
<path d="M86.9798 89.6232L77.435 94.42L77.1414 94.2732L86.6861 89.4763L86.9798 89.6232Z" fill="#5B677E"/>
<path d="M87.9587 90.1127L78.365 94.8606L78.0713 94.7137L87.6161 89.9658L87.9587 90.1127Z" fill="#5B677E"/>
<path d="M88.8891 90.5532L79.2954 95.3501L79.0017 95.2032L88.5954 90.4064L88.8891 90.5532Z" fill="#5B677E"/>
<path d="M89.8188 91.0426L80.2251 95.8395L79.9314 95.6926L89.5251 90.8958L89.8188 91.0426Z" fill="#5B677E"/>
</svg>
