<svg width="210" height="210" viewBox="0 0 210 210" fill="none" xmlns="http://www.w3.org/2000/svg">
<path d="M127.596 100.171L118.23 94.7317C116.739 93.8707 114.828 94.1227 113.631 95.3827L101.871 107.563C99.5609 109.957 100.107 113.884 102.984 115.543L155.526 146.035C157.206 146.875 158.172 148.156 158.256 149.626C158.34 151.075 157.479 152.503 155.925 153.532L127.512 169.912C126.105 170.836 124.236 171.361 122.325 171.445C120.435 171.571 118.524 171.256 117.033 170.521L66.0449 141.142C63.3359 139.588 62.6639 136.018 64.5959 133.603L76.1039 119.092C77.2799 117.622 79.3379 117.244 80.9549 118.189L89.9849 123.397" stroke="#263238" stroke-width="1.68" stroke-miterlimit="10" stroke-linecap="round"/>
<path d="M110.754 167.938C107.709 171.907 102.732 173.041 101.598 172.516C100.695 172.096 100.17 171.025 100.863 170.374C101.178 170.08 101.724 169.786 102.228 169.345C103.719 168.106 104.223 165.943 104.37 164.263L110.754 167.938Z" fill="#17A2B8"/>
<path opacity="0.2" d="M110.754 167.938C107.709 171.907 102.732 173.041 101.598 172.516C100.695 172.096 100.17 171.025 100.863 170.374C101.178 170.08 101.724 169.786 102.228 169.345C103.719 168.106 104.223 165.943 104.37 164.263L110.754 167.938Z" fill="black"/>
<path d="M107.52 174.007C107.541 170.815 105.336 166.93 102.585 165.313C101.136 164.452 99.8341 164.41 98.9101 165.019L95.5081 166.93L102.627 179.194L105.987 177.283C106.932 176.779 107.52 175.645 107.52 174.007Z" fill="#37474F"/>
<path d="M99.057 167.308C101.808 168.925 104.034 172.831 104.013 176.023C103.992 179.215 101.745 180.496 98.973 178.879C96.222 177.262 94.017 173.356 94.038 170.164C94.059 166.972 96.306 165.691 99.057 167.308Z" fill="#455A64"/>
<path d="M99.0361 170.164C100.422 170.983 101.556 172.957 101.535 174.574C101.535 176.17 100.38 176.821 98.9941 176.002C97.6081 175.204 96.4951 173.23 96.4951 171.613C96.5161 169.996 97.6501 169.366 99.0361 170.164Z" fill="#263238"/>
<path d="M101.997 162.898C101.997 162.898 102.333 168.799 99.6239 171.046C99.1199 171.466 98.5739 171.781 98.2589 172.075C97.5659 172.705 98.1119 173.776 99.0149 174.196C100.317 174.805 107.016 173.083 109.641 167.287L101.997 162.898Z" fill="#17A2B8"/>
<path d="M99.1411 172.453C99.4141 172.6 99.6661 172.978 99.6871 173.293C99.7081 173.608 99.4771 173.755 99.2041 173.608C98.9101 173.461 98.6791 173.083 98.6581 172.768C98.6371 172.453 98.8471 172.306 99.1411 172.453Z" fill="#FAFAFA"/>
<path d="M79.17 149.752C76.125 153.721 71.148 154.855 70.014 154.33C69.132 153.91 68.586 152.839 69.279 152.209C69.594 151.915 70.14 151.6 70.644 151.18C72.135 149.941 72.639 147.757 72.786 146.077L79.17 149.752Z" fill="#17A2B8"/>
<path opacity="0.2" d="M79.17 149.752C76.125 153.721 71.148 154.855 70.014 154.33C69.132 153.91 68.586 152.839 69.279 152.209C69.594 151.915 70.14 151.6 70.644 151.18C72.135 149.941 72.639 147.757 72.786 146.077L79.17 149.752Z" fill="black"/>
<path d="M75.9571 155.842C75.9781 152.65 73.7521 148.744 71.0011 147.127C69.5521 146.287 68.2501 146.245 67.3261 146.854L63.9451 148.765L71.0431 161.008L74.4031 159.097C75.3481 158.593 75.9361 157.48 75.9571 155.842Z" fill="#37474F"/>
<path d="M67.473 149.143C70.224 150.739 72.45 154.645 72.429 157.837C72.408 161.029 70.161 162.31 67.41 160.693C64.638 159.076 62.433 155.191 62.454 151.999C62.475 148.807 64.722 147.526 67.473 149.143Z" fill="#455A64"/>
<path d="M67.452 151.999C68.838 152.818 69.972 154.771 69.951 156.388C69.951 158.005 68.817 158.656 67.41 157.837C66.024 157.018 64.911 155.044 64.911 153.448C64.932 151.831 66.066 151.18 67.452 151.999Z" fill="#263238"/>
<path d="M70.3921 144.691C70.3921 144.691 70.7491 150.613 68.0401 152.881C67.5361 153.301 66.9901 153.595 66.6751 153.889C65.9821 154.54 66.5281 155.611 67.4311 156.031C68.7331 156.64 75.4531 154.897 78.0571 149.101L70.3921 144.691Z" fill="#17A2B8"/>
<path d="M67.5571 154.288C67.8511 154.435 68.0821 154.792 68.1031 155.107C68.1241 155.422 67.9141 155.569 67.6201 155.422C67.3471 155.296 67.0951 154.918 67.0741 154.603C67.0531 154.288 67.2631 154.141 67.5571 154.288Z" fill="#FAFAFA"/>
<path d="M151.494 144.754C148.428 148.702 143.451 149.836 142.338 149.332C141.435 148.912 140.91 147.841 141.582 147.19C141.897 146.896 142.443 146.602 142.968 146.161C144.459 144.922 144.963 142.717 145.11 141.037L151.494 144.754Z" fill="#17A2B8"/>
<path opacity="0.2" d="M151.494 144.754C148.428 148.702 143.451 149.836 142.338 149.332C141.435 148.912 140.91 147.841 141.582 147.19C141.897 146.896 142.443 146.602 142.968 146.161C144.459 144.922 144.963 142.717 145.11 141.037L151.494 144.754Z" fill="black"/>
<path d="M148.26 150.823C148.281 147.631 146.055 143.746 143.304 142.129C141.855 141.268 140.553 141.226 139.65 141.835L136.248 143.746L143.367 156.01L146.727 154.099H146.706C147.651 153.595 148.26 152.461 148.26 150.823Z" fill="#37474F"/>
<path d="M139.797 144.124C142.548 145.741 144.753 149.647 144.753 152.839C144.732 156.031 142.464 157.312 139.713 155.695C136.962 154.078 134.736 150.172 134.757 146.98C134.778 143.788 137.025 142.507 139.797 144.124Z" fill="#455A64"/>
<path d="M139.776 147.001C141.162 147.799 142.275 149.773 142.275 151.39C142.254 152.986 141.12 153.637 139.734 152.818C138.348 152.02 137.235 150.046 137.235 148.429C137.256 146.812 138.39 146.182 139.776 147.001Z" fill="#263238"/>
<path d="M142.737 139.651C142.737 139.651 143.073 145.615 140.364 147.862C139.86 148.282 139.293 148.597 138.978 148.891C138.306 149.521 138.831 150.592 139.734 151.012C141.057 151.621 147.777 149.899 150.381 144.103L142.737 139.651Z" fill="#17A2B8"/>
<path d="M139.881 149.269C140.154 149.416 140.406 149.794 140.427 150.109C140.427 150.424 140.217 150.571 139.944 150.424C139.65 150.277 139.398 149.899 139.398 149.584C139.377 149.269 139.587 149.122 139.881 149.269Z" fill="#FAFAFA"/>
<path d="M120.162 126.568C117.117 130.537 112.14 131.65 111.006 131.125C110.103 130.705 109.578 129.634 110.271 129.004C110.586 128.71 111.132 128.395 111.636 127.975C113.127 126.736 113.631 124.552 113.778 122.872L120.162 126.568Z" fill="#17A2B8"/>
<path opacity="0.2" d="M120.162 126.568C117.117 130.537 112.14 131.65 111.006 131.125C110.103 130.705 109.578 129.634 110.271 129.004C110.586 128.71 111.132 128.395 111.636 127.975C113.127 126.736 113.631 124.552 113.778 122.872L120.162 126.568Z" fill="black"/>
<path d="M116.949 132.637C116.97 129.445 114.744 125.539 111.993 123.922C110.544 123.082 109.242 123.04 108.318 123.649L104.937 125.56L112.035 137.803L115.395 135.892C116.34 135.388 116.928 134.275 116.949 132.637Z" fill="#37474F"/>
<path d="M108.465 125.917C111.216 127.534 113.442 131.44 113.421 134.632C113.4 137.824 111.153 139.105 108.402 137.488C105.63 135.871 103.425 131.986 103.446 128.794C103.467 125.602 105.714 124.321 108.465 125.917Z" fill="#455A64"/>
<path d="M108.444 128.794C109.83 129.613 110.964 131.566 110.943 133.183C110.943 134.8 109.809 135.451 108.402 134.632C107.016 133.813 105.903 131.839 105.903 130.243C105.924 128.626 107.058 127.975 108.444 128.794Z" fill="#263238"/>
<path d="M111.384 121.465C111.384 121.465 111.741 127.408 109.032 129.655C108.528 130.096 107.982 130.39 107.667 130.684C106.974 131.335 107.52 132.406 108.423 132.826C109.725 133.435 116.445 131.713 119.049 125.917L111.384 121.465Z" fill="#17A2B8"/>
<path d="M108.549 131.083C108.822 131.209 109.074 131.587 109.095 131.902C109.116 132.217 108.906 132.364 108.612 132.217C108.339 132.07 108.087 131.713 108.066 131.398C108.045 131.062 108.255 130.936 108.549 131.083Z" fill="#FAFAFA"/>
<path d="M104.559 84.6097L102.942 85.5337L99.708 26.9857C98.91 23.7937 95.844 19.7197 93.009 18.0817L91.476 17.1997C90.678 16.7377 89.313 16.7377 88.536 17.1997L83.853 19.8877C83.391 20.1397 82.824 19.9927 82.572 19.5517C82.32 19.1107 82.467 18.5227 82.908 18.2707L87.612 15.5827C88.956 14.8058 91.056 14.8058 92.379 15.5827L93.933 16.4647C97.209 18.3547 100.611 22.8698 101.514 26.5448L104.559 84.6097Z" fill="#455A64"/>
<path d="M48.972 42.8197L45.948 37.5697L83.58 15.8347C83.979 15.5197 84.567 15.5407 85.218 15.9187C86.415 16.5907 87.36 18.2497 87.36 19.6147C87.36 20.3707 87.066 20.8747 86.604 21.0637L48.972 42.8197Z" fill="#17A2B8"/>
<path opacity="0.3" d="M48.972 42.8197L45.948 37.5697L83.58 15.8347C83.979 15.5197 84.567 15.5407 85.218 15.9187C86.415 16.5907 87.36 18.2497 87.36 19.6147C87.36 20.3707 87.066 20.8747 86.604 21.0637L48.972 42.8197Z" fill="black"/>
<path d="M45.9481 37.5698C46.7461 37.1288 48.0691 37.9268 48.8881 39.3548C49.7281 40.8038 49.7701 42.3578 48.9721 42.8198C48.1741 43.2608 46.8511 42.4628 46.0111 41.0138C45.1921 39.5858 45.1501 38.0318 45.9481 37.5698Z" fill="#17A2B8"/>
<path d="M64.176 107.92L62.664 108.802L51.513 55.1467C50.736 51.9547 47.649 47.8807 44.814 46.2427L43.281 45.3397C42.462 44.8987 42 44.1847 42 43.4287C42 42.6727 42.462 41.9797 43.281 41.5177L46.62 39.6067C46.872 39.4597 47.271 39.7117 47.523 40.1527C47.796 40.5937 47.796 41.0767 47.544 41.2237L44.205 43.1347C43.932 43.2817 43.869 43.4077 43.869 43.4287C43.869 43.4707 43.932 43.5967 44.205 43.7437L45.759 44.6467C49.014 46.5157 52.416 51.0307 53.319 54.6847L64.176 107.92Z" fill="#455A64"/>
<path d="M62.6639 108.802L104.559 84.6099L165.795 119.953L123.9 144.145L62.6639 108.802Z" fill="#E0E0E0"/>
<g opacity="0.2">
<path d="M62.6639 108.802L104.559 84.6099L165.795 119.953L123.9 144.145L62.6639 108.802Z" fill="black"/>
</g>
<path d="M104.559 84.8197C104.454 84.8197 104.37 84.7357 104.349 84.6097L101.115 26.5237C101.115 26.4187 101.199 26.3137 101.325 26.3137C101.43 26.2927 101.535 26.3977 101.535 26.5027L104.769 84.5887C104.79 84.7147 104.706 84.7987 104.58 84.8197C104.58 84.8197 104.573 84.8197 104.559 84.8197Z" fill="#E0E0E0"/>
<path d="M112.224 89.2298C112.098 89.2298 112.014 89.1458 112.014 89.0198L111.3 33.3488C111.3 33.2438 111.405 33.1388 111.51 33.1388C111.636 33.1388 111.72 33.2438 111.72 33.3488L112.434 89.0198C112.434 89.1458 112.35 89.2298 112.224 89.2298Z" fill="#E0E0E0"/>
<path d="M119.868 93.6607C119.763 93.6607 119.658 93.5557 119.658 93.4296L121.065 40.0476C121.065 39.9216 121.149 39.8376 121.275 39.8376C121.38 39.8376 121.485 39.9426 121.485 40.0476L120.078 93.4507C120.078 93.5557 119.994 93.6607 119.868 93.6607Z" fill="#E0E0E0"/>
<path d="M127.533 98.0707C127.533 98.0707 127.526 98.0707 127.512 98.0707C127.407 98.0707 127.323 97.9657 127.323 97.8607L129.864 46.1167C129.864 45.9907 129.969 45.9067 130.074 45.9067C130.2 45.9067 130.284 46.0117 130.284 46.1377L127.743 97.8817C127.743 97.9867 127.638 98.0707 127.533 98.0707Z" fill="#E0E0E0"/>
<path d="M135.177 102.502C135.051 102.481 134.967 102.376 134.967 102.271L138.726 52.2068C138.726 52.0808 138.831 51.9968 138.936 51.9968C139.062 52.0178 139.146 52.1228 139.146 52.2278L135.387 102.292C135.387 102.418 135.303 102.502 135.177 102.502Z" fill="#E0E0E0"/>
<path d="M142.842 106.912C142.828 106.912 142.821 106.912 142.821 106.912C142.695 106.891 142.611 106.786 142.632 106.681L147.735 58.3388C147.756 58.2338 147.861 58.1498 147.966 58.1498C148.092 58.1708 148.176 58.2758 148.155 58.3808L143.052 106.723C143.031 106.828 142.947 106.912 142.842 106.912Z" fill="#E0E0E0"/>
<path d="M150.486 111.322C150.486 111.322 150.479 111.322 150.465 111.322C150.36 111.322 150.276 111.196 150.297 111.091L157.227 64.8277C157.248 64.7227 157.353 64.6387 157.479 64.6597C157.584 64.6597 157.668 64.7857 157.647 64.8907L150.696 111.154C150.696 111.259 150.591 111.322 150.486 111.322Z" fill="#E0E0E0"/>
<path d="M158.151 115.753C158.137 115.753 158.123 115.753 158.109 115.753C158.004 115.732 157.92 115.627 157.941 115.501L166.236 71.0017C166.257 70.8967 166.362 70.8127 166.488 70.8337C166.593 70.8547 166.677 70.9807 166.656 71.0857L158.361 115.585C158.34 115.69 158.256 115.753 158.151 115.753Z" fill="#E0E0E0"/>
<path d="M165.795 120.163C165.781 120.163 165.767 120.163 165.753 120.163C165.648 120.142 165.564 120.037 165.606 119.911L175.266 77.1126C175.287 77.0076 175.413 76.9236 175.518 76.9656C175.623 76.9866 175.707 77.0916 175.686 77.2176L166.005 120.016C165.984 120.1 165.9 120.163 165.795 120.163Z" fill="#E0E0E0"/>
<path d="M62.664 109.012C62.58 109.012 62.475 108.928 62.454 108.844L51.534 55.1258C51.513 55.0208 51.576 54.9158 51.702 54.8948C51.807 54.8528 51.912 54.9368 51.933 55.0418L62.874 108.76C62.895 108.865 62.832 108.97 62.706 109.012C62.692 109.012 62.678 109.012 62.664 109.012Z" fill="#E0E0E0"/>
<path d="M73.143 102.964C73.038 102.964 72.954 102.88 72.933 102.775L64.638 47.5447C64.617 47.4397 64.701 47.3347 64.806 47.3137C64.932 47.2927 65.037 47.3767 65.058 47.4817L73.353 102.712C73.374 102.838 73.29 102.943 73.185 102.964C73.171 102.964 73.157 102.964 73.143 102.964Z" fill="#E0E0E0"/>
<path d="M83.622 96.9157C83.517 96.9157 83.412 96.8317 83.412 96.7267L77.07 40.3627C77.049 40.2577 77.133 40.1527 77.259 40.1317C77.364 40.1317 77.469 40.1947 77.49 40.3207L83.832 96.6847C83.832 96.7897 83.748 96.8947 83.643 96.9157C83.629 96.9157 83.622 96.9157 83.622 96.9157Z" fill="#E0E0E0"/>
<path d="M94.101 90.8677C93.975 90.8677 93.891 90.7837 93.891 90.6787L89.04 33.5377C89.04 33.4117 89.124 33.3067 89.229 33.3067C89.334 33.2857 89.46 33.3697 89.46 33.4957L94.311 90.6367C94.311 90.7417 94.227 90.8467 94.101 90.8677Z" fill="#E0E0E0"/>
<path d="M104.559 84.8197C104.454 84.8197 104.37 84.7357 104.349 84.6097L101.115 26.5237C101.115 26.4187 101.199 26.3137 101.325 26.3137C101.43 26.2927 101.535 26.3977 101.535 26.5027L104.769 84.5887C104.79 84.7147 104.706 84.7987 104.58 84.8197C104.58 84.8197 104.573 84.8197 104.559 84.8197Z" fill="#E0E0E0"/>
<path d="M165.795 120.163C165.767 120.163 165.732 120.156 165.69 120.142L104.559 84.8408L62.769 108.97C62.664 109.033 62.538 108.991 62.496 108.907C62.433 108.802 62.454 108.676 62.559 108.613L104.454 84.4208C104.538 84.3788 104.601 84.3788 104.664 84.4208L165.9 119.785C166.005 119.827 166.047 119.974 165.984 120.058C165.942 120.142 165.879 120.163 165.795 120.163Z" fill="#E0E0E0"/>
<path d="M168.231 109.474C168.189 109.474 168.147 109.46 168.105 109.432L103.635 69.1118L59.9969 95.0048C59.8919 95.0678 59.7659 95.0258 59.7239 94.9418C59.6609 94.8368 59.6819 94.7108 59.7869 94.6478L103.53 68.6918C103.593 68.6498 103.677 68.6498 103.74 68.6918L168.336 109.075C168.441 109.138 168.462 109.264 168.399 109.369C168.357 109.432 168.294 109.474 168.231 109.474Z" fill="#E0E0E0"/>
<path d="M170.646 98.7636C170.604 98.7636 170.562 98.7566 170.52 98.7426L102.942 56.1336L57.309 81.7326C57.204 81.7956 57.078 81.7536 57.015 81.6696C56.952 81.5646 56.994 81.4386 57.099 81.3756L102.837 55.7136C102.921 55.6716 103.005 55.6716 103.068 55.7136L170.751 98.3856C170.856 98.4486 170.877 98.5746 170.814 98.6796C170.772 98.7426 170.709 98.7636 170.646 98.7636Z" fill="#E0E0E0"/>
<path d="M173.061 88.0748C173.019 88.0748 172.977 88.0608 172.935 88.0328L102.207 41.6648L54.5579 68.1667C54.4529 68.2298 54.3269 68.1878 54.2639 68.0828C54.2219 67.9778 54.2429 67.8518 54.3479 67.8098L102.102 41.2448C102.165 41.2028 102.249 41.2028 102.312 41.2448L173.166 87.6968C173.271 87.7598 173.292 87.8858 173.229 87.9698C173.187 88.0328 173.124 88.0748 173.061 88.0748Z" fill="#E0E0E0"/>
<path d="M175.476 77.3647C175.434 77.3647 175.392 77.3577 175.35 77.3437L101.325 26.7757L51.849 55.2727C51.744 55.3357 51.618 55.2937 51.555 55.1887C51.492 55.1047 51.534 54.9577 51.639 54.9157L101.22 26.3347C101.304 26.2927 101.388 26.2927 101.451 26.3347L175.581 76.9867C175.686 77.0497 175.707 77.1757 175.644 77.2807C175.602 77.3437 175.539 77.3647 175.476 77.3647Z" fill="#E0E0E0"/>
<g opacity="0.2">
<path d="M104.559 84.8197C104.454 84.8197 104.37 84.7357 104.349 84.6097L101.115 26.5237C101.115 26.4187 101.199 26.3137 101.325 26.3137C101.43 26.2927 101.535 26.3977 101.535 26.5027L104.769 84.5887C104.79 84.7147 104.706 84.7987 104.58 84.8197C104.58 84.8197 104.573 84.8197 104.559 84.8197Z" fill="black"/>
<path d="M112.224 89.2298C112.098 89.2298 112.014 89.1458 112.014 89.0198L111.3 33.3488C111.3 33.2438 111.405 33.1388 111.51 33.1388C111.636 33.1388 111.72 33.2438 111.72 33.3488L112.434 89.0198C112.434 89.1458 112.35 89.2298 112.224 89.2298Z" fill="black"/>
<path d="M119.868 93.6607C119.763 93.6607 119.658 93.5557 119.658 93.4296L121.065 40.0476C121.065 39.9216 121.149 39.8376 121.275 39.8376C121.38 39.8376 121.485 39.9426 121.485 40.0476L120.078 93.4507C120.078 93.5557 119.994 93.6607 119.868 93.6607Z" fill="black"/>
<path d="M127.533 98.0707C127.533 98.0707 127.526 98.0707 127.512 98.0707C127.407 98.0707 127.323 97.9657 127.323 97.8607L129.864 46.1167C129.864 45.9907 129.969 45.9067 130.074 45.9067C130.2 45.9067 130.284 46.0117 130.284 46.1377L127.743 97.8817C127.743 97.9867 127.638 98.0707 127.533 98.0707Z" fill="black"/>
<path d="M135.177 102.502C135.051 102.481 134.967 102.376 134.967 102.271L138.726 52.2068C138.726 52.0808 138.831 51.9968 138.936 51.9968C139.062 52.0178 139.146 52.1228 139.146 52.2278L135.387 102.292C135.387 102.418 135.303 102.502 135.177 102.502Z" fill="black"/>
<path d="M142.842 106.912C142.828 106.912 142.821 106.912 142.821 106.912C142.695 106.891 142.611 106.786 142.632 106.681L147.735 58.3388C147.756 58.2338 147.861 58.1498 147.966 58.1498C148.092 58.1708 148.176 58.2758 148.155 58.3808L143.052 106.723C143.031 106.828 142.947 106.912 142.842 106.912Z" fill="black"/>
<path d="M150.486 111.322C150.486 111.322 150.479 111.322 150.465 111.322C150.36 111.322 150.276 111.196 150.297 111.091L157.227 64.8277C157.248 64.7227 157.353 64.6387 157.479 64.6597C157.584 64.6597 157.668 64.7857 157.647 64.8907L150.696 111.154C150.696 111.259 150.591 111.322 150.486 111.322Z" fill="black"/>
<path d="M158.151 115.753C158.137 115.753 158.123 115.753 158.109 115.753C158.004 115.732 157.92 115.627 157.941 115.501L166.236 71.0017C166.257 70.8967 166.362 70.8127 166.488 70.8337C166.593 70.8547 166.677 70.9807 166.656 71.0857L158.361 115.585C158.34 115.69 158.256 115.753 158.151 115.753Z" fill="black"/>
<path d="M165.795 120.163C165.781 120.163 165.767 120.163 165.753 120.163C165.648 120.142 165.564 120.037 165.606 119.911L175.266 77.1126C175.287 77.0076 175.413 76.9236 175.518 76.9656C175.623 76.9866 175.707 77.0916 175.686 77.2176L166.005 120.016C165.984 120.1 165.9 120.163 165.795 120.163Z" fill="black"/>
<path d="M62.664 109.012C62.58 109.012 62.475 108.928 62.454 108.844L51.534 55.1258C51.513 55.0208 51.576 54.9158 51.702 54.8948C51.807 54.8528 51.912 54.9368 51.933 55.0418L62.874 108.76C62.895 108.865 62.832 108.97 62.706 109.012C62.692 109.012 62.678 109.012 62.664 109.012Z" fill="black"/>
<path d="M73.143 102.964C73.038 102.964 72.954 102.88 72.933 102.775L64.638 47.5447C64.617 47.4397 64.701 47.3347 64.806 47.3137C64.932 47.2927 65.037 47.3767 65.058 47.4817L73.353 102.712C73.374 102.838 73.29 102.943 73.185 102.964C73.171 102.964 73.157 102.964 73.143 102.964Z" fill="black"/>
<path d="M83.622 96.9157C83.517 96.9157 83.412 96.8317 83.412 96.7267L77.07 40.3627C77.049 40.2577 77.133 40.1527 77.259 40.1317C77.364 40.1317 77.469 40.1947 77.49 40.3207L83.832 96.6847C83.832 96.7897 83.748 96.8947 83.643 96.9157C83.629 96.9157 83.622 96.9157 83.622 96.9157Z" fill="black"/>
<path d="M94.101 90.8677C93.975 90.8677 93.891 90.7837 93.891 90.6787L89.04 33.5377C89.04 33.4117 89.124 33.3067 89.229 33.3067C89.334 33.2857 89.46 33.3697 89.46 33.4957L94.311 90.6367C94.311 90.7417 94.227 90.8467 94.101 90.8677Z" fill="black"/>
<path d="M104.559 84.8197C104.454 84.8197 104.37 84.7357 104.349 84.6097L101.115 26.5237C101.115 26.4187 101.199 26.3137 101.325 26.3137C101.43 26.2927 101.535 26.3977 101.535 26.5027L104.769 84.5887C104.79 84.7147 104.706 84.7987 104.58 84.8197C104.58 84.8197 104.573 84.8197 104.559 84.8197Z" fill="black"/>
<path d="M165.795 120.163C165.767 120.163 165.732 120.156 165.69 120.142L104.559 84.8407L62.769 108.97C62.664 109.033 62.538 108.991 62.496 108.907C62.433 108.802 62.454 108.676 62.559 108.613L104.559 84.3577L104.664 84.4207L165.9 119.785C166.005 119.827 166.047 119.974 165.984 120.058C165.942 120.142 165.879 120.163 165.795 120.163Z" fill="black"/>
<path d="M168.231 109.474C168.189 109.474 168.147 109.46 168.105 109.432L103.635 69.1118L59.9969 95.0048C59.8919 95.0678 59.7659 95.0258 59.7239 94.9418C59.6609 94.8368 59.6819 94.7108 59.7869 94.6478L103.635 68.6288L103.74 68.6918L168.336 109.075C168.441 109.138 168.462 109.264 168.399 109.369C168.357 109.432 168.294 109.474 168.231 109.474Z" fill="black"/>
<path d="M170.646 98.7638C170.604 98.7638 170.562 98.7568 170.52 98.7428L102.942 56.1338L57.309 81.7328C57.204 81.7958 57.078 81.7538 57.015 81.6698C56.952 81.5648 56.994 81.4388 57.099 81.3758L102.963 55.6508L103.068 55.7138L170.751 98.3858C170.856 98.4488 170.877 98.5748 170.814 98.6798C170.772 98.7428 170.709 98.7638 170.646 98.7638Z" fill="black"/>
<path d="M173.061 88.0749C173.019 88.0749 172.977 88.0609 172.935 88.0329L102.207 41.6649L54.5579 68.1669C54.4529 68.2299 54.3269 68.1879 54.2639 68.0829C54.2219 67.9779 54.2429 67.8519 54.3479 67.8099L102.207 41.1819L102.312 41.2449L173.166 87.6969C173.271 87.7599 173.292 87.8859 173.229 87.9699C173.187 88.0329 173.124 88.0749 173.061 88.0749Z" fill="black"/>
<path d="M175.476 77.3647C175.434 77.3647 175.392 77.3577 175.35 77.3437L101.325 26.7757L51.849 55.2727C51.744 55.3357 51.618 55.2937 51.555 55.1887C51.492 55.1047 51.534 54.9577 51.639 54.9157L101.346 26.2717L101.451 26.3347L175.581 76.9867C175.686 77.0497 175.707 77.1757 175.644 77.2807C175.602 77.3437 175.539 77.3647 175.476 77.3647Z" fill="black"/>
</g>
<path opacity="0.1" d="M65.52 108.256L97.839 89.5658L127.029 106.429L94.71 125.14L65.52 108.256Z" fill="black"/>
<path opacity="0.1" d="M102.102 122.074L135.345 102.817L164.535 119.701L131.292 138.958L102.102 122.074Z" fill="black"/>
<path d="M92.1481 42.5049L92.1271 78.8139L121.254 95.5929L121.275 59.2629L92.1481 42.5049Z" fill="#17A2B8"/>
<path opacity="0.1" d="M92.1481 42.5049L92.1271 78.8139L121.254 95.5929L121.275 59.2629L92.1481 42.5049Z" fill="black"/>
<path d="M135.072 51.3038L105.945 34.5248L92.1481 42.5048L121.275 59.2628L135.072 51.3038Z" fill="#17A2B8"/>
<path opacity="0.3" d="M135.072 51.3038L105.945 34.5248L92.1481 42.5048L121.275 59.2628L135.072 51.3038Z" fill="white"/>
<path fill-rule="evenodd" clip-rule="evenodd" d="M127.932 51.7238C127.974 51.7938 127.995 51.8778 127.995 51.9758C127.995 52.2068 127.848 52.4168 127.554 52.5848L125.79 53.6138L125.664 53.6768L125.622 53.5928L124.005 52.6688L125.979 51.5348C126.483 51.2408 127.218 51.2198 127.659 51.4718C127.785 51.5418 127.876 51.6258 127.932 51.7238ZM125.79 53.2988L127.428 52.3748C127.638 52.2488 127.743 52.1018 127.743 51.9758C127.743 51.8288 127.638 51.7448 127.533 51.6818C127.176 51.4928 126.525 51.5138 126.105 51.7448L125.979 51.8288L126.273 52.3538L125.622 52.8578L125.79 53.2988ZM125.937 52.2698L125.748 51.9548L124.53 52.6478L125.496 53.1938L125.328 52.7528L125.937 52.2698Z" fill="#455A64"/>
<path d="M129.192 50.6527C129.234 50.7157 129.213 50.7997 129.15 50.8417L127.659 51.6817C127.617 51.7237 127.533 51.7027 127.491 51.6397C127.449 51.5767 127.47 51.4927 127.533 51.4717L129.024 50.6107C129.087 50.5687 129.171 50.5897 129.192 50.6527Z" fill="#455A64"/>
<path d="M129.948 51.0937C129.969 51.1357 129.969 51.1777 129.948 51.2197C129.906 51.2827 129.822 51.3037 129.759 51.2617L128.289 50.4007C128.226 50.3797 128.205 50.2957 128.226 50.2327C128.268 50.1697 128.352 50.1487 128.415 50.1907L129.906 51.0517C129.92 51.0517 129.934 51.0657 129.948 51.0937Z" fill="#455A64"/>
<path d="M124.74 47.9647C124.768 48.0067 124.782 48.0557 124.782 48.1117C124.782 48.2167 124.698 48.3217 124.593 48.4057L124.278 48.5737C124.215 48.6157 124.131 48.5947 124.11 48.5317C124.068 48.4687 124.089 48.3847 124.152 48.3427L124.446 48.1747C124.509 48.1537 124.509 48.1117 124.509 48.1117C124.509 48.0907 124.509 48.0697 124.467 48.0487C124.341 47.9857 124.068 48.0067 123.837 48.1327L121.863 49.2667C121.8 49.3087 121.716 49.2877 121.695 49.2247C121.653 49.1617 121.674 49.0777 121.737 49.0567L123.711 47.9017C124.005 47.7337 124.383 47.7127 124.593 47.8177C124.649 47.8597 124.698 47.9087 124.74 47.9647Z" fill="#455A64"/>
<path fill-rule="evenodd" clip-rule="evenodd" d="M123.69 50.1278L123.501 50.2538C122.598 50.7578 121.128 50.7578 120.204 50.2538C119.742 49.9808 119.49 49.6238 119.49 49.2248C119.49 48.8258 119.742 48.4688 120.204 48.1958L120.288 48.1748L123.69 50.1278ZM119.847 49.5608C119.945 49.7288 120.106 49.8758 120.33 50.0018C121.107 50.4428 122.325 50.4848 123.165 50.1068L120.267 48.4478C119.931 48.6578 119.742 48.9308 119.742 49.2038C119.742 49.3298 119.777 49.4488 119.847 49.5608Z" fill="#455A64"/>
<path d="M120.162 45.2976C120.204 45.3606 120.183 45.4236 120.12 45.4656L116.34 47.6496C116.277 47.6916 116.193 47.6706 116.151 47.6076C116.13 47.5446 116.151 47.4606 116.214 47.4186L119.994 45.2556C120.057 45.2136 120.12 45.2346 120.162 45.2976Z" fill="#455A64"/>
<path d="M117.327 47.3767C117.327 47.3907 117.327 47.4047 117.327 47.4187C117.348 47.4817 117.285 47.5447 117.222 47.5657L116.088 47.6917L116.34 46.9567C116.361 46.8937 116.424 46.8517 116.508 46.8727C116.571 46.8937 116.613 46.9777 116.571 47.0407L116.466 47.3977L117.201 47.3137C117.243 47.2927 117.306 47.3137 117.327 47.3767Z" fill="#455A64"/>
<path d="M118.986 44.6047C119.028 44.6677 119.007 44.7517 118.944 44.7727L115.164 46.9567C115.101 46.9987 115.017 46.9777 114.975 46.9147C114.954 46.8517 114.975 46.7677 115.038 46.7467L118.797 44.5627C118.86 44.5207 118.944 44.5417 118.986 44.6047Z" fill="#455A64"/>
<path d="M116.151 46.6837C116.151 46.6977 116.151 46.7117 116.151 46.7257C116.172 46.7887 116.109 46.8517 116.046 46.8727L114.912 46.9987L115.164 46.2637C115.185 46.2007 115.248 46.1587 115.332 46.1797C115.395 46.2217 115.416 46.2847 115.395 46.3477L115.29 46.7047L116.025 46.6207C116.067 46.5997 116.109 46.6417 116.151 46.6837Z" fill="#455A64"/>
<path d="M135.072 51.3037L135.051 87.6337L121.254 95.5927L121.275 59.2627L135.072 51.3037Z" fill="#17A2B8"/>
<path d="M123.795 81.6278V75.2438L121.254 76.7138V83.0768L123.795 81.6278Z" fill="#37474F"/>
<path d="M121.254 76.7138L92.1271 59.9348V66.3188L121.254 83.0768V76.7138Z" fill="#263238"/>
<path d="M127.029 88.0327V80.3257C127.029 80.1367 127.176 79.9057 127.344 79.8007L131.355 77.4907C131.67 77.3017 131.943 77.4697 131.943 77.8477V85.5337C131.943 85.7227 131.817 85.9537 131.649 86.0587L127.638 88.3687C127.302 88.5577 127.029 88.4107 127.029 88.0327Z" fill="#FAFAFA"/>
<path d="M127.743 87.8017V87.5497L131.271 85.4917V85.7647L127.743 87.8017Z" fill="#455A64"/>
<path d="M127.743 86.7307V86.2897L131.292 84.2527L131.271 84.6937L127.743 86.7307Z" fill="#455A64"/>
<path d="M127.743 85.6807V85.4077L131.271 83.3707V83.6227L127.743 85.6807Z" fill="#455A64"/>
<path d="M127.743 84.8828V84.3578L131.271 82.2998V82.8248L127.743 84.8828Z" fill="#455A64"/>
<path d="M127.743 83.5388V83.2868L131.271 81.2498V81.5018L127.743 83.5388Z" fill="#455A64"/>
<path d="M127.722 82.7827L127.743 82.2157L131.271 80.1787V80.7457L127.722 82.7827Z" fill="#455A64"/>
<path d="M127.743 81.4177V81.1447L131.271 79.1077V79.3807L127.743 81.4177Z" fill="#455A64"/>
<path d="M127.743 80.8087V80.6827L131.271 78.6458V78.7717L127.743 80.8087Z" fill="#455A64"/>
<path d="M127.764 81.9007V81.7537L131.292 79.7167V79.8427L127.764 81.9007Z" fill="#455A64"/>
<path d="M127.743 84.0428V83.9168L131.292 81.8798V82.0058L127.743 84.0428Z" fill="#455A64"/>
<path d="M127.743 85.2187V85.0927L131.292 83.0347V83.1817L127.743 85.2187Z" fill="#455A64"/>
<path d="M127.764 86.0588V85.9118L131.292 83.8748V84.0008L127.764 86.0588Z" fill="#455A64"/>
<path d="M127.743 87.2138V87.0878L131.271 85.0298V85.1768L127.743 87.2138Z" fill="#455A64"/>
<path d="M127.743 80.3467V80.0947L131.271 78.0367V78.3097L127.743 80.3467Z" fill="#455A64"/>
<path d="M122.724 87.8227L97.9651 73.5007L69.8461 89.7757L94.6051 104.098L122.724 87.8227Z" fill="#17A2B8"/>
<path opacity="0.3" d="M122.724 87.8227L97.9651 73.5007L69.8461 89.7757L94.6051 104.098L122.724 87.8227Z" fill="white"/>
<path d="M94.605 122.704L122.724 106.429V87.8228L94.605 104.098V122.704Z" fill="#17A2B8"/>
<path fill-rule="evenodd" clip-rule="evenodd" d="M97.7131 116.53C97.6291 116.53 97.5451 116.509 97.4611 116.467C97.2721 116.362 97.1671 116.11 97.1671 115.795V113.821V113.674L97.2721 113.695L98.8051 112.792V114.997C98.8051 115.543 98.4691 116.194 98.0491 116.425C97.9371 116.495 97.8251 116.53 97.7131 116.53ZM97.4191 113.968V115.795C97.4191 116.026 97.4821 116.194 97.5871 116.257C97.6921 116.32 97.8391 116.278 97.9231 116.215C98.2591 116.026 98.5531 115.459 98.5531 114.997V114.829H97.9861L97.8811 114.052L97.4191 113.968ZM98.2171 114.577H98.5741V113.212L97.6501 113.758L98.0911 113.842L98.2171 114.577Z" fill="#455A64"/>
<path d="M97.986 118.105C97.923 118.105 97.86 118.042 97.86 117.979V116.32C97.86 116.257 97.923 116.194 97.986 116.194C98.049 116.194 98.112 116.257 98.112 116.32V117.979C98.112 118.042 98.049 118.105 97.986 118.105Z" fill="#455A64"/>
<path d="M97.272 118.525C97.23 118.525 97.188 118.504 97.167 118.462C97.125 118.399 97.146 118.315 97.209 118.294L98.637 117.454C98.7 117.412 98.784 117.433 98.805 117.496C98.847 117.559 98.826 117.643 98.763 117.664L97.335 118.504C97.307 118.518 97.286 118.525 97.272 118.525Z" fill="#455A64"/>
<path d="M102.396 115.669C102.34 115.669 102.291 115.655 102.249 115.627C102.165 115.585 102.102 115.48 102.102 115.333V114.997C102.102 114.934 102.165 114.871 102.228 114.871C102.312 114.871 102.354 114.934 102.354 114.997V115.333C102.354 115.375 102.375 115.417 102.375 115.417C102.396 115.417 102.417 115.417 102.459 115.396C102.564 115.333 102.69 115.081 102.69 114.829V112.645C102.69 112.561 102.753 112.519 102.816 112.519C102.879 112.519 102.942 112.561 102.942 112.645V114.829C102.942 115.165 102.795 115.501 102.585 115.606C102.515 115.648 102.452 115.669 102.396 115.669Z" fill="#455A64"/>
<path fill-rule="evenodd" clip-rule="evenodd" d="M101.094 113.737V113.527C101.094 112.519 101.808 111.28 102.669 110.776C103.11 110.524 103.551 110.482 103.866 110.671C104.202 110.86 104.391 111.259 104.391 111.763V111.847L101.094 113.737ZM103.404 110.797C103.222 110.797 103.019 110.86 102.795 110.986C102.06 111.406 101.43 112.414 101.346 113.296L104.139 111.679C104.118 111.301 103.971 111.007 103.74 110.881C103.642 110.825 103.53 110.797 103.404 110.797Z" fill="#455A64"/>
<path d="M106.848 113.128C106.764 113.128 106.722 113.065 106.722 113.002V108.781C106.722 108.718 106.764 108.676 106.848 108.676C106.911 108.676 106.974 108.718 106.974 108.781V113.002C106.974 113.065 106.911 113.128 106.848 113.128Z" fill="#455A64"/>
<path d="M106.47 109.747C106.456 109.747 106.442 109.747 106.428 109.747C106.365 109.705 106.344 109.642 106.365 109.579L106.806 108.571L107.289 109.138C107.352 109.18 107.331 109.264 107.289 109.306C107.226 109.348 107.163 109.348 107.121 109.285L106.869 109.012L106.596 109.684C106.575 109.726 106.533 109.747 106.47 109.747Z" fill="#455A64"/>
<path d="M107.982 112.477C107.919 112.477 107.856 112.414 107.856 112.351V108.13C107.856 108.067 107.919 108.004 107.982 108.004C108.066 108.004 108.108 108.067 108.108 108.13V112.351C108.108 112.414 108.066 112.477 107.982 112.477Z" fill="#455A64"/>
<path d="M107.625 109.096C107.611 109.096 107.597 109.096 107.583 109.096C107.52 109.054 107.478 108.991 107.52 108.928L107.961 107.899L108.444 108.466C108.486 108.529 108.486 108.613 108.423 108.655C108.381 108.697 108.297 108.697 108.255 108.634L108.024 108.361L107.73 109.033C107.709 109.075 107.667 109.096 107.625 109.096Z" fill="#455A64"/>
<path d="M94.6051 122.704L69.8461 108.382V89.7758L94.6051 104.098V122.704Z" fill="#17A2B8"/>
<path opacity="0.1" d="M94.6051 122.704L69.8461 108.382V89.7758L94.6051 104.098V122.704Z" fill="black"/>
<path d="M81.0179 99.0578L82.8239 100.108V97.2728L81.0179 96.2228V99.0578Z" fill="#37474F"/>
<path d="M82.8239 97.2728L110.943 80.9978L109.137 79.9478L81.0179 96.2228L82.8239 97.2728Z" fill="#455A64"/>
<path d="M73.395 101.473L79.821 105.211C79.989 105.295 80.115 105.526 80.115 105.694V110.188C80.115 110.545 79.842 110.692 79.527 110.503L73.101 106.786C72.933 106.702 72.807 106.471 72.807 106.282V101.809C72.807 101.452 73.059 101.305 73.395 101.473Z" fill="#FAFAFA"/>
<path d="M73.2271 102.187L73.4371 102.313V106.261L73.2271 106.135V102.187Z" fill="#455A64"/>
<path d="M74.109 102.691L74.487 102.922V106.87L74.109 106.639V102.691Z" fill="#455A64"/>
<path d="M75.0121 103.216L75.2221 103.342V107.29L75.0121 107.164V103.216Z" fill="#455A64"/>
<path d="M75.684 103.594L76.125 103.846V107.794L75.684 107.542V103.594Z" fill="#455A64"/>
<path d="M76.797 104.245L77.007 104.371V108.319L76.797 108.193V104.245Z" fill="#455A64"/>
<path d="M77.427 104.602L77.91 104.875V108.823L77.427 108.55V104.602Z" fill="#455A64"/>
<path d="M78.582 105.274L78.792 105.4V109.348L78.582 109.222V105.274Z" fill="#455A64"/>
<path d="M79.0859 105.547L79.1909 105.61V109.558L79.0859 109.495V105.547Z" fill="#455A64"/>
<path d="M78.162 105.043L78.267 105.106V109.054L78.162 108.991V105.043Z" fill="#455A64"/>
<path d="M76.3771 103.993L76.4821 104.056V108.004L76.3771 107.941V103.993Z" fill="#455A64"/>
<path d="M75.3901 103.426L75.4951 103.489V107.437L75.3901 107.374V103.426Z" fill="#455A64"/>
<path d="M74.676 103.048L74.802 103.111L74.781 107.059L74.676 106.996V103.048Z" fill="#455A64"/>
<path d="M73.731 102.46L73.836 102.523V106.471L73.731 106.408V102.46Z" fill="#455A64"/>
<path d="M79.4641 105.778L79.6951 105.904V109.852L79.4641 109.726V105.778Z" fill="#455A64"/>
<path d="M65.8771 83.3287L72.3031 87.0457C72.4711 87.1507 72.5971 87.3607 72.5971 87.5497V92.0227C72.5971 92.4007 72.3451 92.5477 72.0301 92.3587L65.5831 88.6417C65.4151 88.5577 65.2891 88.3267 65.2891 88.1377V83.6647C65.2891 83.3077 65.5621 83.1397 65.8771 83.3287Z" fill="#FAFAFA"/>
<path d="M65.709 84.0217L65.94 84.1477V88.1167L65.709 87.9697V84.0217Z" fill="#455A64"/>
<path d="M66.6119 84.5468L66.9899 84.7568V88.7258L66.6119 88.4948V84.5468Z" fill="#455A64"/>
<path d="M67.494 85.0508L67.725 85.1768V89.1248L67.494 88.9988V85.0508Z" fill="#455A64"/>
<path d="M68.1661 85.4497L68.6071 85.7017V89.6497L68.1661 89.3977V85.4497Z" fill="#455A64"/>
<path d="M69.2791 86.0797L69.4891 86.2057V90.1747L69.2791 90.0277V86.0797Z" fill="#455A64"/>
<path d="M69.9301 86.4579L70.3921 86.7309V90.6789L69.9301 90.4059V86.4579Z" fill="#455A64"/>
<path d="M71.0641 87.1086L71.2741 87.2346V91.1826L71.0641 91.0566V87.1086Z" fill="#455A64"/>
<path d="M71.5681 87.4027L71.6731 87.4657V91.4137L71.5681 91.3507V87.4027Z" fill="#455A64"/>
<path d="M70.6649 86.8988L70.7699 86.9618V90.9098L70.6649 90.8468V86.8988Z" fill="#455A64"/>
<path d="M68.8591 85.8488L68.9641 85.9118V89.8598L68.8591 89.7968V85.8488Z" fill="#455A64"/>
<path d="M67.8721 85.2817L67.9771 85.3447V89.2927L67.8721 89.2297V85.2817Z" fill="#455A64"/>
<path d="M67.179 84.9037L67.284 84.9667V88.9147L67.179 88.8517V84.9037Z" fill="#455A64"/>
<path d="M66.2131 84.3158L66.3181 84.3788V88.3268L66.2131 88.2638V84.3158Z" fill="#455A64"/>
<path d="M71.946 87.6337L72.177 87.7597V91.7077L71.946 91.5817V87.6337Z" fill="#455A64"/>
<path d="M162.708 86.8778L135.975 71.4218L105.63 88.9988L132.363 104.455L162.708 86.8778Z" fill="#17A2B8"/>
<g opacity="0.4">
<path d="M162.708 86.8778L135.975 71.4218L105.63 88.9988L132.363 104.455L162.708 86.8778Z" fill="white"/>
</g>
<path d="M132.363 137.425L162.708 119.869V86.8777L132.363 104.455V137.425Z" fill="#17A2B8"/>
<g opacity="0.2">
<path d="M132.363 137.425L162.708 119.869V86.8777L132.363 104.455V137.425Z" fill="white"/>
</g>
<path fill-rule="evenodd" clip-rule="evenodd" d="M134.988 131.818C134.918 131.818 134.848 131.804 134.778 131.776C134.631 131.692 134.526 131.482 134.526 131.209V129.571V129.445H134.61L135.912 128.689V130.537C135.912 130.999 135.639 131.545 135.282 131.734C135.184 131.79 135.086 131.818 134.988 131.818ZM134.736 129.697V131.209C134.736 131.398 134.799 131.545 134.883 131.587C134.988 131.65 135.093 131.608 135.177 131.566C135.45 131.398 135.702 130.936 135.702 130.537V130.411H135.219L135.135 129.76L134.736 129.697ZM135.387 130.201H135.702V129.067L134.925 129.508L135.303 129.592L135.387 130.201Z" fill="#455A64"/>
<path d="M135.219 133.141C135.156 133.141 135.114 133.099 135.114 133.036V131.65C135.114 131.587 135.156 131.545 135.219 131.545C135.282 131.545 135.324 131.587 135.324 131.65V133.036C135.324 133.099 135.282 133.141 135.219 133.141Z" fill="#455A64"/>
<path d="M134.61 133.498C134.589 133.498 134.547 133.477 134.526 133.435C134.505 133.393 134.526 133.33 134.568 133.288L135.765 132.595C135.828 132.574 135.891 132.595 135.912 132.637C135.933 132.7 135.933 132.763 135.87 132.784L134.673 133.477C134.659 133.491 134.638 133.498 134.61 133.498Z" fill="#455A64"/>
<path d="M138.915 131.104C138.873 131.104 138.831 131.097 138.789 131.083C138.726 131.02 138.663 130.936 138.663 130.831V130.537C138.663 130.474 138.726 130.432 138.768 130.432C138.831 130.432 138.873 130.474 138.873 130.537V130.831C138.873 130.873 138.894 130.894 138.894 130.894C138.915 130.894 138.936 130.894 138.978 130.873C139.062 130.831 139.167 130.621 139.167 130.411V128.563C139.167 128.5 139.209 128.458 139.272 128.458C139.314 128.458 139.377 128.5 139.377 128.563V130.411C139.377 130.684 139.251 130.957 139.083 131.062C139.027 131.09 138.971 131.104 138.915 131.104Z" fill="#455A64"/>
<path fill-rule="evenodd" clip-rule="evenodd" d="M137.823 129.487V129.319C137.823 128.458 138.411 127.429 139.146 127.009C139.524 126.799 139.881 126.757 140.154 126.925C140.427 127.093 140.574 127.408 140.574 127.849V127.891L137.823 129.487ZM139.776 127.03C139.622 127.03 139.447 127.086 139.251 127.198C138.642 127.555 138.117 128.395 138.033 129.13L140.364 127.786C140.364 127.45 140.259 127.219 140.049 127.114C139.965 127.058 139.874 127.03 139.776 127.03Z" fill="#455A64"/>
<path d="M142.632 128.983C142.569 128.983 142.527 128.941 142.527 128.878V125.35C142.527 125.287 142.569 125.245 142.632 125.245C142.695 125.245 142.737 125.287 142.737 125.35V128.878C142.737 128.941 142.695 128.983 142.632 128.983Z" fill="#455A64"/>
<path d="M142.338 126.148C142.324 126.148 142.31 126.148 142.296 126.148C142.233 126.127 142.212 126.064 142.233 126.001L142.611 125.161L143.01 125.623C143.052 125.665 143.052 125.728 143.01 125.77C142.968 125.812 142.905 125.812 142.863 125.77L142.674 125.539L142.422 126.085C142.422 126.127 142.38 126.148 142.338 126.148Z" fill="#455A64"/>
<path d="M143.598 128.437C143.535 128.437 143.493 128.395 143.493 128.332V124.804C143.493 124.741 143.535 124.699 143.598 124.699C143.661 124.699 143.703 124.741 143.703 124.804V128.332C143.703 128.395 143.661 128.437 143.598 128.437Z" fill="#455A64"/>
<path d="M143.283 125.602C143.269 125.602 143.255 125.602 143.241 125.602C143.199 125.581 143.178 125.518 143.199 125.455L143.577 124.615L143.976 125.077C144.018 125.119 144.018 125.182 143.976 125.224C143.934 125.266 143.85 125.266 143.829 125.224L143.619 124.993L143.388 125.539C143.367 125.581 143.325 125.602 143.283 125.602Z" fill="#455A64"/>
<path d="M132.363 137.425L105.63 121.969V88.9988L132.363 104.455V137.425Z" fill="#17A2B8"/>
<path opacity="0.1" d="M132.363 137.425L105.63 121.969V88.9988L132.363 104.455V137.425Z" fill="black"/>
<path d="M150.003 98.1968L145.11 101.032V97.0838L150.003 94.2488V98.1968Z" fill="#37474F"/>
<path d="M145.11 97.0837L118.377 81.6067L123.291 78.7717L150.003 94.2487L145.11 97.0837Z" fill="#455A64"/>
<path d="M107.562 117.517L112.182 120.184C112.287 120.268 112.392 120.415 112.392 120.562V123.775C112.392 124.027 112.203 124.153 111.972 124.006L107.352 121.339C107.226 121.276 107.142 121.108 107.142 120.982V117.769C107.142 117.496 107.331 117.391 107.562 117.517Z" fill="#FAFAFA"/>
<path d="M107.436 118.021L107.604 118.105V120.961L107.436 120.856V118.021Z" fill="#455A64"/>
<path d="M108.087 118.399L108.36 118.546V121.381L108.087 121.234V118.399Z" fill="#455A64"/>
<path d="M108.717 118.756L108.885 118.861V121.696L108.717 121.591V118.756Z" fill="#455A64"/>
<path d="M109.2 119.029L109.515 119.218V122.053L109.2 121.864V119.029Z" fill="#455A64"/>
<path d="M109.998 119.491L110.166 119.596V122.431L109.998 122.347V119.491Z" fill="#455A64"/>
<path d="M110.46 119.764L110.796 119.953V122.809L110.46 122.599V119.764Z" fill="#455A64"/>
<path d="M111.279 120.247L111.447 120.331V123.166L111.279 123.082V120.247Z" fill="#455A64"/>
<path d="M111.657 120.457L111.72 120.499V123.334L111.657 123.292V120.457Z" fill="#455A64"/>
<path d="M110.985 120.079L111.069 120.142V122.977L110.985 122.914V120.079Z" fill="#455A64"/>
<path d="M109.704 119.323L109.788 119.386V122.221L109.704 122.158V119.323Z" fill="#455A64"/>
<path d="M108.99 118.924L109.074 118.966V121.801L108.99 121.759V118.924Z" fill="#455A64"/>
<path d="M108.486 118.651L108.57 118.693V121.528L108.486 121.486V118.651Z" fill="#455A64"/>
<path d="M107.793 118.231L107.877 118.273V121.108L107.793 121.066V118.231Z" fill="#455A64"/>
<path d="M111.93 120.604L112.077 120.709V123.544L111.93 123.439V120.604Z" fill="#455A64"/>
<path d="M133.581 101.557C133.539 101.557 133.504 101.55 133.476 101.536L51.639 55.2728C51.534 55.2098 51.492 55.0838 51.555 54.9788C51.618 54.8948 51.744 54.8528 51.828 54.9158L133.581 101.116L175.371 76.9868C175.476 76.9238 175.602 76.9658 175.665 77.0498C175.707 77.1548 175.686 77.2808 175.581 77.3438L133.686 101.536C133.644 101.55 133.609 101.557 133.581 101.557Z" fill="#E0E0E0"/>
<path d="M123.9 144.355C123.872 144.355 123.837 144.348 123.795 144.334L62.5591 108.97C62.5171 108.949 62.4751 108.907 62.4541 108.844L51.5341 55.1258C51.5131 55.0208 51.5761 54.9158 51.7021 54.8948C51.8071 54.8528 51.9121 54.9368 51.9331 55.0418L62.8531 108.655L123.9 143.914L165.627 119.827L175.266 77.1128C175.287 77.0078 175.413 76.9238 175.518 76.9658C175.623 76.9868 175.707 77.0918 175.686 77.2178L166.005 120.016C166.005 120.058 165.963 120.121 165.9 120.142L124.005 144.334C123.977 144.348 123.942 144.355 123.9 144.355Z" fill="#E0E0E0"/>
<path d="M123.9 144.355C123.886 144.355 123.872 144.355 123.858 144.355C123.753 144.334 123.669 144.208 123.711 144.103L133.371 101.305C133.392 101.2 133.497 101.116 133.623 101.158C133.728 101.179 133.812 101.284 133.77 101.389L124.11 144.187C124.089 144.292 124.005 144.355 123.9 144.355Z" fill="#E0E0E0"/>
<path d="M134.379 138.307C134.365 138.307 134.351 138.307 134.337 138.307C134.211 138.286 134.148 138.16 134.169 138.055L143.85 95.2567C143.871 95.1517 143.976 95.0677 144.102 95.1097C144.207 95.1307 144.27 95.2357 144.249 95.3617L134.589 138.16C134.568 138.244 134.484 138.307 134.379 138.307Z" fill="#E0E0E0"/>
<path d="M144.858 132.259C144.844 132.259 144.83 132.259 144.816 132.259C144.69 132.238 144.627 132.133 144.648 132.007L154.329 89.2087C154.35 89.1037 154.455 89.0197 154.56 89.0617C154.686 89.0827 154.749 89.1877 154.728 89.3137L145.068 132.112C145.047 132.196 144.942 132.259 144.858 132.259Z" fill="#E0E0E0"/>
<path d="M155.337 126.211C155.323 126.211 155.302 126.211 155.274 126.211C155.169 126.19 155.106 126.085 155.127 125.959L164.787 83.1607C164.808 83.0557 164.934 82.9717 165.039 83.0137C165.165 83.0347 165.228 83.1397 165.207 83.2657L155.526 126.064C155.505 126.148 155.421 126.211 155.337 126.211Z" fill="#E0E0E0"/>
<path d="M70.3289 113.422C70.2239 113.422 70.1189 113.338 70.1189 113.233L64.1129 62.2238C64.1129 62.1188 64.1759 62.0138 64.3019 61.9928C64.4279 61.9928 64.5119 62.0768 64.5329 62.1818L70.5389 113.191C70.5389 113.296 70.4549 113.401 70.3499 113.422C70.3359 113.422 70.3289 113.422 70.3289 113.422Z" fill="#E0E0E0"/>
<path d="M77.973 117.853C77.868 117.853 77.784 117.769 77.763 117.643L74.34 67.9989C74.319 67.8939 74.424 67.7889 74.529 67.7679C74.634 67.7679 74.739 67.8519 74.76 67.9779L78.183 117.622C78.204 117.727 78.099 117.832 77.994 117.853C77.994 117.853 77.987 117.853 77.973 117.853Z" fill="#E0E0E0"/>
<path d="M85.638 122.263C85.512 122.263 85.428 122.179 85.428 122.053L85.05 74.0468C85.05 73.9208 85.134 73.8368 85.239 73.8368C85.344 73.8368 85.47 73.9208 85.47 74.0258L85.848 122.053C85.848 122.158 85.743 122.263 85.638 122.263Z" fill="#E0E0E0"/>
<path d="M93.282 126.673C93.156 126.673 93.072 126.589 93.072 126.463L94.815 79.5489C94.815 79.4439 94.92 79.3389 95.046 79.3599C95.151 79.3599 95.235 79.4649 95.235 79.5699L93.492 126.484C93.492 126.589 93.408 126.673 93.282 126.673Z" fill="#E0E0E0"/>
<path d="M100.947 131.104C100.933 131.104 100.926 131.104 100.926 131.104C100.8 131.083 100.716 130.999 100.737 130.873L104.349 84.9459C104.37 84.8199 104.475 84.7359 104.58 84.7569C104.706 84.7569 104.79 84.8619 104.769 84.9669L101.157 130.915C101.136 131.02 101.052 131.104 100.947 131.104Z" fill="#E0E0E0"/>
<path d="M108.591 135.514C108.591 135.514 108.584 135.514 108.57 135.514C108.465 135.514 108.381 135.409 108.381 135.283L114.03 90.4058C114.051 90.2798 114.156 90.1958 114.261 90.2168C114.387 90.2378 114.45 90.3428 114.45 90.4478L108.801 135.346C108.801 135.451 108.696 135.514 108.591 135.514Z" fill="#E0E0E0"/>
<path d="M116.256 139.945C116.242 139.945 116.228 139.945 116.214 139.945C116.109 139.924 116.025 139.798 116.046 139.693L123.984 95.8658C124.005 95.7608 124.11 95.6768 124.236 95.6978C124.341 95.7188 124.425 95.8238 124.404 95.9498L116.466 139.777C116.445 139.861 116.361 139.945 116.256 139.945Z" fill="#E0E0E0"/>
<path d="M133.581 101.557C133.539 101.557 133.504 101.55 133.476 101.536L51.639 55.2728C51.534 55.2098 51.492 55.0838 51.555 54.9788C51.618 54.8948 51.744 54.8528 51.828 54.9158L133.581 101.116L175.371 76.9868C175.476 76.9238 175.602 76.9658 175.665 77.0498C175.707 77.1548 175.686 77.2808 175.581 77.3438L133.686 101.536C133.644 101.55 133.609 101.557 133.581 101.557Z" fill="#E0E0E0"/>
<path d="M131.166 112.267C131.124 112.267 131.089 112.253 131.061 112.225L54.3479 68.1669C54.2429 68.1039 54.2219 67.9779 54.2639 67.8729C54.3269 67.7889 54.4529 67.7469 54.5579 67.8099L131.166 111.805L172.956 87.6759C173.061 87.6129 173.187 87.6549 173.229 87.7599C173.292 87.8649 173.271 87.9909 173.166 88.0539L131.271 112.225C131.229 112.253 131.194 112.267 131.166 112.267Z" fill="#E0E0E0"/>
<path d="M128.73 122.956C128.702 122.956 128.674 122.949 128.646 122.935L57.099 81.7329C56.994 81.6909 56.952 81.5649 57.015 81.4599C57.078 81.3549 57.204 81.3129 57.309 81.3759L128.73 122.515L170.541 98.3859C170.625 98.3229 170.772 98.3649 170.814 98.4489C170.877 98.5539 170.835 98.6799 170.751 98.7429L128.835 122.935C128.807 122.949 128.772 122.956 128.73 122.956Z" fill="#E0E0E0"/>
<path d="M126.315 133.666C126.287 133.666 126.252 133.652 126.21 133.624L59.7869 95.0049C59.6819 94.9629 59.6609 94.8159 59.7239 94.7319C59.7659 94.6269 59.8919 94.5849 59.9969 94.6479L126.315 133.204L168.126 109.075C168.21 109.012 168.336 109.054 168.399 109.159C168.462 109.264 168.42 109.39 168.336 109.453L126.42 133.624C126.392 133.652 126.357 133.666 126.315 133.666Z" fill="#E0E0E0"/>
<path d="M123.9 144.355C123.872 144.355 123.837 144.348 123.795 144.334L62.559 108.97C62.454 108.928 62.433 108.781 62.496 108.697C62.538 108.592 62.664 108.55 62.769 108.613L123.9 143.914L165.69 119.785C165.795 119.722 165.921 119.764 165.984 119.848C166.047 119.953 166.005 120.079 165.9 120.142L124.005 144.334C123.977 144.348 123.942 144.355 123.9 144.355Z" fill="#E0E0E0"/>
<path fill-rule="evenodd" clip-rule="evenodd" d="M30.513 108.003C30.513 108.087 30.429 108.171 30.324 108.192L27.384 108.507C27.111 108.549 26.88 108.78 26.859 109.053L26.523 112.812C26.502 112.917 26.418 113.001 26.313 113.001C26.208 113.001 26.124 112.917 26.124 112.812L25.767 109.053C25.746 108.78 25.536 108.549 25.242 108.507L22.302 108.192C22.197 108.171 22.113 108.087 22.113 108.003C22.113 107.898 22.197 107.814 22.302 107.793L25.242 107.478C25.536 107.436 25.746 107.205 25.767 106.932L26.124 103.173C26.124 103.068 26.208 102.984 26.313 102.984C26.418 102.984 26.502 103.068 26.523 103.173L26.859 106.932C26.88 107.205 27.111 107.436 27.384 107.478L30.324 107.793C30.429 107.814 30.513 107.898 30.513 108.003ZM28.497 108.003L27.342 107.856C26.88 107.814 26.502 107.436 26.46 106.953L26.313 105.399L26.166 106.953C26.124 107.436 25.767 107.814 25.284 107.856L24.129 108.003L25.284 108.129C25.767 108.171 26.124 108.549 26.166 109.032L26.313 110.586L26.46 109.032C26.502 108.549 26.88 108.171 27.342 108.129L28.497 108.003ZM132.195 31.899C132.195 32.004 132.111 32.088 132.006 32.109L127.449 32.613C126.966 32.655 126.588 33.054 126.525 33.537L126.021 39.354C126 39.459 125.916 39.543 125.811 39.543C125.685 39.543 125.601 39.459 125.601 39.354L125.076 33.537C125.034 33.054 124.635 32.655 124.152 32.613L119.595 32.109C119.49 32.088 119.406 32.004 119.406 31.899C119.406 31.794 119.49 31.689 119.595 31.689L124.152 31.185C124.635 31.122 125.034 30.723 125.076 30.24L125.601 24.423C125.601 24.318 125.685 24.234 125.811 24.234C125.916 24.234 126 24.318 126.021 24.423L126.525 30.24C126.588 30.723 126.966 31.122 127.449 31.185L132.006 31.689C132.111 31.689 132.195 31.794 132.195 31.899ZM130.074 31.899L127.407 31.605C126.714 31.521 126.168 30.975 126.126 30.282L125.811 26.796L125.496 30.282C125.433 30.975 124.887 31.521 124.194 31.605L121.527 31.899L124.194 32.193C124.887 32.256 125.433 32.823 125.496 33.495L125.811 37.002L126.126 33.495C126.168 32.823 126.714 32.256 127.407 32.193L130.074 31.899ZM12.684 99.4139C12.684 99.351 12.726 99.288 12.81 99.288L14.763 99.057C14.952 99.036 15.099 98.889 15.12 98.7L15.351 96.201C15.351 96.138 15.414 96.075 15.477 96.075C15.54 96.075 15.603 96.138 15.603 96.201L15.834 98.7C15.855 98.889 16.002 99.036 16.191 99.057L18.144 99.288C18.207 99.288 18.27 99.351 18.27 99.4139C18.27 99.477 18.207 99.54 18.144 99.54L16.191 99.771C16.002 99.792 15.855 99.939 15.834 100.128L15.603 102.627C15.603 102.69 15.54 102.753 15.477 102.753C15.414 102.753 15.351 102.69 15.351 102.627L15.12 100.128C15.099 99.939 14.952 99.792 14.763 99.771L12.81 99.54C12.726 99.54 12.684 99.477 12.684 99.4139ZM14.028 99.4139L14.784 99.498C15.099 99.54 15.351 99.792 15.372 100.107L15.477 101.136L15.561 100.107C15.603 99.792 15.855 99.54 16.149 99.498L16.926 99.4139L16.149 99.33C15.855 99.288 15.603 99.036 15.561 98.721L15.477 97.692L15.372 98.721C15.351 99.036 15.099 99.288 14.784 99.33L14.028 99.4139ZM18.312 73.479C18.312 73.395 18.375 73.353 18.438 73.332L20.391 73.122C20.58 73.101 20.727 72.954 20.748 72.765L20.979 70.266C20.979 70.182 21.042 70.14 21.105 70.14C21.189 70.14 21.231 70.182 21.252 70.266L21.462 72.765C21.483 72.954 21.63 73.101 21.819 73.122L23.793 73.332C23.856 73.353 23.898 73.395 23.898 73.479C23.898 73.542 23.856 73.605 23.793 73.605L21.819 73.815C21.63 73.836 21.483 73.983 21.462 74.172L21.252 76.692C21.231 76.755 21.189 76.797 21.105 76.797C21.042 76.797 20.979 76.755 20.979 76.692L20.748 74.193C20.727 73.983 20.58 73.836 20.391 73.815L18.438 73.605C18.375 73.605 18.312 73.542 18.312 73.479ZM19.656 73.479L20.433 73.563C20.748 73.584 20.979 73.836 21.021 74.151L21.105 75.201L21.21 74.151C21.231 73.836 21.483 73.584 21.798 73.563L22.554 73.479L21.798 73.395C21.483 73.353 21.231 73.101 21.21 72.786L21.105 71.757L21.021 72.786C20.979 73.101 20.748 73.353 20.433 73.395L19.656 73.479ZM26.439 18.312C26.439 18.249 26.481 18.186 26.565 18.186L28.707 17.934C28.917 17.913 29.085 17.745 29.106 17.535L29.358 14.805C29.358 14.721 29.421 14.658 29.484 14.658C29.568 14.658 29.631 14.721 29.631 14.805L29.883 17.535C29.904 17.745 30.072 17.913 30.282 17.934L32.424 18.186C32.508 18.186 32.55 18.249 32.55 18.312C32.55 18.396 32.508 18.459 32.424 18.459L30.282 18.711C30.072 18.732 29.904 18.9 29.883 19.11L29.631 21.84C29.631 21.924 29.568 21.966 29.484 21.966C29.421 21.966 29.358 21.924 29.358 21.84L29.106 19.11C29.085 18.9 28.917 18.732 28.707 18.711L26.565 18.459C26.481 18.459 26.439 18.396 26.439 18.312ZM27.909 18.312L28.749 18.417C29.085 18.459 29.358 18.732 29.4 19.068L29.484 20.202L29.589 19.068C29.631 18.732 29.904 18.459 30.24 18.417L31.08 18.312L30.24 18.228C29.904 18.186 29.631 17.913 29.589 17.577L29.484 16.443L29.4 17.577C29.358 17.913 29.085 18.186 28.749 18.228L27.909 18.312ZM109.389 21.336C109.389 21.273 109.431 21.231 109.494 21.21L111.384 21C111.552 20.979 111.699 20.832 111.72 20.664L111.93 18.249C111.951 18.186 111.993 18.144 112.056 18.144C112.14 18.144 112.182 18.186 112.182 18.249L112.413 20.664C112.413 20.832 112.56 20.979 112.749 21L114.618 21.21C114.702 21.231 114.744 21.273 114.744 21.336C114.744 21.399 114.702 21.462 114.618 21.462L112.749 21.672C112.56 21.693 112.413 21.84 112.413 22.029L112.182 24.423C112.182 24.486 112.14 24.528 112.056 24.528C111.993 24.528 111.951 24.486 111.93 24.423L111.72 22.029C111.699 21.84 111.552 21.693 111.384 21.672L109.494 21.462C109.431 21.462 109.389 21.399 109.389 21.336ZM110.67 21.336L111.405 21.42C111.699 21.462 111.951 21.693 111.972 22.008L112.056 22.995L112.161 22.008C112.182 21.693 112.413 21.462 112.728 21.42L113.463 21.336L112.728 21.252C112.413 21.231 112.182 20.979 112.161 20.685L112.056 19.698L111.972 20.685C111.951 20.979 111.699 21.231 111.405 21.252L110.67 21.336ZM144.795 23.436C144.795 23.373 144.858 23.31 144.921 23.31L146.916 23.079C147.105 23.058 147.252 22.911 147.273 22.722L147.504 20.181C147.504 20.118 147.567 20.055 147.63 20.055C147.693 20.055 147.756 20.118 147.777 20.181L147.987 22.722C148.008 22.911 148.155 23.058 148.365 23.079L150.339 23.31C150.402 23.31 150.465 23.373 150.465 23.436C150.465 23.499 150.402 23.562 150.339 23.562L148.365 23.793C148.155 23.814 148.008 23.961 147.987 24.15L147.777 26.691C147.756 26.775 147.693 26.817 147.63 26.817C147.567 26.817 147.504 26.775 147.504 26.691L147.273 24.15C147.252 23.961 147.105 23.814 146.916 23.793L144.921 23.562C144.858 23.562 144.795 23.499 144.795 23.436ZM146.16 23.436L146.937 23.52C147.252 23.562 147.504 23.814 147.546 24.129L147.63 25.179L147.735 24.129C147.756 23.814 148.008 23.562 148.323 23.52L149.1 23.436L148.323 23.352C148.008 23.31 147.756 23.058 147.735 22.743L147.63 21.693L147.546 22.743C147.504 23.058 147.252 23.31 146.937 23.352L146.16 23.436ZM180.852 66.822C180.852 66.885 180.81 66.927 180.747 66.948L179.046 67.137C178.878 67.137 178.752 67.284 178.731 67.452L178.542 69.615C178.521 69.678 178.479 69.72 178.416 69.72C178.353 69.72 178.311 69.678 178.311 69.615L178.101 67.452C178.101 67.284 177.954 67.137 177.807 67.137L176.085 66.948C176.043 66.927 175.98 66.885 175.98 66.822C175.98 66.759 176.043 66.717 176.085 66.717L177.807 66.528C177.954 66.507 178.101 66.381 178.101 66.213L178.311 64.029C178.311 63.966 178.353 63.924 178.416 63.924C178.479 63.924 178.521 63.966 178.542 64.029L178.731 66.213C178.752 66.381 178.878 66.507 179.046 66.528L180.747 66.717C180.81 66.717 180.852 66.759 180.852 66.822ZM179.676 66.822L179.004 66.759C178.731 66.717 178.521 66.507 178.5 66.234L178.416 65.331L178.332 66.234C178.311 66.507 178.101 66.717 177.828 66.759L177.156 66.822L177.828 66.906C178.101 66.927 178.311 67.158 178.332 67.431L178.416 68.313L178.5 67.431C178.521 67.158 178.731 66.927 179.004 66.906L179.676 66.822ZM196.413 86.793C196.413 86.856 196.371 86.8979 196.308 86.919L194.607 87.108C194.439 87.129 194.313 87.255 194.292 87.423L194.103 89.586C194.103 89.649 194.04 89.691 193.998 89.691C193.935 89.691 193.872 89.649 193.872 89.586L193.683 87.423C193.662 87.255 193.536 87.129 193.368 87.108L191.667 86.919C191.604 86.8979 191.562 86.856 191.562 86.793C191.562 86.73 191.604 86.688 191.667 86.688L193.368 86.499C193.536 86.478 193.662 86.352 193.683 86.184L193.872 84C193.872 83.937 193.935 83.895 193.998 83.895C194.04 83.895 194.103 83.937 194.103 84L194.292 86.184C194.313 86.352 194.439 86.478 194.607 86.499L196.308 86.688C196.371 86.688 196.413 86.73 196.413 86.793ZM195.258 86.793L194.586 86.73C194.313 86.688 194.103 86.478 194.061 86.205L193.998 85.302L193.914 86.205C193.893 86.478 193.662 86.688 193.389 86.73L192.717 86.793L193.389 86.877C193.662 86.898 193.893 87.129 193.914 87.402L193.998 88.305L194.061 87.402C194.103 87.129 194.313 86.898 194.586 86.877L195.258 86.793ZM174.111 46.389C174.111 46.473 174.048 46.557 173.943 46.557L171.297 46.851C171.045 46.872 170.835 47.082 170.814 47.334L170.499 50.736C170.499 50.82 170.415 50.904 170.331 50.904C170.226 50.904 170.163 50.82 170.142 50.736L169.848 47.334C169.827 47.082 169.617 46.872 169.365 46.851L166.698 46.557C166.614 46.557 166.551 46.473 166.551 46.389C166.551 46.284 166.614 46.2 166.698 46.2L169.365 45.906C169.617 45.885 169.827 45.675 169.848 45.423L170.142 42.021C170.163 41.937 170.226 41.853 170.331 41.853C170.415 41.853 170.499 41.937 170.499 42.021L170.814 45.423C170.835 45.675 171.045 45.885 171.297 45.906L173.943 46.2C174.048 46.2 174.111 46.284 174.111 46.389ZM172.305 46.389L171.255 46.263C170.835 46.221 170.499 45.864 170.457 45.444L170.331 44.037L170.205 45.444C170.163 45.864 169.827 46.221 169.407 46.263L168.357 46.389L169.407 46.494C169.827 46.536 170.163 46.893 170.205 47.313L170.331 48.72L170.457 47.313C170.499 46.893 170.835 46.536 171.255 46.494L172.305 46.389ZM164.01 57.393C164.01 57.456 163.968 57.519 163.884 57.54L161.742 57.771C161.532 57.792 161.364 57.96 161.343 58.17L161.091 60.9C161.091 60.984 161.028 61.047 160.944 61.047C160.881 61.047 160.818 60.984 160.818 60.9L160.566 58.17C160.545 57.96 160.377 57.792 160.167 57.771L158.025 57.54C157.941 57.519 157.899 57.456 157.899 57.393C157.899 57.309 157.941 57.246 158.025 57.246L160.167 57.015C160.377 56.994 160.545 56.826 160.566 56.616L160.818 53.865C160.818 53.802 160.881 53.739 160.944 53.739C161.028 53.739 161.091 53.802 161.091 53.865L161.343 56.616C161.364 56.826 161.532 56.994 161.742 57.015L163.884 57.246C163.968 57.246 164.01 57.309 164.01 57.393ZM162.54 57.393L161.7 57.288C161.364 57.267 161.091 56.973 161.049 56.637L160.944 55.503L160.86 56.637C160.818 56.973 160.545 57.267 160.209 57.288L159.369 57.393L160.209 57.477C160.545 57.519 160.818 57.792 160.86 58.149L160.944 59.283L161.049 58.149C161.091 57.792 161.364 57.519 161.7 57.477L162.54 57.393ZM182.595 96.81C182.595 96.894 182.532 96.978 182.448 96.978L179.865 97.272C179.613 97.293 179.424 97.503 179.403 97.7339L179.109 101.031C179.088 101.115 179.025 101.178 178.92 101.178C178.836 101.178 178.773 101.115 178.752 101.031L178.458 97.7339C178.437 97.503 178.248 97.293 177.996 97.272L175.413 96.978C175.329 96.978 175.266 96.894 175.266 96.81C175.266 96.726 175.329 96.642 175.413 96.642L177.996 96.348C178.248 96.327 178.437 96.117 178.458 95.865L178.752 92.589C178.773 92.505 178.836 92.421 178.92 92.421C179.025 92.421 179.088 92.505 179.109 92.589L179.403 95.865C179.424 96.117 179.613 96.327 179.865 96.348L182.448 96.642C182.532 96.642 182.595 96.726 182.595 96.81ZM180.831 96.81L179.823 96.705C179.424 96.642 179.088 96.327 179.046 95.907L178.92 94.542L178.815 95.907C178.773 96.327 178.437 96.642 178.038 96.705L177.03 96.81L178.038 96.915C178.437 96.957 178.773 97.293 178.815 97.713L178.92 99.078L179.046 97.713C179.088 97.293 179.424 96.957 179.823 96.915L180.831 96.81ZM193.956 24.234C193.956 24.339 193.872 24.444 193.746 24.465L190.386 24.822C190.05 24.864 189.798 25.137 189.756 25.452L189.378 29.757C189.357 29.883 189.273 29.967 189.147 29.967C189.021 29.967 188.937 29.883 188.916 29.757L188.538 25.452C188.496 25.137 188.244 24.864 187.908 24.822L184.548 24.465C184.422 24.444 184.338 24.339 184.338 24.234C184.338 24.108 184.422 24.024 184.548 24.003L187.908 23.625C188.244 23.583 188.496 23.331 188.538 22.995L188.916 18.69C188.937 18.564 189.021 18.48 189.147 18.48C189.273 18.48 189.357 18.564 189.378 18.69L189.756 22.995C189.798 23.331 190.05 23.583 190.386 23.625L193.746 24.003C193.872 24.024 193.956 24.108 193.956 24.234ZM191.646 24.234L190.323 24.087C189.777 24.024 189.357 23.583 189.315 23.037L189.147 21.252L188.979 23.037C188.937 23.583 188.517 24.024 187.971 24.087L186.648 24.234L187.971 24.381C188.517 24.444 188.937 24.864 188.979 25.41L189.147 27.195L189.315 25.41C189.357 24.864 189.777 24.444 190.323 24.381L191.646 24.234Z" fill="#F0F0F0"/>
</svg>
